%TF.GenerationSoftware,KiCad,Pcbnew,9.0.2+1*%
%TF.CreationDate,2025-07-26T13:52:59+01:00*%
%TF.ProjectId,DigiCron,44696769-4372-46f6-9e2e-6b696361645f,1*%
%TF.SameCoordinates,Original*%
%TF.FileFunction,Legend,Bot*%
%TF.FilePolarity,Positive*%
%FSLAX46Y46*%
G04 Gerber Fmt 4.6, Leading zero omitted, Abs format (unit mm)*
G04 Created by KiCad (PCBNEW 9.0.2+1) date 2025-07-26 13:52:59*
%MOMM*%
%LPD*%
G01*
G04 APERTURE LIST*
%ADD10C,0.150000*%
%ADD11C,0.125000*%
%ADD12C,0.000000*%
%ADD13C,0.152400*%
%ADD14C,0.120000*%
%ADD15C,0.100000*%
%ADD16C,0.200000*%
%ADD17C,0.300000*%
%ADD18C,0.127000*%
G04 APERTURE END LIST*
D10*
X149600577Y-116235319D02*
X149267244Y-117235319D01*
X149267244Y-117235319D02*
X148933911Y-116235319D01*
X148076768Y-117235319D02*
X148648196Y-117235319D01*
X148362482Y-117235319D02*
X148362482Y-116235319D01*
X148362482Y-116235319D02*
X148457720Y-116378176D01*
X148457720Y-116378176D02*
X148552958Y-116473414D01*
X148552958Y-116473414D02*
X148648196Y-116521033D01*
X154211938Y-84976088D02*
X154164319Y-84880850D01*
X154164319Y-84880850D02*
X154164319Y-84737993D01*
X154164319Y-84737993D02*
X154211938Y-84595136D01*
X154211938Y-84595136D02*
X154307176Y-84499898D01*
X154307176Y-84499898D02*
X154402414Y-84452279D01*
X154402414Y-84452279D02*
X154592890Y-84404660D01*
X154592890Y-84404660D02*
X154735747Y-84404660D01*
X154735747Y-84404660D02*
X154926223Y-84452279D01*
X154926223Y-84452279D02*
X155021461Y-84499898D01*
X155021461Y-84499898D02*
X155116700Y-84595136D01*
X155116700Y-84595136D02*
X155164319Y-84737993D01*
X155164319Y-84737993D02*
X155164319Y-84833231D01*
X155164319Y-84833231D02*
X155116700Y-84976088D01*
X155116700Y-84976088D02*
X155069080Y-85023707D01*
X155069080Y-85023707D02*
X154735747Y-85023707D01*
X154735747Y-85023707D02*
X154735747Y-84833231D01*
X149457720Y-119104366D02*
X148695816Y-119104366D01*
X149076768Y-119485319D02*
X149076768Y-118723414D01*
D11*
X150423380Y-94795168D02*
X151423380Y-94795168D01*
X151423380Y-94795168D02*
X150709095Y-94461835D01*
X150709095Y-94461835D02*
X151423380Y-94128502D01*
X151423380Y-94128502D02*
X150423380Y-94128502D01*
X150804333Y-93652311D02*
X150804333Y-92890407D01*
X150423380Y-93271359D02*
X151185285Y-93271359D01*
X145923380Y-94795168D02*
X146923380Y-94795168D01*
X146923380Y-94795168D02*
X146923380Y-94414216D01*
X146923380Y-94414216D02*
X146875761Y-94318978D01*
X146875761Y-94318978D02*
X146828142Y-94271359D01*
X146828142Y-94271359D02*
X146732904Y-94223740D01*
X146732904Y-94223740D02*
X146590047Y-94223740D01*
X146590047Y-94223740D02*
X146494809Y-94271359D01*
X146494809Y-94271359D02*
X146447190Y-94318978D01*
X146447190Y-94318978D02*
X146399571Y-94414216D01*
X146399571Y-94414216D02*
X146399571Y-94795168D01*
X146447190Y-93461835D02*
X146399571Y-93318978D01*
X146399571Y-93318978D02*
X146351952Y-93271359D01*
X146351952Y-93271359D02*
X146256714Y-93223740D01*
X146256714Y-93223740D02*
X146113857Y-93223740D01*
X146113857Y-93223740D02*
X146018619Y-93271359D01*
X146018619Y-93271359D02*
X145971000Y-93318978D01*
X145971000Y-93318978D02*
X145923380Y-93414216D01*
X145923380Y-93414216D02*
X145923380Y-93795168D01*
X145923380Y-93795168D02*
X146923380Y-93795168D01*
X146923380Y-93795168D02*
X146923380Y-93461835D01*
X146923380Y-93461835D02*
X146875761Y-93366597D01*
X146875761Y-93366597D02*
X146828142Y-93318978D01*
X146828142Y-93318978D02*
X146732904Y-93271359D01*
X146732904Y-93271359D02*
X146637666Y-93271359D01*
X146637666Y-93271359D02*
X146542428Y-93318978D01*
X146542428Y-93318978D02*
X146494809Y-93366597D01*
X146494809Y-93366597D02*
X146447190Y-93461835D01*
X146447190Y-93461835D02*
X146447190Y-93795168D01*
X152423380Y-91795168D02*
X153423380Y-91795168D01*
X153423380Y-91795168D02*
X152709095Y-91461835D01*
X152709095Y-91461835D02*
X153423380Y-91128502D01*
X153423380Y-91128502D02*
X152423380Y-91128502D01*
X152804333Y-90652311D02*
X152804333Y-89890407D01*
D10*
X143664319Y-84452279D02*
X142664319Y-84452279D01*
X142664319Y-84452279D02*
X142664319Y-84690374D01*
X142664319Y-84690374D02*
X142711938Y-84833231D01*
X142711938Y-84833231D02*
X142807176Y-84928469D01*
X142807176Y-84928469D02*
X142902414Y-84976088D01*
X142902414Y-84976088D02*
X143092890Y-85023707D01*
X143092890Y-85023707D02*
X143235747Y-85023707D01*
X143235747Y-85023707D02*
X143426223Y-84976088D01*
X143426223Y-84976088D02*
X143521461Y-84928469D01*
X143521461Y-84928469D02*
X143616700Y-84833231D01*
X143616700Y-84833231D02*
X143664319Y-84690374D01*
X143664319Y-84690374D02*
X143664319Y-84452279D01*
X143664319Y-85452279D02*
X142664319Y-85452279D01*
X142664319Y-86118945D02*
X142664319Y-86309421D01*
X142664319Y-86309421D02*
X142711938Y-86404659D01*
X142711938Y-86404659D02*
X142807176Y-86499897D01*
X142807176Y-86499897D02*
X142997652Y-86547516D01*
X142997652Y-86547516D02*
X143330985Y-86547516D01*
X143330985Y-86547516D02*
X143521461Y-86499897D01*
X143521461Y-86499897D02*
X143616700Y-86404659D01*
X143616700Y-86404659D02*
X143664319Y-86309421D01*
X143664319Y-86309421D02*
X143664319Y-86118945D01*
X143664319Y-86118945D02*
X143616700Y-86023707D01*
X143616700Y-86023707D02*
X143521461Y-85928469D01*
X143521461Y-85928469D02*
X143330985Y-85880850D01*
X143330985Y-85880850D02*
X142997652Y-85880850D01*
X142997652Y-85880850D02*
X142807176Y-85928469D01*
X142807176Y-85928469D02*
X142711938Y-86023707D01*
X142711938Y-86023707D02*
X142664319Y-86118945D01*
X138069080Y-85023707D02*
X138116700Y-84976088D01*
X138116700Y-84976088D02*
X138164319Y-84833231D01*
X138164319Y-84833231D02*
X138164319Y-84737993D01*
X138164319Y-84737993D02*
X138116700Y-84595136D01*
X138116700Y-84595136D02*
X138021461Y-84499898D01*
X138021461Y-84499898D02*
X137926223Y-84452279D01*
X137926223Y-84452279D02*
X137735747Y-84404660D01*
X137735747Y-84404660D02*
X137592890Y-84404660D01*
X137592890Y-84404660D02*
X137402414Y-84452279D01*
X137402414Y-84452279D02*
X137307176Y-84499898D01*
X137307176Y-84499898D02*
X137211938Y-84595136D01*
X137211938Y-84595136D02*
X137164319Y-84737993D01*
X137164319Y-84737993D02*
X137164319Y-84833231D01*
X137164319Y-84833231D02*
X137211938Y-84976088D01*
X137211938Y-84976088D02*
X137259557Y-85023707D01*
X138164319Y-85928469D02*
X138164319Y-85452279D01*
X138164319Y-85452279D02*
X137164319Y-85452279D01*
X138164319Y-86261803D02*
X137164319Y-86261803D01*
X138164319Y-86833231D02*
X137592890Y-86404660D01*
X137164319Y-86833231D02*
X137735747Y-86261803D01*
D11*
X147923380Y-91795168D02*
X148923380Y-91795168D01*
X148923380Y-91795168D02*
X148923380Y-91414216D01*
X148923380Y-91414216D02*
X148875761Y-91318978D01*
X148875761Y-91318978D02*
X148828142Y-91271359D01*
X148828142Y-91271359D02*
X148732904Y-91223740D01*
X148732904Y-91223740D02*
X148590047Y-91223740D01*
X148590047Y-91223740D02*
X148494809Y-91271359D01*
X148494809Y-91271359D02*
X148447190Y-91318978D01*
X148447190Y-91318978D02*
X148399571Y-91414216D01*
X148399571Y-91414216D02*
X148399571Y-91795168D01*
X148209095Y-90842787D02*
X148209095Y-90366597D01*
X147923380Y-90938025D02*
X148923380Y-90604692D01*
X148923380Y-90604692D02*
X147923380Y-90271359D01*
D10*
X148164319Y-84357041D02*
X148164319Y-84976088D01*
X148164319Y-84976088D02*
X148545271Y-84642755D01*
X148545271Y-84642755D02*
X148545271Y-84785612D01*
X148545271Y-84785612D02*
X148592890Y-84880850D01*
X148592890Y-84880850D02*
X148640509Y-84928469D01*
X148640509Y-84928469D02*
X148735747Y-84976088D01*
X148735747Y-84976088D02*
X148973842Y-84976088D01*
X148973842Y-84976088D02*
X149069080Y-84928469D01*
X149069080Y-84928469D02*
X149116700Y-84880850D01*
X149116700Y-84880850D02*
X149164319Y-84785612D01*
X149164319Y-84785612D02*
X149164319Y-84499898D01*
X149164319Y-84499898D02*
X149116700Y-84404660D01*
X149116700Y-84404660D02*
X149069080Y-84357041D01*
X148164319Y-85261803D02*
X149164319Y-85595136D01*
X149164319Y-85595136D02*
X148164319Y-85928469D01*
X148164319Y-86166565D02*
X148164319Y-86785612D01*
X148164319Y-86785612D02*
X148545271Y-86452279D01*
X148545271Y-86452279D02*
X148545271Y-86595136D01*
X148545271Y-86595136D02*
X148592890Y-86690374D01*
X148592890Y-86690374D02*
X148640509Y-86737993D01*
X148640509Y-86737993D02*
X148735747Y-86785612D01*
X148735747Y-86785612D02*
X148973842Y-86785612D01*
X148973842Y-86785612D02*
X149069080Y-86737993D01*
X149069080Y-86737993D02*
X149116700Y-86690374D01*
X149116700Y-86690374D02*
X149164319Y-86595136D01*
X149164319Y-86595136D02*
X149164319Y-86309422D01*
X149164319Y-86309422D02*
X149116700Y-86214184D01*
X149116700Y-86214184D02*
X149069080Y-86166565D01*
D12*
G36*
X146583365Y-113747633D02*
G01*
X146586433Y-113747890D01*
X146589472Y-113748314D01*
X146592478Y-113748899D01*
X146595447Y-113749642D01*
X146598372Y-113750536D01*
X146601249Y-113751578D01*
X146604074Y-113752763D01*
X146606841Y-113754087D01*
X146609545Y-113755545D01*
X146612182Y-113757131D01*
X146614746Y-113758843D01*
X146617233Y-113760674D01*
X146619638Y-113762621D01*
X146621956Y-113764678D01*
X146624182Y-113766841D01*
X146626311Y-113769107D01*
X146628338Y-113771469D01*
X146630258Y-113773923D01*
X146632067Y-113776465D01*
X146633759Y-113779090D01*
X146635330Y-113781793D01*
X146636774Y-113784571D01*
X146638087Y-113787417D01*
X146639265Y-113790328D01*
X146640301Y-113793299D01*
X146641191Y-113796326D01*
X146641930Y-113799403D01*
X146642514Y-113802527D01*
X146642936Y-113805692D01*
X146643194Y-113808893D01*
X146643281Y-113812128D01*
X146643281Y-113813703D01*
X146643281Y-114209071D01*
X146642982Y-114233234D01*
X146642075Y-114256695D01*
X146640539Y-114279455D01*
X146638358Y-114301514D01*
X146635513Y-114322871D01*
X146631984Y-114343526D01*
X146627754Y-114363481D01*
X146622804Y-114382733D01*
X146617115Y-114401285D01*
X146610670Y-114419135D01*
X146603449Y-114436283D01*
X146595435Y-114452730D01*
X146586609Y-114468476D01*
X146576951Y-114483520D01*
X146566445Y-114497862D01*
X146555071Y-114511504D01*
X146542894Y-114523987D01*
X146530010Y-114535464D01*
X146516453Y-114545962D01*
X146502254Y-114555510D01*
X146487446Y-114564135D01*
X146472061Y-114571865D01*
X146456132Y-114578727D01*
X146439690Y-114584749D01*
X146422769Y-114589959D01*
X146405399Y-114594385D01*
X146387615Y-114598053D01*
X146369447Y-114600993D01*
X146350929Y-114603231D01*
X146332092Y-114604796D01*
X146312970Y-114605714D01*
X146293593Y-114606014D01*
X146274251Y-114605732D01*
X146255226Y-114604863D01*
X146236537Y-114603377D01*
X146218206Y-114601239D01*
X146200254Y-114598419D01*
X146182700Y-114594883D01*
X146165567Y-114590600D01*
X146148874Y-114585537D01*
X146132643Y-114579661D01*
X146116894Y-114572941D01*
X146101648Y-114565345D01*
X146086925Y-114556839D01*
X146072748Y-114547392D01*
X146059135Y-114536971D01*
X146046109Y-114525544D01*
X146033690Y-114513079D01*
X146022038Y-114499714D01*
X146011289Y-114485609D01*
X146001422Y-114470760D01*
X145992415Y-114455167D01*
X145984248Y-114438826D01*
X145976900Y-114421734D01*
X145970351Y-114403891D01*
X145964579Y-114385293D01*
X145959564Y-114365938D01*
X145955285Y-114345825D01*
X145951721Y-114324949D01*
X145948852Y-114303310D01*
X145946656Y-114280905D01*
X145945114Y-114257732D01*
X145944203Y-114233788D01*
X145943905Y-114209071D01*
X145943905Y-113813703D01*
X145943905Y-113812128D01*
X145943987Y-113808755D01*
X145944232Y-113805432D01*
X145944635Y-113802163D01*
X145945194Y-113798951D01*
X145945903Y-113795800D01*
X145946760Y-113792715D01*
X145947760Y-113789697D01*
X145948901Y-113786753D01*
X145950177Y-113783884D01*
X145951586Y-113781095D01*
X145953124Y-113778390D01*
X145954786Y-113775773D01*
X145956570Y-113773246D01*
X145958471Y-113770814D01*
X145960485Y-113768481D01*
X145962610Y-113766251D01*
X145964840Y-113764126D01*
X145967173Y-113762112D01*
X145969605Y-113760211D01*
X145972131Y-113758427D01*
X145974749Y-113756765D01*
X145977454Y-113755227D01*
X145980243Y-113753818D01*
X145983111Y-113752542D01*
X145986056Y-113751402D01*
X145989073Y-113750401D01*
X145992159Y-113749544D01*
X145995310Y-113748835D01*
X145998522Y-113748276D01*
X146001791Y-113747873D01*
X146005114Y-113747628D01*
X146008487Y-113747546D01*
X146011859Y-113747628D01*
X146015182Y-113747873D01*
X146018451Y-113748276D01*
X146021663Y-113748835D01*
X146024814Y-113749544D01*
X146027900Y-113750401D01*
X146030917Y-113751402D01*
X146033862Y-113752542D01*
X146036730Y-113753818D01*
X146039519Y-113755227D01*
X146042224Y-113756765D01*
X146044842Y-113758427D01*
X146047368Y-113760211D01*
X146049800Y-113762112D01*
X146052133Y-113764126D01*
X146054363Y-113766251D01*
X146056488Y-113768481D01*
X146058502Y-113770814D01*
X146060403Y-113773246D01*
X146062187Y-113775773D01*
X146063849Y-113778390D01*
X146065387Y-113781095D01*
X146066796Y-113783884D01*
X146068072Y-113786753D01*
X146069213Y-113789697D01*
X146070213Y-113792715D01*
X146071070Y-113795800D01*
X146071779Y-113798951D01*
X146072338Y-113802163D01*
X146072741Y-113805432D01*
X146072986Y-113808755D01*
X146073069Y-113812128D01*
X146071493Y-113813703D01*
X146071493Y-114209071D01*
X146071767Y-114230323D01*
X146072573Y-114250391D01*
X146073892Y-114269311D01*
X146075702Y-114287116D01*
X146077983Y-114303841D01*
X146080714Y-114319521D01*
X146083874Y-114334190D01*
X146087442Y-114347883D01*
X146091398Y-114360635D01*
X146095721Y-114372480D01*
X146100390Y-114383452D01*
X146105384Y-114393587D01*
X146110683Y-114402920D01*
X146116266Y-114411484D01*
X146122112Y-114419314D01*
X146128200Y-114426445D01*
X146134314Y-114432981D01*
X146140863Y-114439012D01*
X146147872Y-114444549D01*
X146155371Y-114449605D01*
X146163387Y-114454189D01*
X146171948Y-114458314D01*
X146181080Y-114461992D01*
X146190813Y-114465233D01*
X146201173Y-114468050D01*
X146212188Y-114470454D01*
X146223887Y-114472456D01*
X146236296Y-114474069D01*
X146249443Y-114475303D01*
X146263357Y-114476170D01*
X146278064Y-114476682D01*
X146293593Y-114476850D01*
X146308844Y-114476647D01*
X146323312Y-114476038D01*
X146337022Y-114475023D01*
X146350003Y-114473601D01*
X146362283Y-114471774D01*
X146373889Y-114469540D01*
X146384849Y-114466901D01*
X146395191Y-114463855D01*
X146404942Y-114460403D01*
X146414130Y-114456545D01*
X146422783Y-114452281D01*
X146430928Y-114447611D01*
X146438593Y-114442535D01*
X146445806Y-114437052D01*
X146452594Y-114431164D01*
X146458985Y-114424869D01*
X146464814Y-114417721D01*
X146470467Y-114409847D01*
X146475917Y-114401220D01*
X146481136Y-114391815D01*
X146486097Y-114381608D01*
X146490772Y-114370572D01*
X146495133Y-114358682D01*
X146499152Y-114345914D01*
X146502803Y-114332241D01*
X146506056Y-114317638D01*
X146508885Y-114302079D01*
X146511261Y-114285540D01*
X146513158Y-114267995D01*
X146514547Y-114249419D01*
X146515401Y-114229786D01*
X146515692Y-114209071D01*
X146515692Y-113813703D01*
X146515692Y-113812128D01*
X146515774Y-113808755D01*
X146516019Y-113805432D01*
X146516422Y-113802163D01*
X146516981Y-113798951D01*
X146517690Y-113795800D01*
X146518547Y-113792715D01*
X146519547Y-113789697D01*
X146520688Y-113786753D01*
X146521964Y-113783884D01*
X146523373Y-113781095D01*
X146524911Y-113778390D01*
X146526573Y-113775773D01*
X146528357Y-113773246D01*
X146530258Y-113770814D01*
X146532272Y-113768481D01*
X146534397Y-113766251D01*
X146536627Y-113764126D01*
X146538960Y-113762112D01*
X146541392Y-113760211D01*
X146543918Y-113758427D01*
X146546536Y-113756765D01*
X146549241Y-113755227D01*
X146552030Y-113753818D01*
X146554898Y-113752542D01*
X146557843Y-113751402D01*
X146560860Y-113750401D01*
X146563946Y-113749544D01*
X146567097Y-113748835D01*
X146570309Y-113748276D01*
X146573578Y-113747873D01*
X146576901Y-113747628D01*
X146580274Y-113747546D01*
X146583365Y-113747633D01*
G37*
G36*
X146486774Y-112338727D02*
G01*
X146490097Y-112338971D01*
X146493366Y-112339374D01*
X146496578Y-112339930D01*
X146499728Y-112340637D01*
X146502814Y-112341489D01*
X146505831Y-112342484D01*
X146508776Y-112343616D01*
X146511645Y-112344882D01*
X146514433Y-112346278D01*
X146517138Y-112347799D01*
X146519756Y-112349443D01*
X146522282Y-112351204D01*
X146524714Y-112353078D01*
X146527047Y-112355063D01*
X146529278Y-112357153D01*
X146531402Y-112359344D01*
X146533417Y-112361633D01*
X146535318Y-112364015D01*
X146537101Y-112366487D01*
X146538764Y-112369044D01*
X146540301Y-112371682D01*
X146541710Y-112374398D01*
X146542987Y-112377187D01*
X146544127Y-112380045D01*
X146545127Y-112382968D01*
X146545984Y-112385953D01*
X146546694Y-112388994D01*
X146547252Y-112392089D01*
X146547655Y-112395233D01*
X146547900Y-112398421D01*
X146547983Y-112401651D01*
X146547900Y-112405024D01*
X146547655Y-112408347D01*
X146547252Y-112411616D01*
X146546694Y-112414828D01*
X146545984Y-112417978D01*
X146545127Y-112421064D01*
X146544127Y-112424081D01*
X146542987Y-112427026D01*
X146541710Y-112429894D01*
X146540301Y-112432683D01*
X146538764Y-112435388D01*
X146537101Y-112438006D01*
X146535318Y-112440532D01*
X146533417Y-112442964D01*
X146531402Y-112445297D01*
X146529278Y-112447528D01*
X146527047Y-112449652D01*
X146524714Y-112451667D01*
X146522282Y-112453568D01*
X146519756Y-112455351D01*
X146517138Y-112457014D01*
X146514433Y-112458551D01*
X146511645Y-112459960D01*
X146508776Y-112461237D01*
X146505831Y-112462377D01*
X146502814Y-112463377D01*
X146499728Y-112464234D01*
X146496578Y-112464944D01*
X146493366Y-112465502D01*
X146490097Y-112465906D01*
X146486774Y-112466150D01*
X146483401Y-112466233D01*
X146481826Y-112466233D01*
X146338486Y-112466233D01*
X146338486Y-113069522D01*
X146525931Y-113069522D01*
X146527506Y-113069522D01*
X146530879Y-113069604D01*
X146534201Y-113069849D01*
X146537471Y-113070253D01*
X146540682Y-113070811D01*
X146543833Y-113071520D01*
X146546919Y-113072377D01*
X146549936Y-113073378D01*
X146552881Y-113074518D01*
X146555749Y-113075795D01*
X146558538Y-113077204D01*
X146561243Y-113078741D01*
X146563861Y-113080403D01*
X146566387Y-113082187D01*
X146568819Y-113084088D01*
X146571152Y-113086103D01*
X146573383Y-113088227D01*
X146575507Y-113090458D01*
X146577522Y-113092791D01*
X146579423Y-113095222D01*
X146581206Y-113097749D01*
X146582869Y-113100366D01*
X146584406Y-113103071D01*
X146585815Y-113105860D01*
X146587092Y-113108729D01*
X146588232Y-113111674D01*
X146589232Y-113114691D01*
X146590089Y-113117776D01*
X146590799Y-113120927D01*
X146591357Y-113124139D01*
X146591761Y-113127408D01*
X146592005Y-113130731D01*
X146592088Y-113134104D01*
X146592005Y-113137476D01*
X146591761Y-113140799D01*
X146591357Y-113144069D01*
X146590799Y-113147280D01*
X146590089Y-113150431D01*
X146589232Y-113153517D01*
X146588232Y-113156534D01*
X146587092Y-113159479D01*
X146585815Y-113162347D01*
X146584406Y-113165136D01*
X146582869Y-113167841D01*
X146581206Y-113170459D01*
X146579423Y-113172985D01*
X146577522Y-113175417D01*
X146575507Y-113177750D01*
X146573383Y-113179980D01*
X146571152Y-113182105D01*
X146568819Y-113184120D01*
X146566387Y-113186020D01*
X146563861Y-113187804D01*
X146561243Y-113189466D01*
X146558538Y-113191004D01*
X146555749Y-113192413D01*
X146552881Y-113193689D01*
X146549936Y-113194830D01*
X146546919Y-113195830D01*
X146543833Y-113196687D01*
X146540682Y-113197397D01*
X146537471Y-113197955D01*
X146534201Y-113198358D01*
X146530879Y-113198603D01*
X146527506Y-113198686D01*
X146525931Y-113198686D01*
X146050230Y-113198686D01*
X146048655Y-113198686D01*
X146045282Y-113198603D01*
X146041960Y-113198358D01*
X146038690Y-113197955D01*
X146035479Y-113197397D01*
X146032328Y-113196687D01*
X146029242Y-113195830D01*
X146026225Y-113194830D01*
X146023280Y-113193689D01*
X146020412Y-113192413D01*
X146017623Y-113191004D01*
X146014918Y-113189466D01*
X146012300Y-113187804D01*
X146009774Y-113186020D01*
X146007342Y-113184120D01*
X146005009Y-113182105D01*
X146002778Y-113179980D01*
X146000654Y-113177750D01*
X145998639Y-113175417D01*
X145996738Y-113172985D01*
X145994955Y-113170459D01*
X145993292Y-113167841D01*
X145991755Y-113165136D01*
X145990346Y-113162347D01*
X145989070Y-113159479D01*
X145987929Y-113156534D01*
X145986929Y-113153517D01*
X145986072Y-113150431D01*
X145985362Y-113147280D01*
X145984804Y-113144069D01*
X145984401Y-113140799D01*
X145984156Y-113137476D01*
X145984073Y-113134104D01*
X145984156Y-113130731D01*
X145984401Y-113127408D01*
X145984804Y-113124139D01*
X145985362Y-113120927D01*
X145986072Y-113117776D01*
X145986929Y-113114691D01*
X145987929Y-113111674D01*
X145989070Y-113108729D01*
X145990346Y-113105860D01*
X145991755Y-113103071D01*
X145993292Y-113100366D01*
X145994955Y-113097749D01*
X145996738Y-113095222D01*
X145998639Y-113092791D01*
X146000654Y-113090458D01*
X146002778Y-113088227D01*
X146005009Y-113086103D01*
X146007342Y-113084088D01*
X146009774Y-113082187D01*
X146012300Y-113080403D01*
X146014918Y-113078741D01*
X146017623Y-113077204D01*
X146020412Y-113075795D01*
X146023280Y-113074518D01*
X146026225Y-113073378D01*
X146029242Y-113072377D01*
X146032328Y-113071520D01*
X146035479Y-113070811D01*
X146038690Y-113070253D01*
X146041960Y-113069849D01*
X146045282Y-113069604D01*
X146048655Y-113069522D01*
X146050230Y-113069522D01*
X146209322Y-113069522D01*
X146209322Y-112401651D01*
X146209404Y-112398421D01*
X146209649Y-112395233D01*
X146210053Y-112392089D01*
X146210611Y-112388994D01*
X146211320Y-112385953D01*
X146212177Y-112382968D01*
X146213178Y-112380045D01*
X146214318Y-112377187D01*
X146215595Y-112374398D01*
X146217004Y-112371682D01*
X146218541Y-112369044D01*
X146220204Y-112366487D01*
X146221987Y-112364015D01*
X146223888Y-112361633D01*
X146225903Y-112359344D01*
X146228027Y-112357153D01*
X146230258Y-112355063D01*
X146232591Y-112353078D01*
X146235022Y-112351204D01*
X146237549Y-112349443D01*
X146240167Y-112347799D01*
X146242872Y-112346278D01*
X146245660Y-112344882D01*
X146248529Y-112343616D01*
X146251474Y-112342484D01*
X146254491Y-112341489D01*
X146257577Y-112340637D01*
X146260727Y-112339930D01*
X146263939Y-112339374D01*
X146267208Y-112338971D01*
X146270531Y-112338727D01*
X146273904Y-112338644D01*
X146481826Y-112338644D01*
X146483401Y-112338644D01*
X146486774Y-112338727D01*
G37*
G36*
X148790022Y-112706451D02*
G01*
X148791017Y-112734011D01*
X148792592Y-112748188D01*
X148791017Y-112760789D01*
X148790022Y-112788332D01*
X148788221Y-112814849D01*
X148785621Y-112840352D01*
X148782231Y-112864849D01*
X148778056Y-112888349D01*
X148773103Y-112910861D01*
X148767379Y-112932395D01*
X148760892Y-112952960D01*
X148753648Y-112972565D01*
X148745654Y-112991219D01*
X148736917Y-113008932D01*
X148727444Y-113025713D01*
X148717242Y-113041570D01*
X148706318Y-113056515D01*
X148694679Y-113070554D01*
X148682331Y-113083699D01*
X148669030Y-113096406D01*
X148655153Y-113107975D01*
X148640750Y-113118451D01*
X148625871Y-113127877D01*
X148610568Y-113136297D01*
X148594891Y-113143755D01*
X148578890Y-113150294D01*
X148562618Y-113155959D01*
X148546124Y-113160794D01*
X148529460Y-113164841D01*
X148512675Y-113168146D01*
X148495821Y-113170751D01*
X148478949Y-113172701D01*
X148462109Y-113174040D01*
X148445352Y-113174811D01*
X148428729Y-113175058D01*
X148412141Y-113174776D01*
X148395484Y-113173908D01*
X148378800Y-113172421D01*
X148362129Y-113170284D01*
X148345513Y-113167463D01*
X148328995Y-113163928D01*
X148312615Y-113159644D01*
X148296415Y-113154581D01*
X148280436Y-113148706D01*
X148264721Y-113141986D01*
X148249310Y-113134389D01*
X148234245Y-113125884D01*
X148219568Y-113116436D01*
X148205320Y-113106015D01*
X148191542Y-113094589D01*
X148178277Y-113082123D01*
X148176230Y-113079966D01*
X148174232Y-113077641D01*
X148172293Y-113075163D01*
X148170426Y-113072549D01*
X148168642Y-113069815D01*
X148166953Y-113066978D01*
X148165370Y-113064052D01*
X148163904Y-113061056D01*
X148162568Y-113058003D01*
X148161372Y-113054912D01*
X148160329Y-113051797D01*
X148159449Y-113048676D01*
X148158745Y-113045563D01*
X148158228Y-113042477D01*
X148157909Y-113039431D01*
X148157800Y-113036444D01*
X148157883Y-113033071D01*
X148158127Y-113029748D01*
X148158530Y-113026479D01*
X148159086Y-113023267D01*
X148159793Y-113020116D01*
X148160645Y-113017030D01*
X148161640Y-113014013D01*
X148162772Y-113011069D01*
X148164038Y-113008200D01*
X148165434Y-113005411D01*
X148166955Y-113002706D01*
X148168599Y-113000089D01*
X148170360Y-112997562D01*
X148172234Y-112995130D01*
X148174219Y-112992797D01*
X148176308Y-112990567D01*
X148178500Y-112988442D01*
X148180789Y-112986428D01*
X148183171Y-112984527D01*
X148185642Y-112982743D01*
X148188200Y-112981081D01*
X148190838Y-112979543D01*
X148193554Y-112978134D01*
X148196342Y-112976858D01*
X148199201Y-112975718D01*
X148202124Y-112974717D01*
X148205108Y-112973860D01*
X148208150Y-112973151D01*
X148211245Y-112972592D01*
X148214388Y-112972189D01*
X148217577Y-112971944D01*
X148220807Y-112971862D01*
X148223812Y-112971953D01*
X148226907Y-112972222D01*
X148230072Y-112972661D01*
X148233285Y-112973265D01*
X148236526Y-112974025D01*
X148239773Y-112974935D01*
X148243007Y-112975988D01*
X148246206Y-112977178D01*
X148249350Y-112978496D01*
X148252418Y-112979937D01*
X148255389Y-112981494D01*
X148258242Y-112983159D01*
X148260956Y-112984925D01*
X148263512Y-112986786D01*
X148265887Y-112988734D01*
X148268062Y-112990764D01*
X148275871Y-112998132D01*
X148283946Y-113004891D01*
X148292293Y-113011059D01*
X148300919Y-113016655D01*
X148309831Y-113021698D01*
X148319036Y-113026205D01*
X148328542Y-113030195D01*
X148338354Y-113033687D01*
X148348480Y-113036699D01*
X148358926Y-113039249D01*
X148369701Y-113041357D01*
X148380809Y-113043039D01*
X148392260Y-113044316D01*
X148404058Y-113045205D01*
X148416213Y-113045725D01*
X148428729Y-113045894D01*
X148441540Y-113045743D01*
X148453987Y-113045276D01*
X148466074Y-113044472D01*
X148477805Y-113043310D01*
X148489186Y-113041770D01*
X148500221Y-113039831D01*
X148510914Y-113037471D01*
X148521270Y-113034671D01*
X148531294Y-113031410D01*
X148540990Y-113027666D01*
X148550364Y-113023419D01*
X148559418Y-113018649D01*
X148568160Y-113013334D01*
X148576592Y-113007454D01*
X148584719Y-113000987D01*
X148592546Y-112993914D01*
X148598395Y-112987449D01*
X148604114Y-112980442D01*
X148609685Y-112972867D01*
X148615091Y-112964699D01*
X148620312Y-112955913D01*
X148625329Y-112946484D01*
X148630126Y-112936385D01*
X148634682Y-112925591D01*
X148638980Y-112914078D01*
X148643001Y-112901819D01*
X148646726Y-112888790D01*
X148650138Y-112874964D01*
X148653218Y-112860317D01*
X148655947Y-112844824D01*
X148658306Y-112828458D01*
X148660278Y-112811195D01*
X148132597Y-112811195D01*
X148129225Y-112811112D01*
X148125902Y-112810868D01*
X148122633Y-112810465D01*
X148119421Y-112809909D01*
X148116270Y-112809202D01*
X148113184Y-112808350D01*
X148110167Y-112807355D01*
X148107223Y-112806223D01*
X148104354Y-112804957D01*
X148101565Y-112803561D01*
X148098860Y-112802039D01*
X148096242Y-112800396D01*
X148093716Y-112798635D01*
X148091284Y-112796760D01*
X148088951Y-112794776D01*
X148086721Y-112792686D01*
X148084596Y-112790495D01*
X148082582Y-112788206D01*
X148080681Y-112785824D01*
X148078897Y-112783352D01*
X148077235Y-112780795D01*
X148075697Y-112778157D01*
X148074288Y-112775441D01*
X148073012Y-112772652D01*
X148071872Y-112769794D01*
X148070871Y-112766871D01*
X148070014Y-112763886D01*
X148069305Y-112760844D01*
X148068746Y-112757750D01*
X148068343Y-112754606D01*
X148068098Y-112751417D01*
X148068016Y-112748188D01*
X148068458Y-112719500D01*
X148069779Y-112691903D01*
X148070465Y-112683606D01*
X148200330Y-112683606D01*
X148660278Y-112683606D01*
X148658566Y-112666325D01*
X148656399Y-112649909D01*
X148653803Y-112634338D01*
X148650803Y-112619590D01*
X148647425Y-112605645D01*
X148643693Y-112592483D01*
X148639634Y-112580082D01*
X148635273Y-112568422D01*
X148630635Y-112557481D01*
X148625745Y-112547240D01*
X148620629Y-112537677D01*
X148615313Y-112528772D01*
X148609821Y-112520503D01*
X148604179Y-112512851D01*
X148598412Y-112505794D01*
X148592546Y-112499311D01*
X148584719Y-112492220D01*
X148576592Y-112485704D01*
X148568160Y-112479746D01*
X148559419Y-112474330D01*
X148550364Y-112469440D01*
X148540990Y-112465061D01*
X148531294Y-112461175D01*
X148521270Y-112457766D01*
X148510914Y-112454819D01*
X148500221Y-112452318D01*
X148489186Y-112450245D01*
X148477805Y-112448586D01*
X148466074Y-112447323D01*
X148453987Y-112446442D01*
X148441540Y-112445924D01*
X148428729Y-112445756D01*
X148416213Y-112445925D01*
X148404058Y-112446442D01*
X148392260Y-112447324D01*
X148380809Y-112448586D01*
X148369700Y-112450245D01*
X148358926Y-112452318D01*
X148348480Y-112454819D01*
X148338354Y-112457766D01*
X148328542Y-112461175D01*
X148319036Y-112465061D01*
X148309831Y-112469440D01*
X148300919Y-112474330D01*
X148292293Y-112479746D01*
X148283946Y-112485704D01*
X148275871Y-112492220D01*
X148268062Y-112499311D01*
X148262196Y-112505794D01*
X148256430Y-112512851D01*
X148250788Y-112520503D01*
X148245296Y-112528772D01*
X148239979Y-112537677D01*
X148234863Y-112547240D01*
X148229974Y-112557481D01*
X148225335Y-112568422D01*
X148220974Y-112580082D01*
X148216915Y-112592483D01*
X148213184Y-112605645D01*
X148209805Y-112619590D01*
X148206805Y-112634338D01*
X148204209Y-112649909D01*
X148202042Y-112666325D01*
X148200330Y-112683606D01*
X148070465Y-112683606D01*
X148071972Y-112665382D01*
X148075030Y-112639920D01*
X148078947Y-112615500D01*
X148083715Y-112592108D01*
X148089328Y-112569726D01*
X148095778Y-112548338D01*
X148103059Y-112527929D01*
X148111164Y-112508482D01*
X148120085Y-112489981D01*
X148129816Y-112472410D01*
X148140351Y-112455753D01*
X148151681Y-112439993D01*
X148163801Y-112425115D01*
X148176702Y-112411102D01*
X148189985Y-112398619D01*
X148203812Y-112387142D01*
X148218138Y-112376644D01*
X148232916Y-112367096D01*
X148248100Y-112358471D01*
X148263644Y-112350741D01*
X148279502Y-112343879D01*
X148295627Y-112337857D01*
X148311974Y-112332647D01*
X148328497Y-112328221D01*
X148345148Y-112324552D01*
X148361883Y-112321613D01*
X148378654Y-112319375D01*
X148395417Y-112317810D01*
X148412124Y-112316892D01*
X148428729Y-112316592D01*
X148445611Y-112316857D01*
X148462561Y-112317678D01*
X148479534Y-112319095D01*
X148496486Y-112321145D01*
X148513373Y-112323870D01*
X148530152Y-112327308D01*
X148546778Y-112331497D01*
X148563209Y-112336479D01*
X148579399Y-112342291D01*
X148595306Y-112348972D01*
X148610885Y-112356563D01*
X148626092Y-112365102D01*
X148640885Y-112374629D01*
X148655218Y-112385183D01*
X148669048Y-112396802D01*
X148682331Y-112409527D01*
X148694679Y-112422689D01*
X148706318Y-112436779D01*
X148717242Y-112451800D01*
X148727444Y-112467759D01*
X148736917Y-112484659D01*
X148745654Y-112502505D01*
X148753648Y-112521302D01*
X148760892Y-112541054D01*
X148767379Y-112561765D01*
X148773103Y-112583442D01*
X148778055Y-112606087D01*
X148782231Y-112629706D01*
X148785621Y-112654303D01*
X148788221Y-112679884D01*
X148788473Y-112683606D01*
X148790022Y-112706451D01*
G37*
G36*
X147435526Y-113451500D02*
G01*
X147438580Y-113451758D01*
X147441599Y-113452182D01*
X147444576Y-113452767D01*
X147447509Y-113453509D01*
X147450392Y-113454404D01*
X147453221Y-113455446D01*
X147455993Y-113456631D01*
X147458702Y-113457955D01*
X147461345Y-113459412D01*
X147463917Y-113460999D01*
X147466413Y-113462710D01*
X147468830Y-113464542D01*
X147471163Y-113466488D01*
X147473408Y-113468546D01*
X147475560Y-113470709D01*
X147477615Y-113472974D01*
X147479569Y-113475336D01*
X147481417Y-113477791D01*
X147483155Y-113480333D01*
X147484780Y-113482958D01*
X147486285Y-113485661D01*
X147487668Y-113488438D01*
X147488924Y-113491285D01*
X147490048Y-113494196D01*
X147491036Y-113497167D01*
X147491884Y-113500194D01*
X147492588Y-113503271D01*
X147493143Y-113506395D01*
X147493544Y-113509559D01*
X147493789Y-113512761D01*
X147493871Y-113515996D01*
X147493871Y-113517570D01*
X147493871Y-113772748D01*
X147684467Y-113772748D01*
X147687840Y-113772831D01*
X147691162Y-113773076D01*
X147694432Y-113773479D01*
X147697643Y-113774037D01*
X147700794Y-113774747D01*
X147703880Y-113775604D01*
X147706897Y-113776604D01*
X147709842Y-113777745D01*
X147712710Y-113779021D01*
X147715499Y-113780430D01*
X147718204Y-113781967D01*
X147720822Y-113783630D01*
X147723348Y-113785413D01*
X147725780Y-113787314D01*
X147728113Y-113789329D01*
X147730344Y-113791453D01*
X147732468Y-113793684D01*
X147734483Y-113796017D01*
X147736384Y-113798449D01*
X147738167Y-113800975D01*
X147739830Y-113803593D01*
X147741367Y-113806298D01*
X147742776Y-113809087D01*
X147744052Y-113811955D01*
X147745193Y-113814900D01*
X147746193Y-113817917D01*
X147747050Y-113821003D01*
X147747760Y-113824154D01*
X147748318Y-113827366D01*
X147748721Y-113830635D01*
X147748966Y-113833958D01*
X147749049Y-113837330D01*
X147748966Y-113840703D01*
X147748721Y-113844026D01*
X147748318Y-113847295D01*
X147747760Y-113850507D01*
X147747050Y-113853658D01*
X147746193Y-113856744D01*
X147745193Y-113859761D01*
X147744052Y-113862705D01*
X147742776Y-113865574D01*
X147741367Y-113868363D01*
X147739830Y-113871068D01*
X147738167Y-113873685D01*
X147736384Y-113876212D01*
X147734483Y-113878644D01*
X147732468Y-113880977D01*
X147730344Y-113883207D01*
X147728113Y-113885332D01*
X147725780Y-113887346D01*
X147723348Y-113889247D01*
X147720822Y-113891031D01*
X147718204Y-113892693D01*
X147715499Y-113894231D01*
X147712710Y-113895640D01*
X147709842Y-113896916D01*
X147706897Y-113898057D01*
X147703880Y-113899057D01*
X147700794Y-113899914D01*
X147697643Y-113900623D01*
X147694432Y-113901182D01*
X147691162Y-113901585D01*
X147687840Y-113901830D01*
X147684467Y-113901912D01*
X147493871Y-113901912D01*
X147493871Y-114352411D01*
X147493734Y-114365421D01*
X147493293Y-114378445D01*
X147492500Y-114391459D01*
X147491311Y-114404441D01*
X147489679Y-114417368D01*
X147487558Y-114430216D01*
X147484901Y-114442963D01*
X147481663Y-114455585D01*
X147477798Y-114468060D01*
X147473258Y-114480363D01*
X147467999Y-114492473D01*
X147461974Y-114504366D01*
X147455136Y-114516019D01*
X147447440Y-114527409D01*
X147438840Y-114538513D01*
X147429289Y-114549308D01*
X147419174Y-114559590D01*
X147408329Y-114569176D01*
X147396758Y-114578069D01*
X147384470Y-114586275D01*
X147371472Y-114593798D01*
X147357769Y-114600643D01*
X147343370Y-114606813D01*
X147328281Y-114612315D01*
X147312509Y-114617152D01*
X147296061Y-114621329D01*
X147278943Y-114624851D01*
X147261164Y-114627722D01*
X147242729Y-114629947D01*
X147223646Y-114631531D01*
X147203921Y-114632477D01*
X147183562Y-114632792D01*
X147111104Y-114632792D01*
X147107732Y-114632710D01*
X147104409Y-114632465D01*
X147101139Y-114632061D01*
X147097928Y-114631503D01*
X147094777Y-114630793D01*
X147091691Y-114629937D01*
X147088674Y-114628936D01*
X147085729Y-114627796D01*
X147082861Y-114626519D01*
X147080072Y-114625110D01*
X147077367Y-114623573D01*
X147074749Y-114621910D01*
X147072223Y-114620127D01*
X147069791Y-114618226D01*
X147067458Y-114616211D01*
X147065227Y-114614087D01*
X147063103Y-114611856D01*
X147061088Y-114609523D01*
X147059187Y-114607092D01*
X147057404Y-114604565D01*
X147055741Y-114601947D01*
X147054204Y-114599242D01*
X147052795Y-114596454D01*
X147051518Y-114593585D01*
X147050378Y-114590640D01*
X147049378Y-114587623D01*
X147048521Y-114584537D01*
X147047811Y-114581387D01*
X147047253Y-114578175D01*
X147046849Y-114574906D01*
X147046605Y-114571583D01*
X147046522Y-114568210D01*
X147046605Y-114564837D01*
X147046849Y-114561514D01*
X147047253Y-114558245D01*
X147047811Y-114555033D01*
X147048521Y-114551883D01*
X147049378Y-114548797D01*
X147050378Y-114545780D01*
X147051518Y-114542835D01*
X147052795Y-114539966D01*
X147054204Y-114537178D01*
X147055741Y-114534473D01*
X147057404Y-114531855D01*
X147059187Y-114529328D01*
X147061088Y-114526897D01*
X147063103Y-114524564D01*
X147065227Y-114522333D01*
X147067458Y-114520209D01*
X147069791Y-114518194D01*
X147072223Y-114516293D01*
X147074749Y-114514510D01*
X147077367Y-114512847D01*
X147080072Y-114511310D01*
X147082861Y-114509901D01*
X147085729Y-114508624D01*
X147088674Y-114507484D01*
X147091691Y-114506483D01*
X147094777Y-114505626D01*
X147097928Y-114504917D01*
X147101139Y-114504359D01*
X147104409Y-114503955D01*
X147107732Y-114503710D01*
X147111104Y-114503628D01*
X147183562Y-114503628D01*
X147199831Y-114503410D01*
X147214998Y-114502773D01*
X147229103Y-114501738D01*
X147242188Y-114500330D01*
X147254295Y-114498571D01*
X147265465Y-114496484D01*
X147275740Y-114494093D01*
X147285161Y-114491420D01*
X147293769Y-114488489D01*
X147301608Y-114485323D01*
X147308717Y-114481944D01*
X147315138Y-114478376D01*
X147320914Y-114474642D01*
X147326084Y-114470765D01*
X147330692Y-114466768D01*
X147334779Y-114462673D01*
X147338767Y-114458372D01*
X147342464Y-114453736D01*
X147345875Y-114448763D01*
X147349004Y-114443451D01*
X147351857Y-114437798D01*
X147354438Y-114431801D01*
X147356750Y-114425457D01*
X147358800Y-114418766D01*
X147360591Y-114411723D01*
X147362129Y-114404328D01*
X147363417Y-114396577D01*
X147364461Y-114388468D01*
X147365265Y-114380000D01*
X147365833Y-114371169D01*
X147366171Y-114361974D01*
X147366282Y-114352411D01*
X147366282Y-113901912D01*
X147046522Y-113901912D01*
X147044947Y-113901912D01*
X147041574Y-113901830D01*
X147038252Y-113901585D01*
X147034982Y-113901182D01*
X147031770Y-113900623D01*
X147028620Y-113899914D01*
X147025534Y-113899057D01*
X147022517Y-113898057D01*
X147019572Y-113896916D01*
X147016703Y-113895640D01*
X147013915Y-113894231D01*
X147011210Y-113892693D01*
X147008592Y-113891031D01*
X147006065Y-113889247D01*
X147003634Y-113887346D01*
X147001301Y-113885332D01*
X146999070Y-113883207D01*
X146996946Y-113880977D01*
X146994931Y-113878644D01*
X146993030Y-113876212D01*
X146991247Y-113873685D01*
X146989584Y-113871068D01*
X146988047Y-113868363D01*
X146986638Y-113865574D01*
X146985361Y-113862705D01*
X146984221Y-113859761D01*
X146983220Y-113856744D01*
X146982364Y-113853658D01*
X146981654Y-113850507D01*
X146981096Y-113847295D01*
X146980692Y-113844026D01*
X146980447Y-113840703D01*
X146980365Y-113837330D01*
X146980447Y-113833958D01*
X146980692Y-113830635D01*
X146981096Y-113827366D01*
X146981654Y-113824154D01*
X146982364Y-113821003D01*
X146983220Y-113817917D01*
X146984221Y-113814900D01*
X146985361Y-113811955D01*
X146986638Y-113809087D01*
X146988047Y-113806298D01*
X146989584Y-113803593D01*
X146991247Y-113800975D01*
X146993030Y-113798449D01*
X146994931Y-113796017D01*
X146996946Y-113793684D01*
X146999070Y-113791453D01*
X147001301Y-113789329D01*
X147003634Y-113787314D01*
X147006065Y-113785413D01*
X147008592Y-113783630D01*
X147011210Y-113781967D01*
X147013915Y-113780430D01*
X147016703Y-113779021D01*
X147019572Y-113777745D01*
X147022517Y-113776604D01*
X147025534Y-113775604D01*
X147028620Y-113774747D01*
X147031770Y-113774037D01*
X147034982Y-113773479D01*
X147038252Y-113773076D01*
X147041574Y-113772831D01*
X147044947Y-113772748D01*
X147046522Y-113772748D01*
X147366282Y-113772748D01*
X147366282Y-113517571D01*
X147366282Y-113515996D01*
X147366364Y-113512623D01*
X147366609Y-113509300D01*
X147367012Y-113506031D01*
X147367568Y-113502819D01*
X147368275Y-113499668D01*
X147369127Y-113496582D01*
X147370121Y-113493565D01*
X147371254Y-113490621D01*
X147372520Y-113487752D01*
X147373916Y-113484963D01*
X147375437Y-113482258D01*
X147377081Y-113479640D01*
X147378842Y-113477114D01*
X147380716Y-113474682D01*
X147382700Y-113472349D01*
X147384790Y-113470119D01*
X147386982Y-113467994D01*
X147389270Y-113465980D01*
X147391653Y-113464079D01*
X147394124Y-113462295D01*
X147396681Y-113460633D01*
X147399320Y-113459095D01*
X147402035Y-113457686D01*
X147404824Y-113456410D01*
X147407683Y-113455269D01*
X147410606Y-113454269D01*
X147413590Y-113453412D01*
X147416632Y-113452702D01*
X147419727Y-113452144D01*
X147422870Y-113451741D01*
X147426059Y-113451496D01*
X147429289Y-113451413D01*
X147432439Y-113451413D01*
X147435526Y-113451500D01*
G37*
G36*
X143388564Y-113398461D02*
G01*
X143388941Y-113398486D01*
X143389718Y-113398585D01*
X143390518Y-113398745D01*
X143391332Y-113398964D01*
X143392155Y-113399237D01*
X143392977Y-113399563D01*
X143393791Y-113399936D01*
X143394591Y-113400355D01*
X143395368Y-113400816D01*
X143396114Y-113401315D01*
X143396822Y-113401849D01*
X143397485Y-113402414D01*
X143398095Y-113403009D01*
X143398377Y-113403316D01*
X143398644Y-113403628D01*
X143398893Y-113403946D01*
X143399124Y-113404270D01*
X143399337Y-113404597D01*
X143399529Y-113404929D01*
X143453932Y-113498192D01*
X143508336Y-113404929D01*
X143508733Y-113404270D01*
X143509194Y-113403628D01*
X143509712Y-113403009D01*
X143510284Y-113402414D01*
X143510902Y-113401849D01*
X143511563Y-113401315D01*
X143512261Y-113400816D01*
X143512991Y-113400355D01*
X143513747Y-113399936D01*
X143514524Y-113399563D01*
X143515318Y-113399237D01*
X143516123Y-113398964D01*
X143516933Y-113398745D01*
X143517744Y-113398585D01*
X143518549Y-113398486D01*
X143519346Y-113398453D01*
X143520039Y-113398470D01*
X143520722Y-113398520D01*
X143521394Y-113398603D01*
X143522054Y-113398718D01*
X143522702Y-113398864D01*
X143523336Y-113399040D01*
X143523956Y-113399245D01*
X143524562Y-113399480D01*
X143525152Y-113399742D01*
X143525725Y-113400032D01*
X143526281Y-113400348D01*
X143526819Y-113400690D01*
X143527339Y-113401056D01*
X143527838Y-113401447D01*
X143528318Y-113401861D01*
X143528777Y-113402298D01*
X143529213Y-113402757D01*
X143529628Y-113403236D01*
X143530018Y-113403736D01*
X143530385Y-113404256D01*
X143530727Y-113404794D01*
X143531043Y-113405350D01*
X143531333Y-113405923D01*
X143531595Y-113406513D01*
X143531829Y-113407118D01*
X143532035Y-113407739D01*
X143532211Y-113408373D01*
X143532357Y-113409021D01*
X143532472Y-113409681D01*
X143532555Y-113410353D01*
X143532605Y-113411036D01*
X143532622Y-113411730D01*
X143532622Y-113628696D01*
X143532605Y-113629389D01*
X143532555Y-113630072D01*
X143532472Y-113630745D01*
X143532357Y-113631405D01*
X143532211Y-113632053D01*
X143532035Y-113632687D01*
X143531829Y-113633307D01*
X143531595Y-113633913D01*
X143531333Y-113634502D01*
X143531043Y-113635076D01*
X143530727Y-113635632D01*
X143530385Y-113636170D01*
X143530018Y-113636689D01*
X143529628Y-113637189D01*
X143529213Y-113637669D01*
X143528777Y-113638127D01*
X143528318Y-113638564D01*
X143527838Y-113638978D01*
X143527339Y-113639369D01*
X143526819Y-113639736D01*
X143526281Y-113640078D01*
X143525725Y-113640394D01*
X143525152Y-113640683D01*
X143524562Y-113640946D01*
X143523956Y-113641180D01*
X143523336Y-113641386D01*
X143522702Y-113641562D01*
X143522054Y-113641708D01*
X143521394Y-113641823D01*
X143520722Y-113641906D01*
X143520039Y-113641956D01*
X143519346Y-113641973D01*
X143518682Y-113641956D01*
X143518026Y-113641906D01*
X143517380Y-113641823D01*
X143516744Y-113641708D01*
X143516119Y-113641562D01*
X143515505Y-113641386D01*
X143514904Y-113641180D01*
X143514316Y-113640946D01*
X143513743Y-113640683D01*
X143513185Y-113640394D01*
X143512642Y-113640078D01*
X143512117Y-113639736D01*
X143511609Y-113639369D01*
X143511119Y-113638978D01*
X143510648Y-113638564D01*
X143510198Y-113638127D01*
X143509768Y-113637669D01*
X143509360Y-113637189D01*
X143508975Y-113636689D01*
X143508613Y-113636170D01*
X143508275Y-113635632D01*
X143507962Y-113635076D01*
X143507675Y-113634502D01*
X143507415Y-113633913D01*
X143507182Y-113633307D01*
X143506978Y-113632687D01*
X143506802Y-113632053D01*
X143506657Y-113631405D01*
X143506543Y-113630745D01*
X143506460Y-113630072D01*
X143506410Y-113629389D01*
X143506393Y-113628696D01*
X143506393Y-113460628D01*
X143464942Y-113531223D01*
X143464545Y-113531886D01*
X143464084Y-113532538D01*
X143463565Y-113533173D01*
X143462994Y-113533788D01*
X143462376Y-113534379D01*
X143461715Y-113534940D01*
X143461017Y-113535468D01*
X143460287Y-113535959D01*
X143459531Y-113536408D01*
X143458754Y-113536811D01*
X143457960Y-113537164D01*
X143457155Y-113537462D01*
X143456345Y-113537701D01*
X143455534Y-113537877D01*
X143454728Y-113537986D01*
X143454329Y-113538014D01*
X143453932Y-113538024D01*
X143453506Y-113538014D01*
X143453076Y-113537986D01*
X143452643Y-113537941D01*
X143452209Y-113537877D01*
X143451775Y-113537797D01*
X143451339Y-113537701D01*
X143450905Y-113537589D01*
X143450471Y-113537462D01*
X143449611Y-113537164D01*
X143448763Y-113536811D01*
X143447935Y-113536408D01*
X143447132Y-113535959D01*
X143446358Y-113535468D01*
X143445621Y-113534940D01*
X143444926Y-113534379D01*
X143444278Y-113533788D01*
X143443683Y-113533173D01*
X143443407Y-113532858D01*
X143443147Y-113532538D01*
X143442903Y-113532214D01*
X143442676Y-113531886D01*
X143442466Y-113531556D01*
X143442275Y-113531223D01*
X143400825Y-113460628D01*
X143400825Y-113628696D01*
X143400808Y-113629389D01*
X143400758Y-113630072D01*
X143400675Y-113630745D01*
X143400560Y-113631405D01*
X143400415Y-113632053D01*
X143400240Y-113632687D01*
X143400035Y-113633307D01*
X143399803Y-113633913D01*
X143399542Y-113634502D01*
X143399255Y-113635076D01*
X143398943Y-113635632D01*
X143398605Y-113636170D01*
X143398243Y-113636689D01*
X143397857Y-113637189D01*
X143397449Y-113637669D01*
X143397020Y-113638127D01*
X143396569Y-113638564D01*
X143396099Y-113638978D01*
X143395609Y-113639369D01*
X143395101Y-113639736D01*
X143394575Y-113640078D01*
X143394032Y-113640394D01*
X143393474Y-113640683D01*
X143392901Y-113640946D01*
X143392313Y-113641180D01*
X143391712Y-113641386D01*
X143391099Y-113641562D01*
X143390473Y-113641708D01*
X143389837Y-113641823D01*
X143389191Y-113641906D01*
X143388535Y-113641956D01*
X143387871Y-113641973D01*
X143387178Y-113641956D01*
X143386495Y-113641906D01*
X143385823Y-113641823D01*
X143385162Y-113641708D01*
X143384515Y-113641562D01*
X143383880Y-113641386D01*
X143383260Y-113641180D01*
X143382654Y-113640946D01*
X143382065Y-113640683D01*
X143381491Y-113640394D01*
X143380935Y-113640078D01*
X143380397Y-113639736D01*
X143379878Y-113639369D01*
X143379378Y-113638978D01*
X143378898Y-113638564D01*
X143378439Y-113638127D01*
X143378003Y-113637669D01*
X143377588Y-113637189D01*
X143377198Y-113636689D01*
X143376831Y-113636170D01*
X143376489Y-113635632D01*
X143376173Y-113635076D01*
X143375883Y-113634502D01*
X143375621Y-113633913D01*
X143375386Y-113633307D01*
X143375181Y-113632687D01*
X143375005Y-113632053D01*
X143374859Y-113631405D01*
X143374744Y-113630745D01*
X143374661Y-113630072D01*
X143374611Y-113629389D01*
X143374594Y-113628696D01*
X143374594Y-113411730D01*
X143374611Y-113411036D01*
X143374661Y-113410353D01*
X143374744Y-113409681D01*
X143374859Y-113409021D01*
X143375005Y-113408373D01*
X143375181Y-113407739D01*
X143375386Y-113407118D01*
X143375621Y-113406513D01*
X143375883Y-113405923D01*
X143376173Y-113405350D01*
X143376489Y-113404794D01*
X143376831Y-113404256D01*
X143377198Y-113403736D01*
X143377588Y-113403236D01*
X143378003Y-113402757D01*
X143378439Y-113402298D01*
X143378898Y-113401861D01*
X143379378Y-113401447D01*
X143379878Y-113401056D01*
X143380397Y-113400690D01*
X143380935Y-113400348D01*
X143381491Y-113400032D01*
X143382065Y-113399742D01*
X143382654Y-113399480D01*
X143383260Y-113399245D01*
X143383880Y-113399040D01*
X143384515Y-113398864D01*
X143385162Y-113398718D01*
X143385823Y-113398603D01*
X143386495Y-113398520D01*
X143387178Y-113398470D01*
X143387871Y-113398453D01*
X143388172Y-113398453D01*
X143388195Y-113398453D01*
X143388564Y-113398461D01*
G37*
G36*
X144511081Y-114137406D02*
G01*
X144512077Y-114164966D01*
X144513653Y-114179143D01*
X144512077Y-114191744D01*
X144511081Y-114219287D01*
X144509280Y-114245805D01*
X144506681Y-114271307D01*
X144503290Y-114295804D01*
X144499115Y-114319304D01*
X144494162Y-114341816D01*
X144488439Y-114363350D01*
X144481952Y-114383915D01*
X144474707Y-114403520D01*
X144466714Y-114422174D01*
X144457977Y-114439887D01*
X144448504Y-114456668D01*
X144438302Y-114472526D01*
X144427377Y-114487470D01*
X144415738Y-114501510D01*
X144403390Y-114514654D01*
X144390089Y-114527361D01*
X144376212Y-114538931D01*
X144361809Y-114549407D01*
X144346930Y-114558833D01*
X144331627Y-114567253D01*
X144315950Y-114574711D01*
X144299949Y-114581250D01*
X144283677Y-114586915D01*
X144267183Y-114591750D01*
X144250518Y-114595797D01*
X144233734Y-114599102D01*
X144216880Y-114601707D01*
X144200007Y-114603657D01*
X144183167Y-114604996D01*
X144166410Y-114605767D01*
X144149787Y-114606014D01*
X144133200Y-114605732D01*
X144116543Y-114604863D01*
X144099858Y-114603377D01*
X144083187Y-114601239D01*
X144066572Y-114598419D01*
X144050053Y-114594883D01*
X144033673Y-114590600D01*
X144017473Y-114585537D01*
X144001494Y-114579662D01*
X143985779Y-114572942D01*
X143970368Y-114565345D01*
X143955303Y-114556839D01*
X143940625Y-114547392D01*
X143926377Y-114536971D01*
X143912600Y-114525544D01*
X143899335Y-114513079D01*
X143897288Y-114510922D01*
X143895289Y-114508596D01*
X143893351Y-114506119D01*
X143891484Y-114503505D01*
X143889700Y-114500771D01*
X143888010Y-114497933D01*
X143886427Y-114495008D01*
X143884962Y-114492011D01*
X143883625Y-114488959D01*
X143882430Y-114485867D01*
X143881386Y-114482753D01*
X143880507Y-114479631D01*
X143879802Y-114476519D01*
X143879285Y-114473432D01*
X143878966Y-114470387D01*
X143878858Y-114467399D01*
X143878940Y-114464026D01*
X143879184Y-114460703D01*
X143879587Y-114457434D01*
X143880144Y-114454222D01*
X143880850Y-114451072D01*
X143881703Y-114447986D01*
X143882697Y-114444969D01*
X143883829Y-114442024D01*
X143885095Y-114439155D01*
X143886491Y-114436367D01*
X143888013Y-114433662D01*
X143889656Y-114431044D01*
X143891417Y-114428517D01*
X143893292Y-114426086D01*
X143895276Y-114423753D01*
X143897366Y-114421522D01*
X143899557Y-114419398D01*
X143901846Y-114417383D01*
X143904228Y-114415482D01*
X143906700Y-114413698D01*
X143909257Y-114412036D01*
X143911896Y-114410499D01*
X143914611Y-114409090D01*
X143917400Y-114407813D01*
X143920258Y-114406673D01*
X143923182Y-114405672D01*
X143926166Y-114404815D01*
X143929208Y-114404106D01*
X143932303Y-114403548D01*
X143935446Y-114403144D01*
X143938635Y-114402899D01*
X143941865Y-114402817D01*
X143944870Y-114402908D01*
X143947965Y-114403177D01*
X143951130Y-114403616D01*
X143954343Y-114404220D01*
X143957584Y-114404980D01*
X143960831Y-114405890D01*
X143964065Y-114406944D01*
X143967264Y-114408133D01*
X143970408Y-114409452D01*
X143973476Y-114410893D01*
X143976447Y-114412449D01*
X143979300Y-114414114D01*
X143982014Y-114415880D01*
X143984570Y-114417741D01*
X143986945Y-114419690D01*
X143989120Y-114421719D01*
X143996929Y-114429087D01*
X144005004Y-114435846D01*
X144013351Y-114442015D01*
X144021977Y-114447611D01*
X144030889Y-114452653D01*
X144040095Y-114457160D01*
X144049600Y-114461151D01*
X144059412Y-114464642D01*
X144069538Y-114467654D01*
X144079985Y-114470205D01*
X144090759Y-114472312D01*
X144101868Y-114473995D01*
X144113318Y-114475272D01*
X144125117Y-114476161D01*
X144137271Y-114476681D01*
X144149787Y-114476850D01*
X144162599Y-114476699D01*
X144175045Y-114476232D01*
X144187132Y-114475427D01*
X144198864Y-114474266D01*
X144210245Y-114472726D01*
X144221279Y-114470786D01*
X144231972Y-114468427D01*
X144242329Y-114465627D01*
X144252353Y-114462365D01*
X144262049Y-114458622D01*
X144271422Y-114454375D01*
X144280477Y-114449604D01*
X144289218Y-114444289D01*
X144297650Y-114438409D01*
X144305778Y-114431943D01*
X144313605Y-114424869D01*
X144319454Y-114418404D01*
X144325173Y-114411397D01*
X144330744Y-114403823D01*
X144336150Y-114395655D01*
X144341371Y-114386869D01*
X144346388Y-114377439D01*
X144351185Y-114367340D01*
X144355741Y-114356546D01*
X144360039Y-114345033D01*
X144364060Y-114332774D01*
X144367786Y-114319745D01*
X144371197Y-114305919D01*
X144374277Y-114291272D01*
X144377006Y-114275779D01*
X144379366Y-114259413D01*
X144381338Y-114242149D01*
X143853655Y-114242149D01*
X143850282Y-114242067D01*
X143846959Y-114241822D01*
X143843690Y-114241420D01*
X143840478Y-114240863D01*
X143837328Y-114240157D01*
X143834242Y-114239304D01*
X143831225Y-114238310D01*
X143828280Y-114237178D01*
X143825411Y-114235912D01*
X143822623Y-114234516D01*
X143819918Y-114232994D01*
X143817300Y-114231351D01*
X143814773Y-114229590D01*
X143812342Y-114227715D01*
X143810009Y-114225731D01*
X143807778Y-114223641D01*
X143805654Y-114221450D01*
X143803639Y-114219161D01*
X143801738Y-114216779D01*
X143799955Y-114214307D01*
X143798292Y-114211750D01*
X143796755Y-114209112D01*
X143795346Y-114206396D01*
X143794069Y-114203607D01*
X143792929Y-114200749D01*
X143791928Y-114197825D01*
X143791072Y-114194841D01*
X143790362Y-114191799D01*
X143789804Y-114188705D01*
X143789400Y-114185561D01*
X143789155Y-114182372D01*
X143789073Y-114179143D01*
X143789515Y-114150455D01*
X143790836Y-114122858D01*
X143791522Y-114114561D01*
X143921388Y-114114561D01*
X144381338Y-114114561D01*
X144379625Y-114097280D01*
X144377458Y-114080864D01*
X144374862Y-114065292D01*
X144371862Y-114050545D01*
X144368483Y-114036600D01*
X144364752Y-114023438D01*
X144360693Y-114011037D01*
X144356332Y-113999376D01*
X144351693Y-113988436D01*
X144346804Y-113978194D01*
X144341688Y-113968632D01*
X144336371Y-113959726D01*
X144330879Y-113951458D01*
X144325237Y-113943805D01*
X144319471Y-113936748D01*
X144313605Y-113930265D01*
X144305778Y-113923175D01*
X144297650Y-113916658D01*
X144289218Y-113910700D01*
X144280477Y-113905284D01*
X144271422Y-113900395D01*
X144262049Y-113896015D01*
X144252353Y-113892129D01*
X144242329Y-113888720D01*
X144231972Y-113885774D01*
X144221279Y-113883272D01*
X144210245Y-113881200D01*
X144198864Y-113879540D01*
X144187132Y-113878278D01*
X144175045Y-113877396D01*
X144162599Y-113876879D01*
X144149787Y-113876710D01*
X144137271Y-113876879D01*
X144125117Y-113877396D01*
X144113318Y-113878278D01*
X144101868Y-113879540D01*
X144090759Y-113881200D01*
X144079985Y-113883272D01*
X144069538Y-113885774D01*
X144059412Y-113888720D01*
X144049600Y-113892129D01*
X144040095Y-113896015D01*
X144030889Y-113900395D01*
X144021977Y-113905284D01*
X144013351Y-113910700D01*
X144005004Y-113916658D01*
X143996930Y-113923175D01*
X143989120Y-113930265D01*
X143983254Y-113936748D01*
X143977488Y-113943805D01*
X143971846Y-113951458D01*
X143966354Y-113959726D01*
X143961037Y-113968632D01*
X143955921Y-113978195D01*
X143951032Y-113988436D01*
X143946393Y-113999376D01*
X143942032Y-114011037D01*
X143937973Y-114023438D01*
X143934242Y-114036600D01*
X143930863Y-114050545D01*
X143927863Y-114065292D01*
X143925267Y-114080864D01*
X143923100Y-114097280D01*
X143921388Y-114114561D01*
X143791522Y-114114561D01*
X143793029Y-114096336D01*
X143796088Y-114070874D01*
X143800004Y-114046455D01*
X143804773Y-114023062D01*
X143810385Y-114000680D01*
X143816836Y-113979293D01*
X143824117Y-113958883D01*
X143832221Y-113939437D01*
X143841143Y-113920936D01*
X143850874Y-113903365D01*
X143861409Y-113886707D01*
X143872739Y-113870947D01*
X143884858Y-113856069D01*
X143897760Y-113842056D01*
X143911043Y-113829573D01*
X143924870Y-113818096D01*
X143939196Y-113807598D01*
X143953974Y-113798050D01*
X143969158Y-113789425D01*
X143984702Y-113781695D01*
X144000560Y-113774833D01*
X144016685Y-113768810D01*
X144033032Y-113763600D01*
X144049555Y-113759175D01*
X144066206Y-113755506D01*
X144082941Y-113752567D01*
X144099713Y-113750328D01*
X144116475Y-113748764D01*
X144133182Y-113747846D01*
X144149787Y-113747546D01*
X144166670Y-113747811D01*
X144183620Y-113748632D01*
X144200592Y-113750048D01*
X144217544Y-113752099D01*
X144234432Y-113754824D01*
X144251210Y-113758261D01*
X144267837Y-113762451D01*
X144284268Y-113767432D01*
X144300458Y-113773244D01*
X144316365Y-113779926D01*
X144331944Y-113787517D01*
X144347151Y-113796056D01*
X144361944Y-113805583D01*
X144376277Y-113816136D01*
X144390107Y-113827756D01*
X144403390Y-113840481D01*
X144415738Y-113853643D01*
X144427377Y-113867733D01*
X144438301Y-113882754D01*
X144448503Y-113898713D01*
X144457976Y-113915613D01*
X144466713Y-113933459D01*
X144474707Y-113952256D01*
X144481951Y-113972008D01*
X144488438Y-113992719D01*
X144494161Y-114014396D01*
X144499114Y-114037041D01*
X144503289Y-114060660D01*
X144506680Y-114085258D01*
X144509279Y-114110838D01*
X144509532Y-114114561D01*
X144511081Y-114137406D01*
G37*
G36*
X149377100Y-113434219D02*
G01*
X149384236Y-113434614D01*
X149391303Y-113435265D01*
X149398299Y-113436166D01*
X149405220Y-113437312D01*
X149412066Y-113438697D01*
X149418833Y-113440314D01*
X149425520Y-113442159D01*
X149432123Y-113444226D01*
X149438641Y-113446508D01*
X149445071Y-113449000D01*
X149451411Y-113451696D01*
X149463813Y-113457679D01*
X149475827Y-113464408D01*
X149487434Y-113471840D01*
X149498617Y-113479926D01*
X149509357Y-113488622D01*
X149519636Y-113497881D01*
X149529435Y-113507656D01*
X149538735Y-113517903D01*
X149547519Y-113528574D01*
X149555767Y-113539623D01*
X149562946Y-113550751D01*
X149569712Y-113562266D01*
X149576059Y-113574151D01*
X149581978Y-113586386D01*
X149587464Y-113598953D01*
X149592509Y-113611835D01*
X149597107Y-113625011D01*
X149601250Y-113638465D01*
X149604931Y-113652177D01*
X149608144Y-113666129D01*
X149610882Y-113680302D01*
X149613137Y-113694679D01*
X149614904Y-113709240D01*
X149616174Y-113723967D01*
X149616941Y-113738842D01*
X149617198Y-113753846D01*
X149803068Y-113753846D01*
X149804644Y-113753846D01*
X149808016Y-113753929D01*
X149811339Y-113754174D01*
X149814609Y-113754577D01*
X149817820Y-113755135D01*
X149820971Y-113755845D01*
X149824057Y-113756702D01*
X149827074Y-113757702D01*
X149830019Y-113758842D01*
X149832887Y-113760119D01*
X149835676Y-113761528D01*
X149838381Y-113763065D01*
X149840999Y-113764728D01*
X149843525Y-113766511D01*
X149845957Y-113768412D01*
X149848290Y-113770427D01*
X149850521Y-113772551D01*
X149852645Y-113774782D01*
X149854660Y-113777115D01*
X149856561Y-113779547D01*
X149858344Y-113782073D01*
X149860007Y-113784691D01*
X149861544Y-113787396D01*
X149862953Y-113790185D01*
X149864229Y-113793053D01*
X149865370Y-113795998D01*
X149866370Y-113799015D01*
X149867227Y-113802101D01*
X149867937Y-113805252D01*
X149868495Y-113808464D01*
X149868898Y-113811733D01*
X149869143Y-113815056D01*
X149869226Y-113818428D01*
X149869143Y-113821658D01*
X149868898Y-113824847D01*
X149868495Y-113827990D01*
X149867937Y-113831085D01*
X149867227Y-113834127D01*
X149866370Y-113837111D01*
X149865370Y-113840035D01*
X149864229Y-113842893D01*
X149862953Y-113845682D01*
X149861544Y-113848397D01*
X149860007Y-113851036D01*
X149858344Y-113853593D01*
X149856561Y-113856064D01*
X149854660Y-113858447D01*
X149852645Y-113860736D01*
X149850521Y-113862927D01*
X149848290Y-113865017D01*
X149845957Y-113867001D01*
X149843525Y-113868876D01*
X149840999Y-113870637D01*
X149838381Y-113872280D01*
X149835676Y-113873802D01*
X149832887Y-113875197D01*
X149830019Y-113876463D01*
X149827074Y-113877596D01*
X149824057Y-113878590D01*
X149820971Y-113879443D01*
X149817820Y-113880149D01*
X149814609Y-113880706D01*
X149811339Y-113881108D01*
X149808016Y-113881353D01*
X149804644Y-113881435D01*
X149803069Y-113881435D01*
X149617198Y-113881435D01*
X149617198Y-114569785D01*
X149617116Y-114573158D01*
X149616871Y-114576481D01*
X149616468Y-114579750D01*
X149615909Y-114582962D01*
X149615200Y-114586112D01*
X149614343Y-114589198D01*
X149613343Y-114592215D01*
X149612202Y-114595160D01*
X149610926Y-114598029D01*
X149609517Y-114600817D01*
X149607979Y-114603522D01*
X149606317Y-114606140D01*
X149604533Y-114608667D01*
X149602632Y-114611098D01*
X149600618Y-114613431D01*
X149598493Y-114615662D01*
X149596263Y-114617786D01*
X149593930Y-114619801D01*
X149591498Y-114621702D01*
X149588971Y-114623485D01*
X149586354Y-114625148D01*
X149583649Y-114626685D01*
X149580860Y-114628094D01*
X149577991Y-114629371D01*
X149575047Y-114630511D01*
X149572029Y-114631512D01*
X149568944Y-114632368D01*
X149565793Y-114633078D01*
X149562581Y-114633636D01*
X149559312Y-114634040D01*
X149555989Y-114634285D01*
X149552616Y-114634367D01*
X149549387Y-114634285D01*
X149546198Y-114634040D01*
X149543054Y-114633636D01*
X149539960Y-114633078D01*
X149536918Y-114632368D01*
X149533934Y-114631512D01*
X149531010Y-114630511D01*
X149528152Y-114629371D01*
X149525363Y-114628094D01*
X149522647Y-114626685D01*
X149520009Y-114625148D01*
X149517452Y-114623485D01*
X149514980Y-114621702D01*
X149512598Y-114619801D01*
X149510309Y-114617786D01*
X149508118Y-114615662D01*
X149506028Y-114613431D01*
X149504044Y-114611098D01*
X149502169Y-114608667D01*
X149500408Y-114606140D01*
X149498765Y-114603522D01*
X149497243Y-114600817D01*
X149495847Y-114598029D01*
X149494581Y-114595160D01*
X149493449Y-114592215D01*
X149492455Y-114589198D01*
X149491602Y-114586112D01*
X149490896Y-114582962D01*
X149490339Y-114579750D01*
X149489936Y-114576481D01*
X149489692Y-114573158D01*
X149489610Y-114569785D01*
X149489610Y-113881435D01*
X149254909Y-113881435D01*
X149253334Y-113881435D01*
X149249961Y-113881353D01*
X149246638Y-113881108D01*
X149243369Y-113880706D01*
X149240157Y-113880149D01*
X149237007Y-113879443D01*
X149233921Y-113878590D01*
X149230904Y-113877596D01*
X149227959Y-113876463D01*
X149225090Y-113875197D01*
X149222302Y-113873802D01*
X149219597Y-113872280D01*
X149216979Y-113870637D01*
X149214452Y-113868876D01*
X149212021Y-113867001D01*
X149209688Y-113865017D01*
X149207457Y-113862927D01*
X149205333Y-113860736D01*
X149203318Y-113858447D01*
X149201417Y-113856064D01*
X149199633Y-113853593D01*
X149197971Y-113851036D01*
X149196433Y-113848397D01*
X149195025Y-113845682D01*
X149193748Y-113842893D01*
X149192608Y-113840035D01*
X149191607Y-113837111D01*
X149190750Y-113834127D01*
X149190041Y-113831085D01*
X149189483Y-113827990D01*
X149189079Y-113824847D01*
X149188834Y-113821658D01*
X149188752Y-113818428D01*
X149188834Y-113815056D01*
X149189079Y-113811733D01*
X149189483Y-113808464D01*
X149190041Y-113805252D01*
X149190750Y-113802101D01*
X149191607Y-113799015D01*
X149192608Y-113795998D01*
X149193748Y-113793053D01*
X149195025Y-113790185D01*
X149196433Y-113787396D01*
X149197971Y-113784691D01*
X149199633Y-113782073D01*
X149201417Y-113779547D01*
X149203318Y-113777115D01*
X149205332Y-113774782D01*
X149207457Y-113772551D01*
X149209688Y-113770427D01*
X149212021Y-113768412D01*
X149214452Y-113766511D01*
X149216979Y-113764728D01*
X149219596Y-113763065D01*
X149222302Y-113761528D01*
X149225090Y-113760119D01*
X149227959Y-113758842D01*
X149230904Y-113757702D01*
X149233921Y-113756702D01*
X149237006Y-113755845D01*
X149240157Y-113755135D01*
X149243369Y-113754577D01*
X149246638Y-113754174D01*
X149249961Y-113753929D01*
X149253334Y-113753846D01*
X149254909Y-113753846D01*
X149489609Y-113753846D01*
X149489409Y-113743273D01*
X149488819Y-113732831D01*
X149487855Y-113722541D01*
X149486533Y-113712424D01*
X149484870Y-113702501D01*
X149482881Y-113692793D01*
X149480583Y-113683320D01*
X149477993Y-113674103D01*
X149475125Y-113665163D01*
X149471996Y-113656521D01*
X149468623Y-113648197D01*
X149465022Y-113640212D01*
X149461208Y-113632588D01*
X149457198Y-113625344D01*
X149453009Y-113618501D01*
X149448655Y-113612081D01*
X149444482Y-113605822D01*
X149440231Y-113600033D01*
X149435897Y-113594706D01*
X149431476Y-113589832D01*
X149426962Y-113585400D01*
X149422351Y-113581402D01*
X149417638Y-113577828D01*
X149412820Y-113574670D01*
X149407891Y-113571919D01*
X149402846Y-113569563D01*
X149397681Y-113567596D01*
X149392392Y-113566007D01*
X149386973Y-113564787D01*
X149381421Y-113563927D01*
X149375730Y-113563418D01*
X149369896Y-113563250D01*
X149363996Y-113563359D01*
X149358116Y-113563675D01*
X149352267Y-113564185D01*
X149346460Y-113564875D01*
X149340706Y-113565731D01*
X149335016Y-113566739D01*
X149329401Y-113567886D01*
X149323872Y-113569157D01*
X149313116Y-113572019D01*
X149302835Y-113575212D01*
X149293117Y-113578627D01*
X149284050Y-113582153D01*
X149275721Y-113585678D01*
X149268218Y-113589093D01*
X149261629Y-113592287D01*
X149256041Y-113595148D01*
X149248220Y-113599430D01*
X149245458Y-113601055D01*
X149243615Y-113601940D01*
X149241640Y-113602818D01*
X149239550Y-113603682D01*
X149237360Y-113604525D01*
X149235088Y-113605341D01*
X149232749Y-113606122D01*
X149230359Y-113606861D01*
X149227934Y-113607552D01*
X149225491Y-113608188D01*
X149223046Y-113608761D01*
X149220614Y-113609266D01*
X149218212Y-113609694D01*
X149215857Y-113610039D01*
X149213564Y-113610294D01*
X149211349Y-113610452D01*
X149209229Y-113610506D01*
X149205856Y-113610423D01*
X149202533Y-113610179D01*
X149199264Y-113609775D01*
X149196052Y-113609217D01*
X149192902Y-113608507D01*
X149189816Y-113607650D01*
X149186799Y-113606650D01*
X149183854Y-113605510D01*
X149180985Y-113604233D01*
X149178197Y-113602824D01*
X149175492Y-113601287D01*
X149172874Y-113599624D01*
X149170347Y-113597841D01*
X149167916Y-113595940D01*
X149165583Y-113593925D01*
X149163352Y-113591801D01*
X149161228Y-113589570D01*
X149159213Y-113587237D01*
X149157312Y-113584805D01*
X149155528Y-113582279D01*
X149153866Y-113579661D01*
X149152329Y-113576956D01*
X149150920Y-113574167D01*
X149149643Y-113571299D01*
X149148503Y-113568354D01*
X149147502Y-113565337D01*
X149146645Y-113562251D01*
X149145936Y-113559100D01*
X149145378Y-113555888D01*
X149144974Y-113552619D01*
X149144729Y-113549296D01*
X149144647Y-113545924D01*
X149144693Y-113543991D01*
X149144828Y-113542034D01*
X149145050Y-113540057D01*
X149145358Y-113538063D01*
X149145746Y-113536057D01*
X149146215Y-113534042D01*
X149146760Y-113532021D01*
X149147379Y-113530000D01*
X149148829Y-113525967D01*
X149150545Y-113521973D01*
X149152505Y-113518049D01*
X149154689Y-113514223D01*
X149157076Y-113510527D01*
X149159645Y-113506990D01*
X149162376Y-113503643D01*
X149165247Y-113500514D01*
X149168239Y-113497635D01*
X149169773Y-113496298D01*
X149171329Y-113495035D01*
X149172906Y-113493849D01*
X149174499Y-113492744D01*
X149176106Y-113491724D01*
X149177726Y-113490793D01*
X149192690Y-113481932D01*
X149210287Y-113472850D01*
X149221292Y-113467728D01*
X149233644Y-113462440D01*
X149247251Y-113457151D01*
X149262022Y-113452029D01*
X149277863Y-113447238D01*
X149294682Y-113442947D01*
X149312387Y-113439320D01*
X149330886Y-113436523D01*
X149350087Y-113434723D01*
X149369896Y-113434086D01*
X149377100Y-113434219D01*
G37*
G36*
X145202349Y-112316857D02*
G01*
X145219298Y-112317678D01*
X145236271Y-112319094D01*
X145253223Y-112321145D01*
X145270110Y-112323870D01*
X145286889Y-112327307D01*
X145303515Y-112331497D01*
X145319946Y-112336478D01*
X145336136Y-112342290D01*
X145352043Y-112348972D01*
X145367622Y-112356563D01*
X145382829Y-112365102D01*
X145397622Y-112374629D01*
X145411955Y-112385182D01*
X145425785Y-112396802D01*
X145439068Y-112409527D01*
X145451692Y-112423003D01*
X145463569Y-112437446D01*
X145474689Y-112452863D01*
X145485043Y-112469260D01*
X145494622Y-112486645D01*
X145503416Y-112505024D01*
X145511416Y-112524405D01*
X145518614Y-112544794D01*
X145524999Y-112566199D01*
X145530563Y-112588625D01*
X145535296Y-112612081D01*
X145539189Y-112636572D01*
X145542233Y-112662107D01*
X145544419Y-112688691D01*
X145545737Y-112716332D01*
X145546179Y-112745037D01*
X145545720Y-112774037D01*
X145544351Y-112801971D01*
X145542088Y-112828843D01*
X145538943Y-112854659D01*
X145534930Y-112879423D01*
X145530064Y-112903139D01*
X145524358Y-112925812D01*
X145517826Y-112947446D01*
X145510481Y-112968047D01*
X145502339Y-112987619D01*
X145493412Y-113006167D01*
X145483714Y-113023694D01*
X145473259Y-113040207D01*
X145462061Y-113055708D01*
X145450134Y-113070204D01*
X145437492Y-113083698D01*
X145423967Y-113096405D01*
X145409994Y-113107975D01*
X145395606Y-113118451D01*
X145380835Y-113127877D01*
X145365714Y-113136297D01*
X145350273Y-113143755D01*
X145334547Y-113150294D01*
X145318567Y-113155959D01*
X145302365Y-113160794D01*
X145285975Y-113164841D01*
X145269427Y-113168146D01*
X145252755Y-113170751D01*
X145235990Y-113172701D01*
X145219165Y-113174040D01*
X145202313Y-113174811D01*
X145185466Y-113175058D01*
X145167368Y-113174737D01*
X145149147Y-113173741D01*
X145130867Y-113172026D01*
X145112589Y-113169545D01*
X145094376Y-113166252D01*
X145076290Y-113162100D01*
X145058392Y-113157044D01*
X145040747Y-113151037D01*
X145023415Y-113144033D01*
X145006459Y-113135987D01*
X144989942Y-113126851D01*
X144973925Y-113116580D01*
X144958472Y-113105128D01*
X144943643Y-113092448D01*
X144936483Y-113085633D01*
X144929503Y-113078495D01*
X144922710Y-113071026D01*
X144916112Y-113063221D01*
X144914360Y-113061342D01*
X144912654Y-113059265D01*
X144911003Y-113057012D01*
X144909418Y-113054607D01*
X144907905Y-113052073D01*
X144906476Y-113049432D01*
X144905140Y-113046709D01*
X144903904Y-113043925D01*
X144902780Y-113041105D01*
X144901776Y-113038271D01*
X144900900Y-113035446D01*
X144900163Y-113032653D01*
X144899574Y-113029916D01*
X144899142Y-113027257D01*
X144898876Y-113024700D01*
X144898785Y-113022267D01*
X144898868Y-113018894D01*
X144899112Y-113015571D01*
X144899516Y-113012302D01*
X144900074Y-113009090D01*
X144900784Y-113005940D01*
X144901640Y-113002854D01*
X144902641Y-112999837D01*
X144903781Y-112996892D01*
X144905058Y-112994023D01*
X144906467Y-112991235D01*
X144908004Y-112988530D01*
X144909667Y-112985912D01*
X144911450Y-112983385D01*
X144913351Y-112980954D01*
X144915366Y-112978621D01*
X144917490Y-112976390D01*
X144919721Y-112974266D01*
X144922054Y-112972251D01*
X144924485Y-112970350D01*
X144927012Y-112968567D01*
X144929630Y-112966904D01*
X144932335Y-112965367D01*
X144935123Y-112963958D01*
X144937992Y-112962681D01*
X144940937Y-112961541D01*
X144943954Y-112960540D01*
X144947040Y-112959684D01*
X144950190Y-112958974D01*
X144953402Y-112958416D01*
X144956671Y-112958012D01*
X144959994Y-112957767D01*
X144963367Y-112957685D01*
X144966408Y-112957794D01*
X144969603Y-112958116D01*
X144972923Y-112958640D01*
X144976337Y-112959359D01*
X144979816Y-112960262D01*
X144983330Y-112961340D01*
X144986849Y-112962584D01*
X144990342Y-112963986D01*
X144993779Y-112965535D01*
X144997132Y-112967222D01*
X145000368Y-112969039D01*
X145003460Y-112970976D01*
X145006376Y-112973023D01*
X145009087Y-112975172D01*
X145011563Y-112977413D01*
X145013773Y-112979737D01*
X145021637Y-112988527D01*
X145029872Y-112996600D01*
X145038481Y-113003975D01*
X145047466Y-113010675D01*
X145056830Y-113016719D01*
X145066574Y-113022128D01*
X145076702Y-113026924D01*
X145087215Y-113031127D01*
X145098115Y-113034758D01*
X145109405Y-113037837D01*
X145121088Y-113040385D01*
X145133165Y-113042424D01*
X145145639Y-113043973D01*
X145158512Y-113045054D01*
X145171787Y-113045688D01*
X145185466Y-113045894D01*
X145197999Y-113045743D01*
X145210201Y-113045276D01*
X145222070Y-113044472D01*
X145233606Y-113043310D01*
X145244811Y-113041770D01*
X145255683Y-113039831D01*
X145266223Y-113037471D01*
X145276431Y-113034671D01*
X145286307Y-113031410D01*
X145295850Y-113027666D01*
X145305061Y-113023419D01*
X145313940Y-113018649D01*
X145322487Y-113013334D01*
X145330701Y-113007453D01*
X145338583Y-113000987D01*
X145346133Y-112993914D01*
X145353436Y-112985875D01*
X145360552Y-112977082D01*
X145367442Y-112967482D01*
X145374067Y-112957020D01*
X145380387Y-112945645D01*
X145386364Y-112933304D01*
X145391957Y-112919942D01*
X145397129Y-112905508D01*
X145401838Y-112889947D01*
X145406047Y-112873207D01*
X145409716Y-112855236D01*
X145412806Y-112835979D01*
X145415278Y-112815383D01*
X145417092Y-112793397D01*
X145418209Y-112769966D01*
X145418590Y-112745037D01*
X145418209Y-112720404D01*
X145417092Y-112697265D01*
X145415278Y-112675567D01*
X145412806Y-112655253D01*
X145409716Y-112636268D01*
X145406047Y-112618556D01*
X145401838Y-112602063D01*
X145397129Y-112586733D01*
X145391957Y-112572510D01*
X145386364Y-112559340D01*
X145380387Y-112547166D01*
X145374067Y-112535934D01*
X145367442Y-112525588D01*
X145360552Y-112516072D01*
X145353436Y-112507332D01*
X145346133Y-112499311D01*
X145338583Y-112492220D01*
X145330701Y-112485704D01*
X145322487Y-112479746D01*
X145313940Y-112474330D01*
X145305061Y-112469440D01*
X145295850Y-112465061D01*
X145286307Y-112461175D01*
X145276431Y-112457766D01*
X145266224Y-112454819D01*
X145255684Y-112452318D01*
X145244811Y-112450245D01*
X145233607Y-112448586D01*
X145222070Y-112447323D01*
X145210201Y-112446442D01*
X145197999Y-112445924D01*
X145185466Y-112445756D01*
X145170902Y-112445947D01*
X145156750Y-112446549D01*
X145143012Y-112447604D01*
X145129695Y-112449152D01*
X145116802Y-112451236D01*
X145104338Y-112453896D01*
X145092308Y-112457175D01*
X145080717Y-112461113D01*
X145075087Y-112463343D01*
X145069568Y-112465754D01*
X145064162Y-112468350D01*
X145058868Y-112471137D01*
X145053687Y-112474120D01*
X145048619Y-112477304D01*
X145043666Y-112480695D01*
X145038827Y-112484298D01*
X145034104Y-112488118D01*
X145029497Y-112492159D01*
X145025006Y-112496428D01*
X145020633Y-112500930D01*
X145016377Y-112505669D01*
X145012239Y-112510651D01*
X145008221Y-112515881D01*
X145004321Y-112521364D01*
X145002110Y-112524018D01*
X144999630Y-112526652D01*
X144996904Y-112529245D01*
X144993960Y-112531775D01*
X144990821Y-112534222D01*
X144987514Y-112536565D01*
X144984064Y-112538783D01*
X144980497Y-112540856D01*
X144976837Y-112542763D01*
X144973110Y-112544484D01*
X144969342Y-112545996D01*
X144965557Y-112547280D01*
X144961782Y-112548315D01*
X144958041Y-112549080D01*
X144954361Y-112549554D01*
X144950766Y-112549717D01*
X144947536Y-112549634D01*
X144944347Y-112549389D01*
X144941203Y-112548986D01*
X144938109Y-112548428D01*
X144935067Y-112547718D01*
X144932083Y-112546861D01*
X144929159Y-112545861D01*
X144926301Y-112544720D01*
X144923512Y-112543444D01*
X144920797Y-112542035D01*
X144918158Y-112540498D01*
X144915601Y-112538835D01*
X144913129Y-112537052D01*
X144910747Y-112535151D01*
X144908458Y-112533136D01*
X144906267Y-112531012D01*
X144904177Y-112528781D01*
X144902193Y-112526448D01*
X144900318Y-112524016D01*
X144898557Y-112521490D01*
X144896914Y-112518872D01*
X144895392Y-112516167D01*
X144893997Y-112513378D01*
X144892730Y-112510510D01*
X144891598Y-112507565D01*
X144890604Y-112504548D01*
X144889751Y-112501462D01*
X144889045Y-112498311D01*
X144888488Y-112495100D01*
X144888086Y-112491830D01*
X144887841Y-112488507D01*
X144887759Y-112485135D01*
X144887814Y-112482997D01*
X144887977Y-112480732D01*
X144888247Y-112478361D01*
X144888620Y-112475905D01*
X144889095Y-112473384D01*
X144889669Y-112470820D01*
X144890340Y-112468232D01*
X144891106Y-112465642D01*
X144891964Y-112463071D01*
X144892912Y-112460538D01*
X144893948Y-112458066D01*
X144895069Y-112455674D01*
X144896273Y-112453384D01*
X144897558Y-112451216D01*
X144898921Y-112449192D01*
X144900360Y-112447331D01*
X144913841Y-112429509D01*
X144928246Y-112413222D01*
X144943499Y-112398416D01*
X144959527Y-112385038D01*
X144976257Y-112373035D01*
X144993615Y-112362355D01*
X145011526Y-112352943D01*
X145029917Y-112344748D01*
X145048715Y-112337716D01*
X145067845Y-112331793D01*
X145087233Y-112326927D01*
X145106805Y-112323065D01*
X145126489Y-112320153D01*
X145146209Y-112318139D01*
X145165893Y-112316970D01*
X145185466Y-112316592D01*
X145202349Y-112316857D01*
G37*
G36*
X146303799Y-112059954D02*
G01*
X146308421Y-112060295D01*
X146312969Y-112060856D01*
X146317436Y-112061633D01*
X146321818Y-112062622D01*
X146326110Y-112063816D01*
X146330305Y-112065212D01*
X146334400Y-112066805D01*
X146338389Y-112068589D01*
X146342266Y-112070559D01*
X146346027Y-112072712D01*
X146349666Y-112075041D01*
X146353178Y-112077542D01*
X146356558Y-112080210D01*
X146359801Y-112083040D01*
X146362901Y-112086027D01*
X146365853Y-112089166D01*
X146368653Y-112092453D01*
X146371295Y-112095883D01*
X146373773Y-112099450D01*
X146376083Y-112103149D01*
X146378219Y-112106977D01*
X146380177Y-112110927D01*
X146381950Y-112114995D01*
X146383535Y-112119176D01*
X146384925Y-112123466D01*
X146386115Y-112127859D01*
X146387100Y-112132350D01*
X146387876Y-112136934D01*
X146388436Y-112141607D01*
X146388776Y-112146364D01*
X146388891Y-112151199D01*
X146388776Y-112155892D01*
X146388436Y-112160514D01*
X146387876Y-112165062D01*
X146387100Y-112169529D01*
X146386115Y-112173911D01*
X146384925Y-112178203D01*
X146383535Y-112182398D01*
X146381950Y-112186493D01*
X146380177Y-112190482D01*
X146378219Y-112194359D01*
X146376083Y-112198120D01*
X146373773Y-112201759D01*
X146371295Y-112205271D01*
X146368653Y-112208651D01*
X146365853Y-112211893D01*
X146362901Y-112214994D01*
X146359801Y-112217946D01*
X146356558Y-112220746D01*
X146353178Y-112223388D01*
X146349666Y-112225866D01*
X146346027Y-112228176D01*
X146342266Y-112230312D01*
X146338389Y-112232270D01*
X146334400Y-112234043D01*
X146330305Y-112235628D01*
X146326110Y-112237018D01*
X146321818Y-112238208D01*
X146317436Y-112239193D01*
X146312969Y-112239969D01*
X146308421Y-112240529D01*
X146303799Y-112240869D01*
X146299106Y-112240984D01*
X146294271Y-112240869D01*
X146289514Y-112240529D01*
X146284841Y-112239969D01*
X146280257Y-112239193D01*
X146275766Y-112238208D01*
X146271373Y-112237018D01*
X146267084Y-112235628D01*
X146262902Y-112234043D01*
X146258834Y-112232270D01*
X146254884Y-112230312D01*
X146251057Y-112228176D01*
X146247357Y-112225866D01*
X146243790Y-112223388D01*
X146240361Y-112220746D01*
X146237074Y-112217946D01*
X146233934Y-112214994D01*
X146230947Y-112211893D01*
X146228117Y-112208651D01*
X146225449Y-112205271D01*
X146222948Y-112201759D01*
X146220619Y-112198120D01*
X146218467Y-112194359D01*
X146216496Y-112190482D01*
X146214712Y-112186493D01*
X146213120Y-112182398D01*
X146211724Y-112178203D01*
X146210529Y-112173911D01*
X146209541Y-112169529D01*
X146208763Y-112165062D01*
X146208202Y-112160514D01*
X146207862Y-112155892D01*
X146207747Y-112151199D01*
X146207862Y-112146364D01*
X146208202Y-112141607D01*
X146208763Y-112136934D01*
X146209541Y-112132350D01*
X146210529Y-112127859D01*
X146211724Y-112123466D01*
X146213120Y-112119176D01*
X146214712Y-112114995D01*
X146216496Y-112110927D01*
X146218467Y-112106977D01*
X146220619Y-112103149D01*
X146222948Y-112099450D01*
X146225449Y-112095883D01*
X146228117Y-112092453D01*
X146230947Y-112089166D01*
X146233934Y-112086027D01*
X146237074Y-112083040D01*
X146240361Y-112080210D01*
X146243790Y-112077542D01*
X146247357Y-112075041D01*
X146251057Y-112072712D01*
X146254884Y-112070559D01*
X146258834Y-112068589D01*
X146262902Y-112066805D01*
X146267084Y-112065212D01*
X146271373Y-112063816D01*
X146275766Y-112062622D01*
X146280257Y-112061633D01*
X146284841Y-112060856D01*
X146289514Y-112060295D01*
X146294271Y-112059954D01*
X146299106Y-112059840D01*
X146303799Y-112059954D01*
G37*
G36*
X143741491Y-113399765D02*
G01*
X143742174Y-113399815D01*
X143742846Y-113399898D01*
X143743506Y-113400013D01*
X143744154Y-113400159D01*
X143744788Y-113400335D01*
X143745408Y-113400541D01*
X143746014Y-113400775D01*
X143746603Y-113401038D01*
X143747177Y-113401327D01*
X143747733Y-113401643D01*
X143748271Y-113401985D01*
X143748790Y-113402352D01*
X143749290Y-113402743D01*
X143749770Y-113403157D01*
X143750228Y-113403594D01*
X143750665Y-113404052D01*
X143751079Y-113404532D01*
X143751470Y-113405032D01*
X143751837Y-113405551D01*
X143752179Y-113406089D01*
X143752495Y-113406645D01*
X143752784Y-113407219D01*
X143753047Y-113407808D01*
X143753281Y-113408414D01*
X143753487Y-113409034D01*
X143753663Y-113409668D01*
X143753809Y-113410316D01*
X143753924Y-113410976D01*
X143754007Y-113411648D01*
X143754057Y-113412332D01*
X143754074Y-113413025D01*
X143754057Y-113413718D01*
X143754007Y-113414401D01*
X143753924Y-113415074D01*
X143753809Y-113415734D01*
X143753663Y-113416382D01*
X143753487Y-113417016D01*
X143753281Y-113417636D01*
X143753047Y-113418242D01*
X143752784Y-113418831D01*
X143752495Y-113419405D01*
X143752179Y-113419961D01*
X143751837Y-113420499D01*
X143751470Y-113421018D01*
X143751079Y-113421518D01*
X143750665Y-113421998D01*
X143750228Y-113422456D01*
X143749770Y-113422893D01*
X143749290Y-113423307D01*
X143748790Y-113423698D01*
X143748271Y-113424065D01*
X143747733Y-113424407D01*
X143747177Y-113424723D01*
X143746603Y-113425012D01*
X143746014Y-113425275D01*
X143745408Y-113425509D01*
X143744788Y-113425715D01*
X143744154Y-113425891D01*
X143743506Y-113426037D01*
X143742846Y-113426152D01*
X143742174Y-113426235D01*
X143741491Y-113426285D01*
X143740797Y-113426302D01*
X143740497Y-113426302D01*
X143686418Y-113426302D01*
X143686718Y-113628696D01*
X143686701Y-113629389D01*
X143686651Y-113630072D01*
X143686568Y-113630745D01*
X143686453Y-113631405D01*
X143686307Y-113632053D01*
X143686131Y-113632687D01*
X143685925Y-113633307D01*
X143685691Y-113633913D01*
X143685428Y-113634502D01*
X143685139Y-113635076D01*
X143684823Y-113635632D01*
X143684481Y-113636170D01*
X143684114Y-113636689D01*
X143683723Y-113637189D01*
X143683309Y-113637669D01*
X143682872Y-113638127D01*
X143682414Y-113638564D01*
X143681934Y-113638978D01*
X143681434Y-113639369D01*
X143680915Y-113639736D01*
X143680377Y-113640078D01*
X143679820Y-113640394D01*
X143679247Y-113640683D01*
X143678657Y-113640946D01*
X143678052Y-113641180D01*
X143677432Y-113641386D01*
X143676797Y-113641562D01*
X143676149Y-113641708D01*
X143675489Y-113641823D01*
X143674817Y-113641906D01*
X143674134Y-113641956D01*
X143673441Y-113641973D01*
X143672747Y-113641956D01*
X143672064Y-113641906D01*
X143671392Y-113641823D01*
X143670732Y-113641708D01*
X143670084Y-113641562D01*
X143669450Y-113641386D01*
X143668830Y-113641180D01*
X143668224Y-113640946D01*
X143667634Y-113640683D01*
X143667061Y-113640394D01*
X143666505Y-113640078D01*
X143665967Y-113639736D01*
X143665448Y-113639369D01*
X143664948Y-113638978D01*
X143664468Y-113638564D01*
X143664009Y-113638127D01*
X143663573Y-113637669D01*
X143663158Y-113637189D01*
X143662768Y-113636689D01*
X143662401Y-113636170D01*
X143662059Y-113635632D01*
X143661743Y-113635076D01*
X143661453Y-113634502D01*
X143661191Y-113633913D01*
X143660957Y-113633307D01*
X143660751Y-113632687D01*
X143660575Y-113632053D01*
X143660429Y-113631405D01*
X143660314Y-113630745D01*
X143660231Y-113630072D01*
X143660181Y-113629389D01*
X143660164Y-113628696D01*
X143659863Y-113426302D01*
X143607080Y-113426302D01*
X143606386Y-113426285D01*
X143605703Y-113426235D01*
X143605031Y-113426152D01*
X143604371Y-113426037D01*
X143603723Y-113425891D01*
X143603088Y-113425715D01*
X143602468Y-113425509D01*
X143601863Y-113425275D01*
X143601273Y-113425012D01*
X143600700Y-113424723D01*
X143600143Y-113424407D01*
X143599605Y-113424065D01*
X143599086Y-113423698D01*
X143598586Y-113423307D01*
X143598106Y-113422893D01*
X143597648Y-113422457D01*
X143597211Y-113421998D01*
X143596797Y-113421518D01*
X143596406Y-113421018D01*
X143596039Y-113420499D01*
X143595698Y-113419961D01*
X143595381Y-113419405D01*
X143595092Y-113418831D01*
X143594829Y-113418242D01*
X143594595Y-113417636D01*
X143594389Y-113417016D01*
X143594213Y-113416382D01*
X143594067Y-113415734D01*
X143593953Y-113415074D01*
X143593870Y-113414401D01*
X143593819Y-113413718D01*
X143593802Y-113413025D01*
X143593819Y-113412332D01*
X143593870Y-113411648D01*
X143593953Y-113410976D01*
X143594067Y-113410316D01*
X143594213Y-113409668D01*
X143594389Y-113409034D01*
X143594595Y-113408414D01*
X143594829Y-113407808D01*
X143595092Y-113407219D01*
X143595381Y-113406645D01*
X143595698Y-113406089D01*
X143596039Y-113405551D01*
X143596406Y-113405032D01*
X143596797Y-113404532D01*
X143597211Y-113404052D01*
X143597648Y-113403594D01*
X143598106Y-113403157D01*
X143598586Y-113402743D01*
X143599086Y-113402352D01*
X143599605Y-113401985D01*
X143600143Y-113401643D01*
X143600700Y-113401327D01*
X143601273Y-113401038D01*
X143601863Y-113400775D01*
X143602468Y-113400541D01*
X143603088Y-113400335D01*
X143603723Y-113400159D01*
X143604371Y-113400013D01*
X143605031Y-113399898D01*
X143605703Y-113399815D01*
X143606386Y-113399765D01*
X143607080Y-113399748D01*
X143671197Y-113399748D01*
X143673465Y-113399748D01*
X143675407Y-113399748D01*
X143740497Y-113399748D01*
X143740797Y-113399748D01*
X143741491Y-113399765D01*
G37*
G36*
X145512251Y-113744482D02*
G01*
X145515332Y-113744740D01*
X145518393Y-113745164D01*
X145521428Y-113745749D01*
X145524432Y-113746491D01*
X145527399Y-113747386D01*
X145530324Y-113748428D01*
X145533202Y-113749613D01*
X145536026Y-113750937D01*
X145538792Y-113752394D01*
X145541494Y-113753981D01*
X145544126Y-113755692D01*
X145546684Y-113757524D01*
X145549161Y-113759470D01*
X145551552Y-113761528D01*
X145553851Y-113763691D01*
X145556054Y-113765956D01*
X145558154Y-113768318D01*
X145560146Y-113770773D01*
X145562025Y-113773315D01*
X145563786Y-113775940D01*
X145565421Y-113778643D01*
X145566928Y-113781420D01*
X145568298Y-113784267D01*
X145569528Y-113787178D01*
X145570612Y-113790149D01*
X145571544Y-113793176D01*
X145572319Y-113796253D01*
X145572932Y-113799376D01*
X145573376Y-113802541D01*
X145573646Y-113805743D01*
X145573738Y-113808977D01*
X145573738Y-113810552D01*
X145573738Y-114087783D01*
X145573738Y-114536707D01*
X145573738Y-114541432D01*
X145573655Y-114544805D01*
X145573410Y-114548128D01*
X145573007Y-114551397D01*
X145572449Y-114554609D01*
X145571739Y-114557759D01*
X145570882Y-114560845D01*
X145569882Y-114563862D01*
X145568741Y-114566807D01*
X145567465Y-114569676D01*
X145566056Y-114572464D01*
X145564519Y-114575170D01*
X145562856Y-114577787D01*
X145561073Y-114580314D01*
X145559172Y-114582745D01*
X145557157Y-114585078D01*
X145555033Y-114587309D01*
X145552802Y-114589433D01*
X145550469Y-114591448D01*
X145548037Y-114593349D01*
X145545511Y-114595133D01*
X145542893Y-114596795D01*
X145540188Y-114598332D01*
X145537399Y-114599741D01*
X145534531Y-114601018D01*
X145531586Y-114602158D01*
X145528569Y-114603159D01*
X145525483Y-114604016D01*
X145522332Y-114604725D01*
X145519121Y-114605283D01*
X145515851Y-114605687D01*
X145512528Y-114605932D01*
X145509156Y-114606014D01*
X145505783Y-114605932D01*
X145502460Y-114605687D01*
X145499191Y-114605283D01*
X145495979Y-114604725D01*
X145492828Y-114604016D01*
X145489743Y-114603159D01*
X145486725Y-114602158D01*
X145483781Y-114601018D01*
X145480912Y-114599741D01*
X145478123Y-114598332D01*
X145475418Y-114596795D01*
X145472801Y-114595133D01*
X145470274Y-114593349D01*
X145467843Y-114591448D01*
X145465510Y-114589433D01*
X145463279Y-114587309D01*
X145461154Y-114585078D01*
X145459140Y-114582745D01*
X145457239Y-114580314D01*
X145455455Y-114577787D01*
X145453793Y-114575170D01*
X145452255Y-114572464D01*
X145450847Y-114569676D01*
X145449570Y-114566807D01*
X145448430Y-114563862D01*
X145447429Y-114560845D01*
X145446572Y-114557759D01*
X145445863Y-114554609D01*
X145445305Y-114551397D01*
X145444901Y-114548128D01*
X145444656Y-114544805D01*
X145444574Y-114541432D01*
X145444574Y-114536707D01*
X145444574Y-114087783D01*
X145444264Y-114073917D01*
X145443349Y-114060660D01*
X145441853Y-114047994D01*
X145439799Y-114035900D01*
X145437209Y-114024361D01*
X145434108Y-114013356D01*
X145430516Y-114002868D01*
X145426459Y-113992879D01*
X145421959Y-113983369D01*
X145417039Y-113974321D01*
X145411722Y-113965716D01*
X145406031Y-113957536D01*
X145399990Y-113949761D01*
X145393621Y-113942375D01*
X145386947Y-113935357D01*
X145379992Y-113928690D01*
X145372703Y-113922638D01*
X145365022Y-113916892D01*
X145356962Y-113911465D01*
X145348538Y-113906367D01*
X145339763Y-113901611D01*
X145330651Y-113897208D01*
X145321216Y-113893170D01*
X145311472Y-113889508D01*
X145301433Y-113886233D01*
X145291112Y-113883358D01*
X145280523Y-113880893D01*
X145269681Y-113878851D01*
X145258598Y-113877242D01*
X145247290Y-113876079D01*
X145235769Y-113875373D01*
X145224050Y-113875135D01*
X145211169Y-113875318D01*
X145198527Y-113875861D01*
X145186144Y-113876754D01*
X145174038Y-113877990D01*
X145162228Y-113879557D01*
X145150731Y-113881448D01*
X145139566Y-113883652D01*
X145128752Y-113886161D01*
X145118307Y-113888965D01*
X145108250Y-113892055D01*
X145098599Y-113895423D01*
X145089373Y-113899057D01*
X145080589Y-113902951D01*
X145072267Y-113907093D01*
X145064425Y-113911476D01*
X145057082Y-113916089D01*
X145050215Y-113920853D01*
X145043791Y-113925700D01*
X145037810Y-113930639D01*
X145032273Y-113935680D01*
X145027178Y-113940832D01*
X145022526Y-113946103D01*
X145018318Y-113951504D01*
X145014552Y-113957043D01*
X145011229Y-113962730D01*
X145008350Y-113968574D01*
X145005913Y-113974584D01*
X145003920Y-113980769D01*
X145002369Y-113987139D01*
X145001262Y-113993703D01*
X145000597Y-114000470D01*
X145000376Y-114007449D01*
X145000293Y-114010679D01*
X145000048Y-114013867D01*
X144999645Y-114017011D01*
X144999086Y-114020106D01*
X144998377Y-114023147D01*
X144997520Y-114026132D01*
X144996520Y-114029055D01*
X144995379Y-114031913D01*
X144994103Y-114034702D01*
X144992694Y-114037418D01*
X144991156Y-114040056D01*
X144989494Y-114042613D01*
X144987710Y-114045085D01*
X144985809Y-114047467D01*
X144983795Y-114049756D01*
X144981670Y-114051948D01*
X144979440Y-114054037D01*
X144977107Y-114056022D01*
X144974675Y-114057896D01*
X144972149Y-114059657D01*
X144969531Y-114061301D01*
X144966826Y-114062822D01*
X144964037Y-114064218D01*
X144961169Y-114065484D01*
X144958224Y-114066616D01*
X144955207Y-114067611D01*
X144952121Y-114068463D01*
X144948970Y-114069170D01*
X144945758Y-114069726D01*
X144942489Y-114070129D01*
X144939166Y-114070373D01*
X144935794Y-114070456D01*
X144932421Y-114070373D01*
X144929098Y-114070129D01*
X144925829Y-114069726D01*
X144922617Y-114069170D01*
X144919466Y-114068463D01*
X144916380Y-114067611D01*
X144913363Y-114066616D01*
X144910419Y-114065484D01*
X144907550Y-114064218D01*
X144904761Y-114062822D01*
X144902056Y-114061301D01*
X144899439Y-114059657D01*
X144896912Y-114057896D01*
X144894480Y-114056022D01*
X144892147Y-114054037D01*
X144889917Y-114051948D01*
X144887792Y-114049756D01*
X144885778Y-114047467D01*
X144883877Y-114045085D01*
X144882093Y-114042613D01*
X144880431Y-114040056D01*
X144878893Y-114037418D01*
X144877484Y-114034702D01*
X144876208Y-114031913D01*
X144875068Y-114029055D01*
X144874067Y-114026132D01*
X144873210Y-114023147D01*
X144872501Y-114020106D01*
X144871942Y-114017011D01*
X144871539Y-114013867D01*
X144871294Y-114010679D01*
X144871212Y-114007449D01*
X144874365Y-114007449D01*
X144874502Y-113999655D01*
X144874911Y-113991929D01*
X144875587Y-113984275D01*
X144876524Y-113976696D01*
X144877718Y-113969195D01*
X144879162Y-113961777D01*
X144880852Y-113954443D01*
X144882782Y-113947199D01*
X144884948Y-113940046D01*
X144887344Y-113932990D01*
X144889965Y-113926032D01*
X144892805Y-113919178D01*
X144895860Y-113912429D01*
X144899125Y-113905790D01*
X144902594Y-113899264D01*
X144906262Y-113892855D01*
X144914174Y-113880400D01*
X144922820Y-113868452D01*
X144932158Y-113857040D01*
X144942146Y-113846191D01*
X144952744Y-113835932D01*
X144963909Y-113826292D01*
X144975601Y-113817298D01*
X144987777Y-113808977D01*
X145000346Y-113801001D01*
X145013241Y-113793607D01*
X145026455Y-113786785D01*
X145039979Y-113780526D01*
X145053809Y-113774820D01*
X145067936Y-113769660D01*
X145082353Y-113765034D01*
X145097055Y-113760935D01*
X145112033Y-113757352D01*
X145127281Y-113754277D01*
X145142793Y-113751700D01*
X145158560Y-113749613D01*
X145174577Y-113748006D01*
X145190836Y-113746869D01*
X145207330Y-113746194D01*
X145224053Y-113745970D01*
X145239076Y-113746212D01*
X145254009Y-113746943D01*
X145268836Y-113748172D01*
X145283540Y-113749908D01*
X145298106Y-113752162D01*
X145312518Y-113754942D01*
X145326759Y-113758256D01*
X145340812Y-113762116D01*
X145354663Y-113766529D01*
X145368295Y-113771505D01*
X145381691Y-113777054D01*
X145394836Y-113783184D01*
X145407713Y-113789904D01*
X145420306Y-113797225D01*
X145432600Y-113805155D01*
X145444577Y-113813703D01*
X145444577Y-113810552D01*
X145444577Y-113808977D01*
X145444659Y-113805604D01*
X145444904Y-113802282D01*
X145445307Y-113799012D01*
X145445866Y-113795801D01*
X145446575Y-113792650D01*
X145447432Y-113789564D01*
X145448433Y-113786547D01*
X145449573Y-113783602D01*
X145450849Y-113780734D01*
X145452258Y-113777945D01*
X145453796Y-113775240D01*
X145455458Y-113772622D01*
X145457242Y-113770096D01*
X145459143Y-113767664D01*
X145461157Y-113765331D01*
X145463282Y-113763100D01*
X145465512Y-113760976D01*
X145467845Y-113758961D01*
X145470277Y-113757060D01*
X145472803Y-113755277D01*
X145475421Y-113753614D01*
X145478126Y-113752077D01*
X145480915Y-113750668D01*
X145483784Y-113749391D01*
X145486728Y-113748251D01*
X145489745Y-113747251D01*
X145492831Y-113746394D01*
X145495982Y-113745684D01*
X145499194Y-113745126D01*
X145502463Y-113744722D01*
X145505786Y-113744478D01*
X145509157Y-113744395D01*
X145512251Y-113744482D01*
G37*
G36*
X147033638Y-112316647D02*
G01*
X147035743Y-112316809D01*
X147037866Y-112317076D01*
X147040006Y-112317444D01*
X147042157Y-112317910D01*
X147044315Y-112318471D01*
X147046477Y-112319124D01*
X147048638Y-112319865D01*
X147050795Y-112320692D01*
X147052943Y-112321601D01*
X147057197Y-112323652D01*
X147061368Y-112325995D01*
X147065424Y-112328603D01*
X147069332Y-112331450D01*
X147073060Y-112334512D01*
X147076575Y-112337764D01*
X147079846Y-112341179D01*
X147082841Y-112344733D01*
X147084224Y-112346554D01*
X147085526Y-112348400D01*
X147086742Y-112350268D01*
X147087869Y-112352154D01*
X147088903Y-112354056D01*
X147089839Y-112355971D01*
X147359192Y-112956110D01*
X147630121Y-112355971D01*
X147632091Y-112352154D01*
X147634435Y-112348400D01*
X147637120Y-112344733D01*
X147640114Y-112341179D01*
X147643385Y-112337764D01*
X147646901Y-112334513D01*
X147650628Y-112331450D01*
X147654536Y-112328603D01*
X147658592Y-112325995D01*
X147662763Y-112323653D01*
X147667017Y-112321601D01*
X147671322Y-112319865D01*
X147675645Y-112318471D01*
X147679954Y-112317444D01*
X147682094Y-112317076D01*
X147684218Y-112316809D01*
X147686322Y-112316647D01*
X147688402Y-112316592D01*
X147691775Y-112316674D01*
X147695098Y-112316919D01*
X147698367Y-112317323D01*
X147701579Y-112317881D01*
X147704730Y-112318590D01*
X147707815Y-112319447D01*
X147710833Y-112320448D01*
X147713777Y-112321588D01*
X147716646Y-112322865D01*
X147719435Y-112324274D01*
X147722140Y-112325811D01*
X147724757Y-112327474D01*
X147727284Y-112329257D01*
X147729716Y-112331158D01*
X147732049Y-112333173D01*
X147734279Y-112335297D01*
X147736404Y-112337528D01*
X147738418Y-112339861D01*
X147740319Y-112342292D01*
X147742103Y-112344819D01*
X147743765Y-112347436D01*
X147745303Y-112350141D01*
X147746712Y-112352930D01*
X147747988Y-112355799D01*
X147749128Y-112358743D01*
X147750129Y-112361761D01*
X147750986Y-112364846D01*
X147751695Y-112367997D01*
X147752254Y-112371209D01*
X147752657Y-112374478D01*
X147752902Y-112377801D01*
X147752984Y-112381174D01*
X147752907Y-112384330D01*
X147752664Y-112387819D01*
X147752475Y-112389653D01*
X147752237Y-112391529D01*
X147751948Y-112393433D01*
X147751606Y-112395350D01*
X147751209Y-112397268D01*
X147750754Y-112399171D01*
X147750239Y-112401047D01*
X147749662Y-112402882D01*
X147749020Y-112404660D01*
X147748311Y-112406370D01*
X147747533Y-112407997D01*
X147746684Y-112409527D01*
X147419049Y-113137254D01*
X147417079Y-113141053D01*
X147414732Y-113144758D01*
X147412040Y-113148347D01*
X147409032Y-113151800D01*
X147405737Y-113155096D01*
X147402186Y-113158214D01*
X147398410Y-113161134D01*
X147394437Y-113163835D01*
X147390298Y-113166296D01*
X147386022Y-113168496D01*
X147381641Y-113170415D01*
X147377184Y-113172031D01*
X147372680Y-113173324D01*
X147368160Y-113174274D01*
X147363654Y-113174859D01*
X147359192Y-113175058D01*
X147357112Y-113175008D01*
X147355007Y-113174859D01*
X147352884Y-113174613D01*
X147350744Y-113174274D01*
X147348593Y-113173843D01*
X147346435Y-113173324D01*
X147344273Y-113172719D01*
X147342112Y-113172031D01*
X147339955Y-113171262D01*
X147337807Y-113170415D01*
X147333553Y-113168496D01*
X147329382Y-113166296D01*
X147325326Y-113163835D01*
X147321418Y-113161134D01*
X147317690Y-113158214D01*
X147314175Y-113155096D01*
X147312507Y-113153469D01*
X147310904Y-113151800D01*
X147309370Y-113150092D01*
X147307909Y-113148347D01*
X147306526Y-113146568D01*
X147305224Y-113144758D01*
X147304008Y-113142919D01*
X147302881Y-113141053D01*
X147301847Y-113139164D01*
X147300911Y-113137254D01*
X146971701Y-112409527D01*
X146971129Y-112407997D01*
X146970594Y-112406370D01*
X146970095Y-112404661D01*
X146969634Y-112402882D01*
X146969209Y-112401047D01*
X146968821Y-112399171D01*
X146968157Y-112395350D01*
X146967640Y-112391529D01*
X146967271Y-112387819D01*
X146967049Y-112384330D01*
X146966975Y-112381174D01*
X146967053Y-112377801D01*
X146967285Y-112374478D01*
X146967666Y-112371209D01*
X146968194Y-112367997D01*
X146968865Y-112364846D01*
X146969675Y-112361761D01*
X146970622Y-112358744D01*
X146971701Y-112355799D01*
X146972909Y-112352930D01*
X146974244Y-112350142D01*
X146975700Y-112347436D01*
X146977276Y-112344819D01*
X146978966Y-112342292D01*
X146980769Y-112339861D01*
X146982680Y-112337528D01*
X146984696Y-112335297D01*
X146986814Y-112333173D01*
X146989029Y-112331158D01*
X146991340Y-112329257D01*
X146993741Y-112327474D01*
X146996230Y-112325811D01*
X146998804Y-112324274D01*
X147001458Y-112322865D01*
X147004189Y-112321588D01*
X147006994Y-112320448D01*
X147009870Y-112319447D01*
X147012812Y-112318590D01*
X147015818Y-112317881D01*
X147018884Y-112317323D01*
X147022007Y-112316919D01*
X147025182Y-112316674D01*
X147028407Y-112316592D01*
X147031558Y-112316592D01*
X147033638Y-112316647D01*
G37*
G36*
X148725594Y-113747633D02*
G01*
X148728661Y-113747890D01*
X148731701Y-113748314D01*
X148734707Y-113748899D01*
X148737675Y-113749642D01*
X148740600Y-113750536D01*
X148743478Y-113751578D01*
X148746302Y-113752763D01*
X148749069Y-113754087D01*
X148751773Y-113755545D01*
X148754410Y-113757131D01*
X148756975Y-113758843D01*
X148759462Y-113760674D01*
X148761867Y-113762621D01*
X148764185Y-113764678D01*
X148766410Y-113766841D01*
X148768539Y-113769107D01*
X148770566Y-113771469D01*
X148772487Y-113773923D01*
X148774295Y-113776465D01*
X148775988Y-113779090D01*
X148777558Y-113781793D01*
X148779003Y-113784571D01*
X148780316Y-113787417D01*
X148781493Y-113790328D01*
X148782529Y-113793299D01*
X148783419Y-113796326D01*
X148784159Y-113799403D01*
X148784742Y-113802527D01*
X148785165Y-113805692D01*
X148785422Y-113808893D01*
X148785509Y-113812128D01*
X148785509Y-113813703D01*
X148785509Y-114209071D01*
X148785211Y-114233234D01*
X148784303Y-114256695D01*
X148782768Y-114279455D01*
X148780587Y-114301514D01*
X148777741Y-114322871D01*
X148774212Y-114343526D01*
X148769982Y-114363481D01*
X148765032Y-114382733D01*
X148759344Y-114401285D01*
X148752898Y-114419135D01*
X148745678Y-114436283D01*
X148737664Y-114452730D01*
X148728837Y-114468476D01*
X148719180Y-114483520D01*
X148708674Y-114497862D01*
X148697300Y-114511504D01*
X148685122Y-114523987D01*
X148672239Y-114535464D01*
X148658681Y-114545962D01*
X148644482Y-114555510D01*
X148629674Y-114564135D01*
X148614289Y-114571865D01*
X148598360Y-114578727D01*
X148581918Y-114584749D01*
X148564997Y-114589959D01*
X148547628Y-114594385D01*
X148529843Y-114598053D01*
X148511676Y-114600993D01*
X148493157Y-114603231D01*
X148474321Y-114604796D01*
X148455198Y-114605714D01*
X148435821Y-114606014D01*
X148416480Y-114605732D01*
X148397454Y-114604863D01*
X148378766Y-114603377D01*
X148360435Y-114601239D01*
X148342482Y-114598419D01*
X148324929Y-114594883D01*
X148307795Y-114590600D01*
X148291102Y-114585537D01*
X148274871Y-114579661D01*
X148259122Y-114572941D01*
X148243876Y-114565345D01*
X148229154Y-114556839D01*
X148214976Y-114547392D01*
X148201364Y-114536971D01*
X148188338Y-114525544D01*
X148175918Y-114513079D01*
X148164267Y-114499714D01*
X148153518Y-114485609D01*
X148143650Y-114470760D01*
X148134644Y-114455167D01*
X148126477Y-114438826D01*
X148119129Y-114421734D01*
X148112579Y-114403891D01*
X148106807Y-114385293D01*
X148101792Y-114365938D01*
X148097513Y-114345825D01*
X148093950Y-114324949D01*
X148091080Y-114303310D01*
X148088885Y-114280905D01*
X148087342Y-114257732D01*
X148086432Y-114233788D01*
X148086133Y-114209071D01*
X148086133Y-113813703D01*
X148086133Y-113812128D01*
X148086216Y-113808755D01*
X148086461Y-113805432D01*
X148086864Y-113802163D01*
X148087422Y-113798951D01*
X148088132Y-113795800D01*
X148088989Y-113792715D01*
X148089989Y-113789697D01*
X148091130Y-113786753D01*
X148092406Y-113783884D01*
X148093815Y-113781095D01*
X148095352Y-113778390D01*
X148097015Y-113775773D01*
X148098798Y-113773246D01*
X148100699Y-113770814D01*
X148102714Y-113768481D01*
X148104838Y-113766251D01*
X148107069Y-113764126D01*
X148109402Y-113762112D01*
X148111834Y-113760211D01*
X148114360Y-113758427D01*
X148116978Y-113756765D01*
X148119683Y-113755227D01*
X148122472Y-113753818D01*
X148125340Y-113752542D01*
X148128285Y-113751402D01*
X148131302Y-113750401D01*
X148134388Y-113749544D01*
X148137539Y-113748835D01*
X148140751Y-113748276D01*
X148144020Y-113747873D01*
X148147343Y-113747628D01*
X148150715Y-113747546D01*
X148154088Y-113747628D01*
X148157411Y-113747873D01*
X148160680Y-113748276D01*
X148163892Y-113748835D01*
X148167043Y-113749544D01*
X148170129Y-113750401D01*
X148173146Y-113751402D01*
X148176090Y-113752542D01*
X148178959Y-113753818D01*
X148181748Y-113755227D01*
X148184453Y-113756765D01*
X148187070Y-113758427D01*
X148189597Y-113760211D01*
X148192029Y-113762112D01*
X148194362Y-113764126D01*
X148196592Y-113766251D01*
X148198717Y-113768481D01*
X148200731Y-113770814D01*
X148202632Y-113773246D01*
X148204416Y-113775773D01*
X148206078Y-113778390D01*
X148207616Y-113781095D01*
X148209025Y-113783884D01*
X148210301Y-113786753D01*
X148211442Y-113789697D01*
X148212442Y-113792715D01*
X148213299Y-113795800D01*
X148214008Y-113798951D01*
X148214567Y-113802163D01*
X148214970Y-113805432D01*
X148215215Y-113808755D01*
X148215297Y-113812128D01*
X148213722Y-113813703D01*
X148213722Y-114209071D01*
X148213996Y-114230323D01*
X148214802Y-114250391D01*
X148216121Y-114269311D01*
X148217931Y-114287116D01*
X148220212Y-114303841D01*
X148222943Y-114319521D01*
X148226103Y-114334190D01*
X148229671Y-114347883D01*
X148233627Y-114360635D01*
X148237950Y-114372480D01*
X148242619Y-114383452D01*
X148247613Y-114393587D01*
X148252912Y-114402920D01*
X148258495Y-114411484D01*
X148264341Y-114419314D01*
X148270429Y-114426445D01*
X148276543Y-114432981D01*
X148283091Y-114439012D01*
X148290101Y-114444549D01*
X148297600Y-114449605D01*
X148305616Y-114454189D01*
X148314176Y-114458314D01*
X148323309Y-114461992D01*
X148333042Y-114465233D01*
X148343402Y-114468050D01*
X148354417Y-114470454D01*
X148366116Y-114472456D01*
X148378525Y-114474069D01*
X148391672Y-114475303D01*
X148405586Y-114476170D01*
X148420293Y-114476682D01*
X148435822Y-114476850D01*
X148451073Y-114476647D01*
X148465541Y-114476038D01*
X148479251Y-114475023D01*
X148492232Y-114473601D01*
X148504512Y-114471774D01*
X148516118Y-114469540D01*
X148527079Y-114466901D01*
X148537420Y-114463855D01*
X148547171Y-114460403D01*
X148556359Y-114456545D01*
X148565012Y-114452281D01*
X148573157Y-114447611D01*
X148580822Y-114442535D01*
X148588035Y-114437052D01*
X148594823Y-114431164D01*
X148601215Y-114424869D01*
X148607043Y-114417721D01*
X148612696Y-114409847D01*
X148618146Y-114401220D01*
X148623365Y-114391815D01*
X148628326Y-114381608D01*
X148633001Y-114370572D01*
X148637362Y-114358682D01*
X148641382Y-114345914D01*
X148645032Y-114332241D01*
X148648285Y-114317638D01*
X148651114Y-114302079D01*
X148653491Y-114285540D01*
X148655387Y-114267995D01*
X148656776Y-114249419D01*
X148657630Y-114229786D01*
X148657921Y-114209071D01*
X148657921Y-113813703D01*
X148657921Y-113812128D01*
X148658003Y-113808755D01*
X148658248Y-113805432D01*
X148658652Y-113802163D01*
X148659210Y-113798951D01*
X148659919Y-113795800D01*
X148660776Y-113792715D01*
X148661777Y-113789697D01*
X148662917Y-113786753D01*
X148664194Y-113783884D01*
X148665602Y-113781095D01*
X148667140Y-113778390D01*
X148668802Y-113775773D01*
X148670586Y-113773246D01*
X148672487Y-113770814D01*
X148674502Y-113768481D01*
X148676626Y-113766251D01*
X148678857Y-113764126D01*
X148681190Y-113762112D01*
X148683621Y-113760211D01*
X148686148Y-113758427D01*
X148688765Y-113756765D01*
X148691471Y-113755227D01*
X148694259Y-113753818D01*
X148697128Y-113752542D01*
X148700073Y-113751402D01*
X148703090Y-113750401D01*
X148706175Y-113749544D01*
X148709326Y-113748835D01*
X148712538Y-113748276D01*
X148715807Y-113747873D01*
X148719130Y-113747628D01*
X148722503Y-113747546D01*
X148725594Y-113747633D01*
G37*
G36*
X144505575Y-112706451D02*
G01*
X144506570Y-112734011D01*
X144508147Y-112748188D01*
X144506570Y-112760789D01*
X144505575Y-112788332D01*
X144503774Y-112814849D01*
X144501175Y-112840352D01*
X144497784Y-112864849D01*
X144493609Y-112888349D01*
X144488656Y-112910861D01*
X144482933Y-112932395D01*
X144476445Y-112952960D01*
X144469201Y-112972565D01*
X144461208Y-112991219D01*
X144452471Y-113008932D01*
X144442998Y-113025713D01*
X144432796Y-113041570D01*
X144421871Y-113056515D01*
X144410232Y-113070554D01*
X144397884Y-113083699D01*
X144384583Y-113096406D01*
X144370706Y-113107975D01*
X144356303Y-113118451D01*
X144341424Y-113127877D01*
X144326121Y-113136297D01*
X144310444Y-113143755D01*
X144294443Y-113150294D01*
X144278171Y-113155959D01*
X144261677Y-113160794D01*
X144245013Y-113164841D01*
X144228228Y-113168146D01*
X144211374Y-113170751D01*
X144194502Y-113172701D01*
X144177662Y-113174040D01*
X144160905Y-113174811D01*
X144144282Y-113175058D01*
X144127694Y-113174776D01*
X144111037Y-113173908D01*
X144094353Y-113172421D01*
X144077682Y-113170284D01*
X144061066Y-113167463D01*
X144044548Y-113163928D01*
X144028168Y-113159644D01*
X144011968Y-113154581D01*
X143995989Y-113148706D01*
X143980274Y-113141986D01*
X143964863Y-113134389D01*
X143949798Y-113125884D01*
X143935121Y-113116436D01*
X143920873Y-113106015D01*
X143907095Y-113094589D01*
X143893830Y-113082123D01*
X143891783Y-113079966D01*
X143889785Y-113077641D01*
X143887846Y-113075163D01*
X143885979Y-113072549D01*
X143884195Y-113069815D01*
X143882506Y-113066978D01*
X143880923Y-113064052D01*
X143879457Y-113061056D01*
X143878121Y-113058003D01*
X143876925Y-113054912D01*
X143875882Y-113051797D01*
X143875002Y-113048676D01*
X143874298Y-113045563D01*
X143873781Y-113042477D01*
X143873462Y-113039431D01*
X143873353Y-113036444D01*
X143873435Y-113033071D01*
X143873680Y-113029748D01*
X143874082Y-113026479D01*
X143874639Y-113023267D01*
X143875346Y-113020116D01*
X143876198Y-113017030D01*
X143877192Y-113014013D01*
X143878325Y-113011069D01*
X143879591Y-113008200D01*
X143880987Y-113005411D01*
X143882508Y-113002706D01*
X143884152Y-113000089D01*
X143885913Y-112997562D01*
X143887787Y-112995130D01*
X143889772Y-112992797D01*
X143891862Y-112990567D01*
X143894053Y-112988442D01*
X143896342Y-112986428D01*
X143898724Y-112984527D01*
X143901196Y-112982743D01*
X143903753Y-112981081D01*
X143906391Y-112979543D01*
X143909107Y-112978134D01*
X143911896Y-112976858D01*
X143914754Y-112975718D01*
X143917677Y-112974717D01*
X143920662Y-112973860D01*
X143923703Y-112973151D01*
X143926798Y-112972592D01*
X143929942Y-112972189D01*
X143933131Y-112971944D01*
X143936360Y-112971862D01*
X143939365Y-112971953D01*
X143942461Y-112972222D01*
X143945625Y-112972661D01*
X143948838Y-112973265D01*
X143952079Y-112974025D01*
X143955326Y-112974935D01*
X143958560Y-112975988D01*
X143961759Y-112977178D01*
X143964903Y-112978496D01*
X143967971Y-112979937D01*
X143970942Y-112981494D01*
X143973795Y-112983159D01*
X143976509Y-112984925D01*
X143979065Y-112986786D01*
X143981440Y-112988734D01*
X143983615Y-112990764D01*
X143991424Y-112998132D01*
X143999499Y-113004891D01*
X144007846Y-113011059D01*
X144016472Y-113016655D01*
X144025384Y-113021698D01*
X144034589Y-113026205D01*
X144044094Y-113030195D01*
X144053907Y-113033687D01*
X144064032Y-113036699D01*
X144074479Y-113039249D01*
X144085253Y-113041357D01*
X144096362Y-113043039D01*
X144107813Y-113044316D01*
X144119611Y-113045205D01*
X144131766Y-113045725D01*
X144144282Y-113045894D01*
X144157093Y-113045743D01*
X144169540Y-113045276D01*
X144181627Y-113044472D01*
X144193358Y-113043310D01*
X144204739Y-113041770D01*
X144215774Y-113039831D01*
X144226467Y-113037471D01*
X144236823Y-113034671D01*
X144246847Y-113031410D01*
X144256543Y-113027666D01*
X144265917Y-113023419D01*
X144274972Y-113018649D01*
X144283713Y-113013334D01*
X144292145Y-113007454D01*
X144300272Y-113000987D01*
X144308099Y-112993914D01*
X144313948Y-112987449D01*
X144319667Y-112980442D01*
X144325239Y-112972867D01*
X144330644Y-112964699D01*
X144335865Y-112955913D01*
X144340882Y-112946484D01*
X144345679Y-112936385D01*
X144350235Y-112925591D01*
X144354533Y-112914078D01*
X144358554Y-112901819D01*
X144362279Y-112888790D01*
X144365691Y-112874964D01*
X144368771Y-112860317D01*
X144371500Y-112844824D01*
X144373859Y-112828458D01*
X144375831Y-112811195D01*
X143848150Y-112811195D01*
X143844778Y-112811112D01*
X143841455Y-112810868D01*
X143838186Y-112810465D01*
X143834974Y-112809909D01*
X143831823Y-112809202D01*
X143828738Y-112808350D01*
X143825720Y-112807355D01*
X143822776Y-112806223D01*
X143819907Y-112804957D01*
X143817118Y-112803561D01*
X143814413Y-112802039D01*
X143811796Y-112800396D01*
X143809269Y-112798635D01*
X143806838Y-112796760D01*
X143804505Y-112794776D01*
X143802274Y-112792686D01*
X143800150Y-112790495D01*
X143798135Y-112788206D01*
X143796234Y-112785824D01*
X143794450Y-112783352D01*
X143792788Y-112780795D01*
X143791251Y-112778157D01*
X143789842Y-112775441D01*
X143788565Y-112772652D01*
X143787425Y-112769794D01*
X143786424Y-112766871D01*
X143785567Y-112763886D01*
X143784858Y-112760844D01*
X143784300Y-112757750D01*
X143783896Y-112754606D01*
X143783651Y-112751417D01*
X143783569Y-112748188D01*
X143784011Y-112719500D01*
X143785332Y-112691903D01*
X143786018Y-112683606D01*
X143915883Y-112683606D01*
X144375831Y-112683606D01*
X144374119Y-112666325D01*
X144371952Y-112649909D01*
X144369356Y-112634338D01*
X144366356Y-112619590D01*
X144362977Y-112605645D01*
X144359246Y-112592483D01*
X144355187Y-112580082D01*
X144350826Y-112568422D01*
X144346188Y-112557481D01*
X144341298Y-112547240D01*
X144336182Y-112537677D01*
X144330865Y-112528772D01*
X144325374Y-112520503D01*
X144319732Y-112512851D01*
X144313965Y-112505794D01*
X144308099Y-112499311D01*
X144300272Y-112492220D01*
X144292145Y-112485704D01*
X144283713Y-112479746D01*
X144274972Y-112474330D01*
X144265917Y-112469440D01*
X144256543Y-112465061D01*
X144246847Y-112461175D01*
X144236823Y-112457766D01*
X144226467Y-112454819D01*
X144215774Y-112452318D01*
X144204739Y-112450245D01*
X144193358Y-112448586D01*
X144181627Y-112447323D01*
X144169540Y-112446442D01*
X144157093Y-112445924D01*
X144144282Y-112445756D01*
X144131766Y-112445925D01*
X144119612Y-112446442D01*
X144107813Y-112447324D01*
X144096363Y-112448586D01*
X144085254Y-112450245D01*
X144074480Y-112452318D01*
X144064033Y-112454819D01*
X144053907Y-112457766D01*
X144044095Y-112461175D01*
X144034590Y-112465061D01*
X144025384Y-112469440D01*
X144016472Y-112474330D01*
X144007846Y-112479746D01*
X143999499Y-112485704D01*
X143991425Y-112492220D01*
X143983615Y-112499311D01*
X143977750Y-112505794D01*
X143971983Y-112512851D01*
X143966341Y-112520503D01*
X143960849Y-112528772D01*
X143955533Y-112537677D01*
X143950417Y-112547240D01*
X143945527Y-112557481D01*
X143940889Y-112568422D01*
X143936528Y-112580082D01*
X143932468Y-112592483D01*
X143928737Y-112605645D01*
X143925359Y-112619590D01*
X143922359Y-112634338D01*
X143919762Y-112649909D01*
X143917595Y-112666325D01*
X143915883Y-112683606D01*
X143786018Y-112683606D01*
X143787525Y-112665382D01*
X143790583Y-112639920D01*
X143794500Y-112615500D01*
X143799268Y-112592108D01*
X143804881Y-112569726D01*
X143811331Y-112548338D01*
X143818612Y-112527929D01*
X143826717Y-112508482D01*
X143835638Y-112489981D01*
X143845369Y-112472410D01*
X143855904Y-112455753D01*
X143867234Y-112439993D01*
X143879353Y-112425115D01*
X143892255Y-112411102D01*
X143905538Y-112398619D01*
X143919365Y-112387142D01*
X143933691Y-112376644D01*
X143948469Y-112367096D01*
X143963653Y-112358471D01*
X143979197Y-112350741D01*
X143995055Y-112343879D01*
X144011180Y-112337857D01*
X144027527Y-112332647D01*
X144044050Y-112328221D01*
X144060701Y-112324552D01*
X144077436Y-112321613D01*
X144094207Y-112319375D01*
X144110970Y-112317810D01*
X144127676Y-112316892D01*
X144144282Y-112316592D01*
X144161165Y-112316857D01*
X144178114Y-112317678D01*
X144195087Y-112319095D01*
X144212039Y-112321145D01*
X144228926Y-112323870D01*
X144245705Y-112327308D01*
X144262331Y-112331497D01*
X144278762Y-112336479D01*
X144294952Y-112342291D01*
X144310859Y-112348972D01*
X144326438Y-112356563D01*
X144341645Y-112365102D01*
X144356438Y-112374629D01*
X144370771Y-112385183D01*
X144384601Y-112396802D01*
X144397884Y-112409527D01*
X144410232Y-112422689D01*
X144421871Y-112436779D01*
X144432796Y-112451800D01*
X144442998Y-112467759D01*
X144452471Y-112484659D01*
X144461208Y-112502505D01*
X144469202Y-112521302D01*
X144476446Y-112541054D01*
X144482933Y-112561765D01*
X144488657Y-112583442D01*
X144493610Y-112606087D01*
X144497785Y-112629706D01*
X144501175Y-112654303D01*
X144503774Y-112679884D01*
X144504027Y-112683606D01*
X144505575Y-112706451D01*
G37*
G36*
X149874289Y-112800521D02*
G01*
X149872971Y-112828165D01*
X149870785Y-112854756D01*
X149867741Y-112880305D01*
X149863848Y-112904820D01*
X149859114Y-112928311D01*
X149853550Y-112950786D01*
X149847165Y-112972256D01*
X149839968Y-112992728D01*
X149831967Y-113012213D01*
X149823173Y-113030720D01*
X149813594Y-113048257D01*
X149803241Y-113064835D01*
X149792121Y-113080462D01*
X149780244Y-113095148D01*
X149767619Y-113108901D01*
X149754059Y-113121366D01*
X149739989Y-113132793D01*
X149725453Y-113143214D01*
X149710495Y-113152661D01*
X149695158Y-113161167D01*
X149679487Y-113168764D01*
X149663525Y-113175484D01*
X149647316Y-113181359D01*
X149630904Y-113186422D01*
X149614333Y-113190705D01*
X149597646Y-113194241D01*
X149580888Y-113197061D01*
X149564103Y-113199199D01*
X149547333Y-113200686D01*
X149530623Y-113201554D01*
X149514017Y-113201836D01*
X149497135Y-113201572D01*
X149480185Y-113200753D01*
X149463213Y-113199344D01*
X149446261Y-113197308D01*
X149429373Y-113194606D01*
X149412595Y-113191204D01*
X149395968Y-113187063D01*
X149379538Y-113182147D01*
X149363347Y-113176418D01*
X149347440Y-113169841D01*
X149331861Y-113162377D01*
X149316654Y-113153990D01*
X149301862Y-113144644D01*
X149287529Y-113134301D01*
X149273699Y-113122924D01*
X149260416Y-113110476D01*
X149257265Y-113107326D01*
X149257265Y-113112051D01*
X149257265Y-113113626D01*
X149257183Y-113116999D01*
X149256938Y-113120322D01*
X149256534Y-113123591D01*
X149255976Y-113126803D01*
X149255267Y-113129954D01*
X149254410Y-113133039D01*
X149253409Y-113136057D01*
X149252269Y-113139001D01*
X149250992Y-113141870D01*
X149249583Y-113144659D01*
X149248046Y-113147364D01*
X149246383Y-113149981D01*
X149244600Y-113152508D01*
X149242699Y-113154939D01*
X149240684Y-113157272D01*
X149238560Y-113159503D01*
X149236329Y-113161628D01*
X149233996Y-113163642D01*
X149231565Y-113165543D01*
X149229038Y-113167327D01*
X149226421Y-113168989D01*
X149223715Y-113170527D01*
X149220927Y-113171935D01*
X149218058Y-113173212D01*
X149215113Y-113174352D01*
X149212096Y-113175353D01*
X149209011Y-113176210D01*
X149205860Y-113176919D01*
X149202648Y-113177477D01*
X149199379Y-113177881D01*
X149196056Y-113178126D01*
X149192683Y-113178208D01*
X149189310Y-113178126D01*
X149185988Y-113177881D01*
X149182718Y-113177477D01*
X149179507Y-113176919D01*
X149176356Y-113176210D01*
X149173270Y-113175353D01*
X149170253Y-113174352D01*
X149167308Y-113173212D01*
X149164440Y-113171935D01*
X149161651Y-113170527D01*
X149158946Y-113168989D01*
X149156328Y-113167327D01*
X149153802Y-113165543D01*
X149151370Y-113163642D01*
X149149037Y-113161628D01*
X149146806Y-113159503D01*
X149144682Y-113157272D01*
X149142667Y-113154939D01*
X149140766Y-113152508D01*
X149138983Y-113149981D01*
X149137320Y-113147364D01*
X149135783Y-113144659D01*
X149134374Y-113141870D01*
X149133097Y-113139001D01*
X149131957Y-113136057D01*
X149130957Y-113133039D01*
X149130100Y-113129954D01*
X149129390Y-113126803D01*
X149128832Y-113123591D01*
X149128429Y-113120322D01*
X149128184Y-113116999D01*
X149128101Y-113113626D01*
X149128101Y-113112051D01*
X149128101Y-112771815D01*
X149280892Y-112771815D01*
X149281238Y-112796743D01*
X149282258Y-112820172D01*
X149283924Y-112842151D01*
X149286209Y-112862732D01*
X149289084Y-112881965D01*
X149292521Y-112899902D01*
X149296495Y-112916593D01*
X149300976Y-112932088D01*
X149305937Y-112946440D01*
X149311350Y-112959697D01*
X149317187Y-112971911D01*
X149323422Y-112983134D01*
X149330026Y-112993415D01*
X149336971Y-113002805D01*
X149344230Y-113011355D01*
X149351775Y-113019116D01*
X149359342Y-113026467D01*
X149367274Y-113033176D01*
X149375566Y-113039267D01*
X149384213Y-113044762D01*
X149393211Y-113049685D01*
X149402556Y-113054059D01*
X149412241Y-113057907D01*
X149422264Y-113061252D01*
X149432618Y-113064117D01*
X149443301Y-113066525D01*
X149454306Y-113068500D01*
X149465630Y-113070063D01*
X149477268Y-113071239D01*
X149489214Y-113072051D01*
X149501466Y-113072521D01*
X149514017Y-113072672D01*
X149526568Y-113072486D01*
X149538820Y-113071918D01*
X149550767Y-113070959D01*
X149562404Y-113069596D01*
X149573728Y-113067817D01*
X149584733Y-113065612D01*
X149595416Y-113062968D01*
X149605771Y-113059874D01*
X149615793Y-113056319D01*
X149625479Y-113052290D01*
X149634823Y-113047778D01*
X149643821Y-113042769D01*
X149652468Y-113037252D01*
X149660760Y-113031216D01*
X149668692Y-113024650D01*
X149676259Y-113017541D01*
X149683527Y-113009763D01*
X149690543Y-113001168D01*
X149697278Y-112991715D01*
X149703702Y-112981362D01*
X149709783Y-112970067D01*
X149715494Y-112957790D01*
X149720803Y-112944488D01*
X149725680Y-112930120D01*
X149730096Y-112914644D01*
X149734021Y-112898019D01*
X149737424Y-112880204D01*
X149740275Y-112861157D01*
X149742545Y-112840836D01*
X149744204Y-112819200D01*
X149745221Y-112796207D01*
X149745567Y-112771815D01*
X149745203Y-112747424D01*
X149744136Y-112724431D01*
X149742400Y-112702795D01*
X149740029Y-112682474D01*
X149737058Y-112663426D01*
X149733522Y-112645611D01*
X149729455Y-112628987D01*
X149724893Y-112613511D01*
X149719868Y-112599143D01*
X149714417Y-112585841D01*
X149708574Y-112573563D01*
X149702373Y-112562269D01*
X149695848Y-112551916D01*
X149689036Y-112542462D01*
X149681970Y-112533867D01*
X149674684Y-112526089D01*
X149667134Y-112518981D01*
X149659252Y-112512414D01*
X149651038Y-112506378D01*
X149642492Y-112500862D01*
X149633613Y-112495853D01*
X149624402Y-112491340D01*
X149614859Y-112487312D01*
X149604983Y-112483757D01*
X149594775Y-112480663D01*
X149584235Y-112478019D01*
X149573363Y-112475813D01*
X149562158Y-112474035D01*
X149550621Y-112472672D01*
X149538752Y-112471712D01*
X149526551Y-112471145D01*
X149514017Y-112470958D01*
X149501466Y-112471145D01*
X149489214Y-112471712D01*
X149477268Y-112472671D01*
X149465630Y-112474035D01*
X149454306Y-112475813D01*
X149443301Y-112478019D01*
X149432618Y-112480663D01*
X149422264Y-112483756D01*
X149412241Y-112487312D01*
X149402556Y-112491340D01*
X149393212Y-112495853D01*
X149384214Y-112500862D01*
X149375566Y-112506378D01*
X149367274Y-112512414D01*
X149359342Y-112518980D01*
X149351775Y-112526089D01*
X149344230Y-112533850D01*
X149336971Y-112542398D01*
X149330026Y-112551781D01*
X149323422Y-112562047D01*
X149317187Y-112573246D01*
X149311350Y-112585425D01*
X149305937Y-112598634D01*
X149300976Y-112612920D01*
X149296495Y-112628332D01*
X149292521Y-112644919D01*
X149289084Y-112662728D01*
X149286209Y-112681809D01*
X149283924Y-112702210D01*
X149282258Y-112723979D01*
X149281238Y-112747164D01*
X149280892Y-112771815D01*
X149128101Y-112771815D01*
X149128101Y-112089768D01*
X149128184Y-112086395D01*
X149128429Y-112083072D01*
X149128832Y-112079803D01*
X149129390Y-112076591D01*
X149130100Y-112073441D01*
X149130957Y-112070355D01*
X149131957Y-112067338D01*
X149133097Y-112064393D01*
X149134374Y-112061524D01*
X149135783Y-112058736D01*
X149137320Y-112056031D01*
X149138983Y-112053413D01*
X149140766Y-112050886D01*
X149142667Y-112048455D01*
X149144682Y-112046122D01*
X149146806Y-112043891D01*
X149149037Y-112041767D01*
X149151370Y-112039752D01*
X149153802Y-112037851D01*
X149156328Y-112036068D01*
X149158946Y-112034405D01*
X149161651Y-112032868D01*
X149164440Y-112031459D01*
X149167308Y-112030182D01*
X149170253Y-112029042D01*
X149173270Y-112028041D01*
X149176356Y-112027185D01*
X149179507Y-112026475D01*
X149182718Y-112025917D01*
X149185988Y-112025513D01*
X149189310Y-112025268D01*
X149192683Y-112025186D01*
X149194258Y-112025186D01*
X149197488Y-112025273D01*
X149200677Y-112025531D01*
X149203820Y-112025954D01*
X149206915Y-112026540D01*
X149209957Y-112027282D01*
X149212941Y-112028176D01*
X149215864Y-112029219D01*
X149218723Y-112030404D01*
X149221511Y-112031727D01*
X149224227Y-112033185D01*
X149226866Y-112034772D01*
X149229423Y-112036483D01*
X149231894Y-112038314D01*
X149234277Y-112040261D01*
X149236565Y-112042318D01*
X149238757Y-112044482D01*
X149240847Y-112046747D01*
X149242831Y-112049109D01*
X149244705Y-112051563D01*
X149246466Y-112054105D01*
X149248110Y-112056730D01*
X149249631Y-112059434D01*
X149251027Y-112062211D01*
X149252293Y-112065057D01*
X149253426Y-112067969D01*
X149254420Y-112070940D01*
X149255272Y-112073966D01*
X149255979Y-112077043D01*
X149256536Y-112080167D01*
X149256938Y-112083332D01*
X149257183Y-112086534D01*
X149257265Y-112089768D01*
X149257265Y-112439455D01*
X149260415Y-112436305D01*
X149273699Y-112423580D01*
X149287529Y-112411961D01*
X149301862Y-112401407D01*
X149316654Y-112391880D01*
X149331861Y-112383341D01*
X149347440Y-112375750D01*
X149363347Y-112369068D01*
X149379537Y-112363256D01*
X149395968Y-112358275D01*
X149412594Y-112354085D01*
X149429373Y-112350648D01*
X149446261Y-112347923D01*
X149463212Y-112345872D01*
X149480185Y-112344456D01*
X149497135Y-112343635D01*
X149514017Y-112343370D01*
X149530605Y-112343635D01*
X149547262Y-112344456D01*
X149563947Y-112345872D01*
X149580617Y-112347923D01*
X149597233Y-112350648D01*
X149613751Y-112354085D01*
X149630131Y-112358275D01*
X149646331Y-112363256D01*
X149662310Y-112369068D01*
X149678025Y-112375750D01*
X149693436Y-112383341D01*
X149708501Y-112391880D01*
X149723178Y-112401407D01*
X149737426Y-112411961D01*
X149751204Y-112423580D01*
X149764469Y-112436305D01*
X149777388Y-112449798D01*
X149789558Y-112464289D01*
X149800966Y-112479776D01*
X149811601Y-112496260D01*
X149821451Y-112513740D01*
X149830506Y-112532218D01*
X149838753Y-112551692D01*
X149846181Y-112572163D01*
X149852778Y-112593631D01*
X149858533Y-112616095D01*
X149863434Y-112639557D01*
X149867470Y-112664015D01*
X149870629Y-112689470D01*
X149872900Y-112715922D01*
X149874271Y-112743370D01*
X149874731Y-112771815D01*
X149874289Y-112800521D01*
G37*
G36*
X126927244Y-85168201D02*
G01*
X126924798Y-85169153D01*
X126927241Y-85168202D01*
X126929689Y-85167257D01*
X126929691Y-85167256D01*
X126929692Y-85167256D01*
X126927244Y-85168201D01*
G37*
G36*
X126808607Y-85223221D02*
G01*
X126806268Y-85224499D01*
X126803932Y-85225783D01*
X126806267Y-85224499D01*
X126808607Y-85223221D01*
G37*
G36*
X126990153Y-85146156D02*
G01*
X126987623Y-85146955D01*
X126985106Y-85147756D01*
X126987641Y-85146949D01*
X126990153Y-85146156D01*
G37*
G36*
X127258536Y-85100143D02*
G01*
X127263104Y-85099988D01*
X127263107Y-85099988D01*
X127258536Y-85100143D01*
G37*
G36*
X128309251Y-86165880D02*
G01*
X128305528Y-86215919D01*
X128299366Y-86265532D01*
X128290797Y-86314637D01*
X128279858Y-86363150D01*
X128266583Y-86410989D01*
X128251006Y-86458068D01*
X128233162Y-86504306D01*
X128213084Y-86549620D01*
X128190809Y-86593925D01*
X128166369Y-86637138D01*
X128139800Y-86679177D01*
X128111136Y-86719958D01*
X128080412Y-86759398D01*
X128047662Y-86797413D01*
X128012920Y-86833920D01*
X127976413Y-86868662D01*
X127938398Y-86901412D01*
X127898958Y-86932136D01*
X127858177Y-86960800D01*
X127816138Y-86987369D01*
X127772925Y-87011808D01*
X127728620Y-87034084D01*
X127683306Y-87054161D01*
X127637068Y-87072006D01*
X127589989Y-87087583D01*
X127542151Y-87100858D01*
X127493638Y-87111797D01*
X127444533Y-87120365D01*
X127394919Y-87126528D01*
X127344881Y-87130251D01*
X127294500Y-87131500D01*
X127244120Y-87130251D01*
X127194081Y-87126528D01*
X127144468Y-87120365D01*
X127095363Y-87111797D01*
X127046850Y-87100858D01*
X126999011Y-87087583D01*
X126951932Y-87072006D01*
X126905694Y-87054161D01*
X126860380Y-87034084D01*
X126816075Y-87011808D01*
X126772862Y-86987369D01*
X126730823Y-86960800D01*
X126690042Y-86932136D01*
X126650602Y-86901412D01*
X126612587Y-86868662D01*
X126576080Y-86833920D01*
X126541338Y-86797413D01*
X126508588Y-86759398D01*
X126477864Y-86719958D01*
X126449200Y-86679177D01*
X126422631Y-86637138D01*
X126398192Y-86593925D01*
X126375916Y-86549619D01*
X126355839Y-86504306D01*
X126337994Y-86458068D01*
X126322417Y-86410988D01*
X126309142Y-86363150D01*
X126298203Y-86314637D01*
X126289635Y-86265532D01*
X126283472Y-86215919D01*
X126279749Y-86165880D01*
X126278500Y-86115500D01*
X126373750Y-86115500D01*
X126374882Y-86161157D01*
X126378256Y-86206505D01*
X126383841Y-86251467D01*
X126391606Y-86295968D01*
X126401519Y-86339933D01*
X126413550Y-86383286D01*
X126427667Y-86425952D01*
X126443838Y-86467856D01*
X126462033Y-86508921D01*
X126482221Y-86549072D01*
X126504369Y-86588235D01*
X126528447Y-86626332D01*
X126554424Y-86663290D01*
X126582267Y-86699032D01*
X126611947Y-86733484D01*
X126643432Y-86766568D01*
X126676516Y-86798053D01*
X126710968Y-86827733D01*
X126746710Y-86855576D01*
X126783668Y-86881553D01*
X126821765Y-86905631D01*
X126860928Y-86927779D01*
X126901079Y-86947967D01*
X126942144Y-86966162D01*
X126984048Y-86982333D01*
X127026714Y-86996450D01*
X127070067Y-87008481D01*
X127114032Y-87018394D01*
X127158533Y-87026159D01*
X127203495Y-87031744D01*
X127248843Y-87035118D01*
X127294500Y-87036250D01*
X127340157Y-87035118D01*
X127385505Y-87031744D01*
X127430467Y-87026159D01*
X127474968Y-87018394D01*
X127518933Y-87008481D01*
X127562286Y-86996450D01*
X127604952Y-86982333D01*
X127646856Y-86966162D01*
X127687921Y-86947967D01*
X127728072Y-86927779D01*
X127767235Y-86905631D01*
X127805333Y-86881553D01*
X127842290Y-86855576D01*
X127878033Y-86827733D01*
X127912484Y-86798053D01*
X127945569Y-86766568D01*
X127977053Y-86733484D01*
X128006733Y-86699032D01*
X128034577Y-86663290D01*
X128060553Y-86626332D01*
X128084631Y-86588235D01*
X128106780Y-86549072D01*
X128126967Y-86508921D01*
X128145162Y-86467856D01*
X128161334Y-86425952D01*
X128175450Y-86383286D01*
X128187481Y-86339933D01*
X128197394Y-86295968D01*
X128205159Y-86251467D01*
X128210744Y-86206505D01*
X128214118Y-86161157D01*
X128215250Y-86115500D01*
X128214118Y-86069843D01*
X128210744Y-86024495D01*
X128205159Y-85979533D01*
X128197394Y-85935032D01*
X128187481Y-85891067D01*
X128175450Y-85847713D01*
X128161334Y-85805047D01*
X128145162Y-85763144D01*
X128126967Y-85722079D01*
X128106780Y-85681927D01*
X128084631Y-85642765D01*
X128060553Y-85604667D01*
X128034576Y-85567710D01*
X128006733Y-85531967D01*
X127977053Y-85497516D01*
X127945568Y-85464431D01*
X127912484Y-85432947D01*
X127878032Y-85403267D01*
X127842290Y-85375423D01*
X127805332Y-85349447D01*
X127767235Y-85325369D01*
X127728072Y-85303220D01*
X127687921Y-85283033D01*
X127646856Y-85264838D01*
X127604952Y-85248666D01*
X127562286Y-85234550D01*
X127518933Y-85222519D01*
X127474968Y-85212605D01*
X127430467Y-85204841D01*
X127385505Y-85199256D01*
X127340157Y-85195882D01*
X127294500Y-85194750D01*
X127248843Y-85195882D01*
X127203495Y-85199256D01*
X127158533Y-85204841D01*
X127114032Y-85212605D01*
X127070067Y-85222519D01*
X127026714Y-85234550D01*
X126984048Y-85248666D01*
X126942144Y-85264838D01*
X126901079Y-85283033D01*
X126860928Y-85303220D01*
X126821765Y-85325369D01*
X126783668Y-85349447D01*
X126746710Y-85375423D01*
X126710968Y-85403267D01*
X126676516Y-85432947D01*
X126643432Y-85464431D01*
X126611947Y-85497516D01*
X126582267Y-85531967D01*
X126554424Y-85567710D01*
X126528447Y-85604667D01*
X126504369Y-85642765D01*
X126482221Y-85681928D01*
X126462033Y-85722079D01*
X126443838Y-85763144D01*
X126427667Y-85805047D01*
X126413550Y-85847713D01*
X126401519Y-85891067D01*
X126391606Y-85935032D01*
X126383841Y-85979533D01*
X126378256Y-86024495D01*
X126374882Y-86069842D01*
X126373750Y-86115500D01*
X126278500Y-86115500D01*
X126279749Y-86065119D01*
X126283472Y-86015081D01*
X126289635Y-85965467D01*
X126298203Y-85916362D01*
X126309142Y-85867849D01*
X126322417Y-85820011D01*
X126337994Y-85772932D01*
X126355839Y-85726693D01*
X126375916Y-85681380D01*
X126398192Y-85637075D01*
X126422631Y-85593861D01*
X126449200Y-85551823D01*
X126477864Y-85511042D01*
X126508588Y-85471602D01*
X126541338Y-85433587D01*
X126576080Y-85397079D01*
X126612587Y-85362338D01*
X126650602Y-85329588D01*
X126690042Y-85298864D01*
X126730823Y-85270200D01*
X126772862Y-85243631D01*
X126816075Y-85219191D01*
X126860380Y-85196916D01*
X126905694Y-85176838D01*
X126951932Y-85158994D01*
X126999012Y-85143417D01*
X127046850Y-85130141D01*
X127095363Y-85119202D01*
X127144468Y-85110634D01*
X127194081Y-85104472D01*
X127244120Y-85100749D01*
X127294500Y-85099500D01*
X127344881Y-85100749D01*
X127394919Y-85104472D01*
X127444533Y-85110634D01*
X127493637Y-85119202D01*
X127542151Y-85130141D01*
X127589989Y-85143417D01*
X127637068Y-85158994D01*
X127683306Y-85176838D01*
X127728620Y-85196916D01*
X127772925Y-85219191D01*
X127816138Y-85243631D01*
X127858177Y-85270200D01*
X127898958Y-85298864D01*
X127938398Y-85329588D01*
X127976413Y-85362338D01*
X128012921Y-85397079D01*
X128047662Y-85433587D01*
X128080412Y-85471602D01*
X128111136Y-85511042D01*
X128139800Y-85551823D01*
X128166369Y-85593862D01*
X128190809Y-85637075D01*
X128213084Y-85681380D01*
X128233162Y-85726693D01*
X128251006Y-85772932D01*
X128266583Y-85820011D01*
X128279859Y-85867849D01*
X128290797Y-85916362D01*
X128299366Y-85965467D01*
X128305528Y-86015081D01*
X128309251Y-86065119D01*
X128310500Y-86115500D01*
X128309251Y-86165880D01*
G37*
G36*
X126300318Y-85906090D02*
G01*
X126299772Y-85908699D01*
X126300315Y-85906102D01*
X126300867Y-85903501D01*
X126300318Y-85906090D01*
G37*
G36*
X127140866Y-85111184D02*
G01*
X127136781Y-85111822D01*
X127140882Y-85111181D01*
X127140866Y-85111184D01*
G37*
G36*
X126932199Y-85166295D02*
G01*
X126929715Y-85167247D01*
X126932190Y-85166298D01*
X126934684Y-85165349D01*
X126932199Y-85166295D01*
G37*
G36*
X126487762Y-85497901D02*
G01*
X126489976Y-85495026D01*
X126489976Y-85495025D01*
X126489977Y-85495025D01*
X126489977Y-85495024D01*
X126489978Y-85495024D01*
X126487762Y-85497901D01*
G37*
G36*
X126785330Y-85236298D02*
G01*
X126781582Y-85238479D01*
X126785332Y-85236296D01*
X126785330Y-85236298D01*
G37*
G36*
X126378207Y-85676574D02*
G01*
X126378207Y-85676575D01*
X126378206Y-85676575D01*
X126378207Y-85676573D01*
X126378207Y-85676574D01*
G37*
G36*
X126372520Y-85688650D02*
G01*
X126371404Y-85691071D01*
X126372515Y-85688660D01*
X126372520Y-85688650D01*
G37*
G36*
X126832218Y-85210765D02*
G01*
X126828434Y-85212707D01*
X126832224Y-85210761D01*
X126832218Y-85210765D01*
G37*
G36*
X127344881Y-85100749D02*
G01*
X127394919Y-85104472D01*
X127444533Y-85110634D01*
X127493637Y-85119202D01*
X127542151Y-85130141D01*
X127589989Y-85143417D01*
X127637068Y-85158994D01*
X127683306Y-85176838D01*
X127728620Y-85196916D01*
X127772925Y-85219191D01*
X127816138Y-85243631D01*
X127858177Y-85270200D01*
X127898958Y-85298864D01*
X127938398Y-85329588D01*
X127976413Y-85362338D01*
X128012921Y-85397079D01*
X128047662Y-85433587D01*
X128080412Y-85471602D01*
X128111136Y-85511042D01*
X128139800Y-85551823D01*
X128166369Y-85593862D01*
X128190809Y-85637075D01*
X128213084Y-85681380D01*
X128233162Y-85726693D01*
X128251006Y-85772932D01*
X128266583Y-85820011D01*
X128279859Y-85867849D01*
X128290797Y-85916362D01*
X128299366Y-85965467D01*
X128305528Y-86015081D01*
X128309251Y-86065119D01*
X128310500Y-86115500D01*
X128309251Y-86165880D01*
X128305528Y-86215919D01*
X128299366Y-86265532D01*
X128290797Y-86314637D01*
X128279858Y-86363150D01*
X128266583Y-86410989D01*
X128251006Y-86458068D01*
X128233162Y-86504306D01*
X128213084Y-86549620D01*
X128190809Y-86593925D01*
X128166369Y-86637138D01*
X128139800Y-86679177D01*
X128111136Y-86719958D01*
X128080412Y-86759398D01*
X128047662Y-86797413D01*
X128012920Y-86833920D01*
X127976413Y-86868662D01*
X127938398Y-86901412D01*
X127898958Y-86932136D01*
X127858177Y-86960800D01*
X127816138Y-86987369D01*
X127772925Y-87011808D01*
X127728620Y-87034084D01*
X127683306Y-87054161D01*
X127637068Y-87072006D01*
X127589989Y-87087583D01*
X127542151Y-87100858D01*
X127493638Y-87111797D01*
X127444533Y-87120365D01*
X127394919Y-87126528D01*
X127344881Y-87130251D01*
X127294500Y-87131500D01*
X127244120Y-87130251D01*
X127194081Y-87126528D01*
X127144468Y-87120365D01*
X127095363Y-87111797D01*
X127046850Y-87100858D01*
X126999011Y-87087583D01*
X126951932Y-87072006D01*
X126905694Y-87054161D01*
X126860380Y-87034084D01*
X126816075Y-87011808D01*
X126772862Y-86987369D01*
X126730823Y-86960800D01*
X126690042Y-86932136D01*
X126650602Y-86901412D01*
X126612587Y-86868662D01*
X126576080Y-86833920D01*
X126541338Y-86797413D01*
X126508588Y-86759398D01*
X126477864Y-86719958D01*
X126449200Y-86679177D01*
X126422631Y-86637138D01*
X126398192Y-86593925D01*
X126375916Y-86549619D01*
X126355839Y-86504306D01*
X126337994Y-86458068D01*
X126322417Y-86410988D01*
X126309142Y-86363150D01*
X126298203Y-86314637D01*
X126289635Y-86265532D01*
X126283472Y-86215919D01*
X126279749Y-86165880D01*
X126278500Y-86115500D01*
X127294500Y-86115500D01*
X127294500Y-85099500D01*
X127344881Y-85100749D01*
G37*
G36*
X126541333Y-85433601D02*
G01*
X126541330Y-85433603D01*
X126541337Y-85433596D01*
X126541333Y-85433601D01*
G37*
G36*
X126463394Y-85531109D02*
G01*
X126464592Y-85529406D01*
X126464599Y-85529397D01*
X126463394Y-85531109D01*
G37*
G36*
X126464602Y-85529393D02*
G01*
X126464599Y-85529397D01*
X126464605Y-85529388D01*
X126464602Y-85529393D01*
G37*
G36*
X126561692Y-85411765D02*
G01*
X126560176Y-85413346D01*
X126561689Y-85411767D01*
X126563208Y-85410189D01*
X126561692Y-85411765D01*
G37*
G36*
X126607155Y-85367297D02*
G01*
X126605199Y-85369099D01*
X126607143Y-85367307D01*
X126609103Y-85365511D01*
X126607155Y-85367297D01*
G37*
G36*
X126777839Y-85240679D02*
G01*
X126781580Y-85238480D01*
X126781582Y-85238479D01*
X126777839Y-85240679D01*
G37*
G36*
X126291957Y-85950704D02*
G01*
X126291105Y-85955967D01*
X126291957Y-85950700D01*
X126291957Y-85950704D01*
G37*
G36*
X127119828Y-85114627D02*
G01*
X127122435Y-85114177D01*
X127125014Y-85113740D01*
X127119828Y-85114627D01*
G37*
G36*
X127211475Y-85102903D02*
G01*
X127215125Y-85102608D01*
X127215132Y-85102608D01*
X127211475Y-85102903D01*
G37*
G36*
X126794588Y-85231003D02*
G01*
X126792298Y-85232299D01*
X126790014Y-85233599D01*
X126792305Y-85232294D01*
X126794588Y-85231003D01*
G37*
G36*
X126279214Y-86077591D02*
G01*
X126279399Y-86072811D01*
X126279399Y-86072807D01*
X126279399Y-86072804D01*
X126279399Y-86072802D01*
X126279399Y-86072800D01*
X126279399Y-86072799D01*
X126279400Y-86072797D01*
X126279214Y-86077591D01*
G37*
G36*
X126337213Y-85775124D02*
G01*
X126337213Y-85775125D01*
X126337212Y-85775127D01*
X126337212Y-85775129D01*
X126337211Y-85775131D01*
X126337210Y-85775132D01*
X126337213Y-85775124D01*
G37*
G36*
X126661898Y-85320472D02*
G01*
X126659234Y-85322602D01*
X126661918Y-85320455D01*
X126661898Y-85320472D01*
G37*
G36*
X126463067Y-85531573D02*
G01*
X126461535Y-85533761D01*
X126463061Y-85531581D01*
X126463067Y-85531573D01*
G37*
G36*
X126421015Y-85596583D02*
G01*
X126419689Y-85598822D01*
X126421026Y-85596563D01*
X126421015Y-85596583D01*
G37*
G36*
X127184003Y-85105528D02*
G01*
X127188537Y-85105042D01*
X127188541Y-85105042D01*
X127184003Y-85105528D01*
G37*
G36*
X127148808Y-85110003D02*
G01*
X127146170Y-85110389D01*
X127148799Y-85110004D01*
X127149895Y-85109846D01*
X127148808Y-85110003D01*
G37*
G36*
X127151436Y-85109625D02*
G01*
X127149895Y-85109846D01*
X127151447Y-85109623D01*
X127151436Y-85109625D01*
G37*
G36*
X126458481Y-85538160D02*
G01*
X126456972Y-85540348D01*
X126455474Y-85542531D01*
X126456979Y-85540337D01*
X126458481Y-85538160D01*
G37*
D10*
X143421080Y-104115499D02*
X143182985Y-104115499D01*
X143278223Y-104353594D02*
X143182985Y-104115499D01*
X143182985Y-104115499D02*
X143278223Y-103877404D01*
X142992509Y-104258356D02*
X143182985Y-104115499D01*
X143182985Y-104115499D02*
X142992509Y-103972642D01*
X142330719Y-104115500D02*
X142568814Y-104115500D01*
X142473576Y-103877405D02*
X142568814Y-104115500D01*
X142568814Y-104115500D02*
X142473576Y-104353595D01*
X142759290Y-103972643D02*
X142568814Y-104115500D01*
X142568814Y-104115500D02*
X142759290Y-104258357D01*
X132749319Y-93865500D02*
X132987414Y-93865500D01*
X132892176Y-93627405D02*
X132987414Y-93865500D01*
X132987414Y-93865500D02*
X132892176Y-94103595D01*
X133177890Y-93722643D02*
X132987414Y-93865500D01*
X132987414Y-93865500D02*
X133177890Y-94008357D01*
X133499319Y-93865500D02*
X133737414Y-93865500D01*
X133642176Y-93627405D02*
X133737414Y-93865500D01*
X133737414Y-93865500D02*
X133642176Y-94103595D01*
X133927890Y-93722643D02*
X133737414Y-93865500D01*
X133737414Y-93865500D02*
X133927890Y-94008357D01*
D13*
%TO.C,U200*%
X141910700Y-104022150D02*
X141910700Y-101964750D01*
X140561960Y-101964750D02*
X139906640Y-101964750D01*
X138557900Y-101964750D02*
X138557900Y-104022150D01*
D12*
%TO.C,U104*%
G36*
X137384999Y-98271802D02*
G01*
X137003999Y-98271802D01*
X137003999Y-98017802D01*
X137384999Y-98017802D01*
X137384999Y-98271802D01*
G37*
D13*
X139421500Y-97613401D02*
X139421500Y-94359401D01*
X134167500Y-94359401D02*
X134167500Y-97613401D01*
D14*
%TO.C,D201*%
X140344500Y-105475500D02*
X140104500Y-105145500D01*
X140584500Y-105145500D01*
X140344500Y-105475500D01*
G36*
X140344500Y-105475500D02*
G01*
X140104500Y-105145500D01*
X140584500Y-105145500D01*
X140344500Y-105475500D01*
G37*
X138564500Y-107775500D02*
X139974500Y-107775500D01*
X138564500Y-107775500D02*
X138564500Y-107115500D01*
X138564500Y-106115500D02*
X138564500Y-105455500D01*
X138564500Y-105455500D02*
X139974500Y-105455500D01*
D10*
%TO.C,X200*%
X162354500Y-110115500D02*
X162354500Y-101115500D01*
X162354500Y-101115500D02*
X151854500Y-101115500D01*
X151854500Y-110115500D02*
X162354500Y-110115500D01*
X151854500Y-108815500D02*
X151854500Y-110115500D01*
X151854500Y-102415500D02*
X151854500Y-101115500D01*
D14*
%TO.C,Q100*%
X138809500Y-93455500D02*
X138329500Y-93455500D01*
X138569500Y-93125500D01*
X138809500Y-93455500D01*
G36*
X138809500Y-93455500D02*
G01*
X138329500Y-93455500D01*
X138569500Y-93125500D01*
X138809500Y-93455500D01*
G37*
X140382000Y-93175500D02*
X139732000Y-93175500D01*
X140382000Y-90055500D02*
X139732000Y-90055500D01*
X139082000Y-93175500D02*
X139732000Y-93175500D01*
X139082000Y-90055500D02*
X139732000Y-90055500D01*
%TO.C,U105*%
X132004500Y-90265500D02*
X131644500Y-90265500D01*
X131644500Y-89905500D01*
X132004500Y-90265500D01*
G36*
X132004500Y-90265500D02*
G01*
X131644500Y-90265500D01*
X131644500Y-89905500D01*
X132004500Y-90265500D01*
G37*
D15*
X131644500Y-92815500D02*
X131644500Y-92965500D01*
X131494500Y-92975500D02*
X131644500Y-92975500D01*
X129094500Y-92965500D02*
X128944500Y-92965500D01*
X128944500Y-92815500D02*
X128944500Y-92965500D01*
X128944500Y-90415500D02*
X128944500Y-90265500D01*
X128944500Y-90265500D02*
X129094500Y-90265500D01*
D14*
%TO.C,J201*%
X157994500Y-86815500D02*
X155594500Y-86815500D01*
X157994500Y-84415500D02*
X157994500Y-86815500D01*
X155594500Y-86815500D02*
X155594500Y-84415500D01*
X155594500Y-84415500D02*
X157994500Y-84415500D01*
%TO.C,J202*%
X152327832Y-86815500D02*
X149927832Y-86815500D01*
X152327832Y-84415500D02*
X152327832Y-86815500D01*
X149927832Y-86815500D02*
X149927832Y-84415500D01*
X149927832Y-84415500D02*
X152327832Y-84415500D01*
%TO.C,D200*%
X147794500Y-102465500D02*
X147794500Y-106475500D01*
X145794500Y-106475500D02*
X147794500Y-106475500D01*
X145794500Y-102465500D02*
X145794500Y-106475500D01*
D13*
%TO.C,Q200*%
X147879400Y-111291900D02*
X147879400Y-110227640D01*
X147879400Y-109003360D02*
X147879400Y-107939100D01*
X147879400Y-107939100D02*
X145822000Y-107939100D01*
X145822000Y-111291900D02*
X147879400Y-111291900D01*
X145822000Y-109275140D02*
X145822000Y-109955860D01*
D14*
%TO.C,U202*%
X126122000Y-107905500D02*
X125642000Y-107905500D01*
X125882000Y-107575500D01*
X126122000Y-107905500D01*
G36*
X126122000Y-107905500D02*
G01*
X125642000Y-107905500D01*
X125882000Y-107575500D01*
X126122000Y-107905500D01*
G37*
X127982000Y-107625500D02*
X127182000Y-107625500D01*
X127982000Y-104505500D02*
X127182000Y-104505500D01*
X126382000Y-107625500D02*
X127182000Y-107625500D01*
X126382000Y-104505500D02*
X127182000Y-104505500D01*
%TO.C,J203*%
X146661166Y-86815500D02*
X144261166Y-86815500D01*
X146661166Y-84415500D02*
X146661166Y-86815500D01*
X144261166Y-86815500D02*
X144261166Y-84415500D01*
X144261166Y-84415500D02*
X146661166Y-84415500D01*
%TO.C,L200*%
X134154500Y-102766748D02*
X134154500Y-103289252D01*
X131934500Y-102766748D02*
X131934500Y-103289252D01*
%TO.C,Q101*%
X134434500Y-93455500D02*
X133954500Y-93455500D01*
X134194500Y-93125500D01*
X134434500Y-93455500D01*
G36*
X134434500Y-93455500D02*
G01*
X133954500Y-93455500D01*
X134194500Y-93125500D01*
X134434500Y-93455500D01*
G37*
X136007000Y-93175500D02*
X135357000Y-93175500D01*
X136007000Y-90055500D02*
X135357000Y-90055500D01*
X134707000Y-93175500D02*
X135357000Y-93175500D01*
X134707000Y-90055500D02*
X135357000Y-90055500D01*
%TO.C,D100*%
X153979500Y-87720500D02*
G75*
G02*
X159099500Y-87720500I2560000J0D01*
G01*
X159499500Y-93880500D02*
X159099500Y-93880500D01*
X159499500Y-92760500D02*
X159499500Y-93880500D01*
X159099500Y-93880500D02*
X159099500Y-92760500D01*
X159099500Y-93880500D02*
X153979500Y-93880500D01*
X159099500Y-92760500D02*
X159499500Y-92760500D01*
X159099500Y-87720500D02*
X159099500Y-93880500D01*
X157809500Y-94010500D02*
X157809500Y-94010500D01*
X157809500Y-94010500D02*
X157809500Y-93880500D01*
X157809500Y-93880500D02*
X157809500Y-94010500D01*
X157809500Y-93880500D02*
X157809500Y-93880500D01*
X155269500Y-94010500D02*
X155269500Y-94010500D01*
X155269500Y-94010500D02*
X155269500Y-93880500D01*
X155269500Y-93880500D02*
X155269500Y-94010500D01*
X155269500Y-93880500D02*
X155269500Y-93880500D01*
X153979500Y-87720500D02*
X153979500Y-93880500D01*
%TO.C,J204*%
X140994500Y-86815500D02*
X138594500Y-86815500D01*
X140994500Y-84415500D02*
X140994500Y-86815500D01*
X138594500Y-86815500D02*
X138594500Y-84415500D01*
X138594500Y-84415500D02*
X140994500Y-84415500D01*
D16*
%TO.C,U201*%
X135554500Y-103815504D02*
X136554498Y-103815504D01*
X135554500Y-101915502D02*
X136954500Y-101915502D01*
D14*
%TO.C,U100*%
X142394500Y-119365500D02*
X142394500Y-118265500D01*
X142394500Y-108665500D02*
X142394500Y-109765500D01*
X141294500Y-119365500D02*
X142394500Y-119365500D01*
X141294500Y-108665500D02*
X142394500Y-108665500D01*
X130244500Y-108415500D02*
X131344500Y-108415500D01*
X126694500Y-119365500D02*
X127794500Y-119365500D01*
X126694500Y-118265500D02*
X126694500Y-119365500D01*
X126694500Y-109765500D02*
X126694500Y-108665500D01*
X126694500Y-108665500D02*
X131344500Y-108665500D01*
%TO.C,J200*%
X159794500Y-117375500D02*
X156904500Y-117375500D01*
X158504500Y-119675500D02*
X154254500Y-119675500D01*
X158504500Y-118655500D02*
X158504500Y-119675500D01*
X158504500Y-112575500D02*
X158504500Y-111555500D01*
X158504500Y-111555500D02*
X154254500Y-111555500D01*
X156904500Y-118655500D02*
X158504500Y-118655500D01*
X156904500Y-117375500D02*
X156904500Y-118655500D01*
X156904500Y-113855500D02*
X156904500Y-112575500D01*
X156904500Y-112575500D02*
X158504500Y-112575500D01*
X150684500Y-113275500D02*
X150684500Y-117955500D01*
D17*
%TO.C,XTAL200*%
X127435919Y-90915500D02*
G75*
G02*
X127153081Y-90915500I-141419J0D01*
G01*
X127153081Y-90915500D02*
G75*
G02*
X127435919Y-90915500I141419J0D01*
G01*
D18*
X128044500Y-94055500D02*
X128044500Y-93175500D01*
X126544500Y-94055500D02*
X126544500Y-93175500D01*
D14*
%TO.C,D101*%
X135794500Y-88915500D02*
X135794500Y-84905500D01*
X135794500Y-84905500D02*
X133794500Y-84905500D01*
X133794500Y-88915500D02*
X133794500Y-84905500D01*
%TD*%
M02*
