%TF.GenerationSoftware,KiCad,Pcbnew,9.0.2+1*%
%TF.CreationDate,2025-07-26T13:52:59+01:00*%
%TF.ProjectId,DigiCron,44696769-4372-46f6-9e2e-6b696361645f,1*%
%TF.SameCoordinates,Original*%
%TF.FileFunction,Legend,Top*%
%TF.FilePolarity,Positive*%
%FSLAX46Y46*%
G04 Gerber Fmt 4.6, Leading zero omitted, Abs format (unit mm)*
G04 Created by KiCad (PCBNEW 9.0.2+1) date 2025-07-26 13:52:59*
%MOMM*%
%LPD*%
G01*
G04 APERTURE LIST*
%ADD10C,0.112500*%
%ADD11C,0.000000*%
%ADD12C,0.150000*%
%ADD13C,0.152400*%
%ADD14C,0.120000*%
%ADD15C,0.100000*%
G04 APERTURE END LIST*
D10*
X129888785Y-118448459D02*
X130003071Y-118496078D01*
X130003071Y-118496078D02*
X130041166Y-118543697D01*
X130041166Y-118543697D02*
X130079262Y-118638935D01*
X130079262Y-118638935D02*
X130079262Y-118781792D01*
X130079262Y-118781792D02*
X130041166Y-118877030D01*
X130041166Y-118877030D02*
X130003071Y-118924650D01*
X130003071Y-118924650D02*
X129926881Y-118972269D01*
X129926881Y-118972269D02*
X129622119Y-118972269D01*
X129622119Y-118972269D02*
X129622119Y-117972269D01*
X129622119Y-117972269D02*
X129888785Y-117972269D01*
X129888785Y-117972269D02*
X129964976Y-118019888D01*
X129964976Y-118019888D02*
X130003071Y-118067507D01*
X130003071Y-118067507D02*
X130041166Y-118162745D01*
X130041166Y-118162745D02*
X130041166Y-118257983D01*
X130041166Y-118257983D02*
X130003071Y-118353221D01*
X130003071Y-118353221D02*
X129964976Y-118400840D01*
X129964976Y-118400840D02*
X129888785Y-118448459D01*
X129888785Y-118448459D02*
X129622119Y-118448459D01*
X130384023Y-118686554D02*
X130764976Y-118686554D01*
X130307833Y-118972269D02*
X130574500Y-117972269D01*
X130574500Y-117972269D02*
X130841166Y-118972269D01*
X131564976Y-118877030D02*
X131526880Y-118924650D01*
X131526880Y-118924650D02*
X131412595Y-118972269D01*
X131412595Y-118972269D02*
X131336404Y-118972269D01*
X131336404Y-118972269D02*
X131222118Y-118924650D01*
X131222118Y-118924650D02*
X131145928Y-118829411D01*
X131145928Y-118829411D02*
X131107833Y-118734173D01*
X131107833Y-118734173D02*
X131069737Y-118543697D01*
X131069737Y-118543697D02*
X131069737Y-118400840D01*
X131069737Y-118400840D02*
X131107833Y-118210364D01*
X131107833Y-118210364D02*
X131145928Y-118115126D01*
X131145928Y-118115126D02*
X131222118Y-118019888D01*
X131222118Y-118019888D02*
X131336404Y-117972269D01*
X131336404Y-117972269D02*
X131412595Y-117972269D01*
X131412595Y-117972269D02*
X131526880Y-118019888D01*
X131526880Y-118019888D02*
X131564976Y-118067507D01*
X131907833Y-118972269D02*
X131907833Y-117972269D01*
X132364976Y-118972269D02*
X132022118Y-118400840D01*
X132364976Y-117972269D02*
X131907833Y-118543697D01*
X152557833Y-118972269D02*
X152557833Y-117972269D01*
X152557833Y-118448459D02*
X153014976Y-118448459D01*
X153014976Y-118972269D02*
X153014976Y-117972269D01*
X153548309Y-117972269D02*
X153700690Y-117972269D01*
X153700690Y-117972269D02*
X153776880Y-118019888D01*
X153776880Y-118019888D02*
X153853071Y-118115126D01*
X153853071Y-118115126D02*
X153891166Y-118305602D01*
X153891166Y-118305602D02*
X153891166Y-118638935D01*
X153891166Y-118638935D02*
X153853071Y-118829411D01*
X153853071Y-118829411D02*
X153776880Y-118924650D01*
X153776880Y-118924650D02*
X153700690Y-118972269D01*
X153700690Y-118972269D02*
X153548309Y-118972269D01*
X153548309Y-118972269D02*
X153472118Y-118924650D01*
X153472118Y-118924650D02*
X153395928Y-118829411D01*
X153395928Y-118829411D02*
X153357832Y-118638935D01*
X153357832Y-118638935D02*
X153357832Y-118305602D01*
X153357832Y-118305602D02*
X153395928Y-118115126D01*
X153395928Y-118115126D02*
X153472118Y-118019888D01*
X153472118Y-118019888D02*
X153548309Y-117972269D01*
X154234023Y-118972269D02*
X154234023Y-117972269D01*
X154234023Y-117972269D02*
X154500689Y-118686554D01*
X154500689Y-118686554D02*
X154767356Y-117972269D01*
X154767356Y-117972269D02*
X154767356Y-118972269D01*
X155148309Y-118448459D02*
X155414975Y-118448459D01*
X155529261Y-118972269D02*
X155148309Y-118972269D01*
X155148309Y-118972269D02*
X155148309Y-117972269D01*
X155148309Y-117972269D02*
X155529261Y-117972269D01*
D11*
G36*
X137202560Y-84769938D02*
G01*
X137229203Y-84772411D01*
X137256064Y-84776532D01*
X137283069Y-84782299D01*
X137310145Y-84789713D01*
X137337217Y-84798772D01*
X137364211Y-84809475D01*
X137391053Y-84821821D01*
X137417670Y-84835811D01*
X137443987Y-84851442D01*
X137469930Y-84868714D01*
X137495425Y-84887627D01*
X137520398Y-84908179D01*
X137544775Y-84930370D01*
X137568483Y-84954198D01*
X137591446Y-84979664D01*
X137613591Y-85006766D01*
X137634844Y-85035503D01*
X137655130Y-85065874D01*
X137674377Y-85097880D01*
X137692509Y-85131518D01*
X137709453Y-85166789D01*
X137725134Y-85203690D01*
X137739480Y-85242223D01*
X137752415Y-85282385D01*
X137763865Y-85324175D01*
X137773757Y-85367594D01*
X137782016Y-85412640D01*
X137788569Y-85459312D01*
X137793342Y-85507610D01*
X137796259Y-85557533D01*
X137797248Y-85609079D01*
X137796569Y-85659397D01*
X137794539Y-85708154D01*
X137791167Y-85755360D01*
X137786462Y-85801024D01*
X137780436Y-85845157D01*
X137773098Y-85887769D01*
X137764457Y-85928868D01*
X137754524Y-85968466D01*
X137743308Y-86006571D01*
X137730819Y-86043194D01*
X137717067Y-86078344D01*
X137702061Y-86112032D01*
X137685812Y-86144267D01*
X137668329Y-86175058D01*
X137649623Y-86204416D01*
X137629702Y-86232351D01*
X137608558Y-86258664D01*
X137586210Y-86283160D01*
X137562710Y-86305857D01*
X137538110Y-86326770D01*
X137512463Y-86345917D01*
X137485822Y-86363312D01*
X137458238Y-86378973D01*
X137429764Y-86392916D01*
X137400452Y-86405158D01*
X137370354Y-86415714D01*
X137339524Y-86424601D01*
X137308013Y-86431836D01*
X137275874Y-86437434D01*
X137243159Y-86441413D01*
X137209920Y-86443788D01*
X137176210Y-86444576D01*
X136731654Y-86444576D01*
X136726871Y-86444460D01*
X136722158Y-86444112D01*
X136717522Y-86443540D01*
X136712967Y-86442748D01*
X136708498Y-86441742D01*
X136704122Y-86440527D01*
X136699843Y-86439108D01*
X136695667Y-86437491D01*
X136691598Y-86435680D01*
X136687643Y-86433682D01*
X136683807Y-86431502D01*
X136680094Y-86429144D01*
X136676511Y-86426614D01*
X136673063Y-86423918D01*
X136669754Y-86421061D01*
X136666590Y-86418048D01*
X136663577Y-86414885D01*
X136660720Y-86411576D01*
X136658024Y-86408127D01*
X136655495Y-86404544D01*
X136653137Y-86400832D01*
X136650957Y-86396995D01*
X136648958Y-86393040D01*
X136647148Y-86388972D01*
X136645531Y-86384796D01*
X136644112Y-86380517D01*
X136642897Y-86376140D01*
X136641890Y-86371672D01*
X136641099Y-86367117D01*
X136640526Y-86362480D01*
X136640179Y-86357768D01*
X136640062Y-86352984D01*
X136640062Y-86261393D01*
X136640062Y-84952298D01*
X136823246Y-84952298D01*
X136823246Y-86261393D01*
X137176210Y-86261393D01*
X137200951Y-86260892D01*
X137224916Y-86259377D01*
X137248116Y-86256828D01*
X137270560Y-86253225D01*
X137292257Y-86248548D01*
X137313219Y-86242779D01*
X137333453Y-86235897D01*
X137352972Y-86227883D01*
X137371783Y-86218717D01*
X137389897Y-86208380D01*
X137407324Y-86196851D01*
X137424074Y-86184112D01*
X137440156Y-86170142D01*
X137455581Y-86154922D01*
X137470357Y-86138433D01*
X137484495Y-86120654D01*
X137498467Y-86101066D01*
X137511870Y-86079980D01*
X137524657Y-86057362D01*
X137536784Y-86033181D01*
X137548203Y-86007402D01*
X137558870Y-85979993D01*
X137568739Y-85950923D01*
X137577763Y-85920157D01*
X137585897Y-85887663D01*
X137593095Y-85853409D01*
X137599311Y-85817361D01*
X137604500Y-85779488D01*
X137608616Y-85739755D01*
X137611612Y-85698132D01*
X137613444Y-85654584D01*
X137614064Y-85609079D01*
X137613239Y-85564348D01*
X137610816Y-85521448D01*
X137606871Y-85480353D01*
X137601481Y-85441036D01*
X137594723Y-85403469D01*
X137586675Y-85367626D01*
X137577412Y-85333480D01*
X137567012Y-85301004D01*
X137555552Y-85270170D01*
X137543108Y-85240952D01*
X137529758Y-85213323D01*
X137515579Y-85187255D01*
X137500646Y-85162723D01*
X137485039Y-85139698D01*
X137452103Y-85098063D01*
X137417387Y-85062136D01*
X137381507Y-85031699D01*
X137345076Y-85006538D01*
X137308711Y-84986435D01*
X137273027Y-84971176D01*
X137238639Y-84960544D01*
X137206161Y-84954323D01*
X137176210Y-84952298D01*
X136823246Y-84952298D01*
X136640062Y-84952298D01*
X136640062Y-84860706D01*
X136640179Y-84855923D01*
X136640526Y-84851210D01*
X136641099Y-84846573D01*
X136641890Y-84842018D01*
X136642897Y-84837550D01*
X136644112Y-84833174D01*
X136645531Y-84828895D01*
X136647148Y-84824718D01*
X136648958Y-84820650D01*
X136650957Y-84816695D01*
X136653137Y-84812859D01*
X136655495Y-84809146D01*
X136658024Y-84805563D01*
X136660720Y-84802114D01*
X136663577Y-84798806D01*
X136666590Y-84795642D01*
X136669754Y-84792629D01*
X136673063Y-84789772D01*
X136676511Y-84787076D01*
X136680094Y-84784547D01*
X136683807Y-84782189D01*
X136687643Y-84780008D01*
X136691598Y-84778010D01*
X136695667Y-84776200D01*
X136699843Y-84774582D01*
X136704122Y-84773164D01*
X136708498Y-84771948D01*
X136712967Y-84770942D01*
X136717522Y-84770150D01*
X136722158Y-84769578D01*
X136726871Y-84769231D01*
X136731654Y-84769114D01*
X137176210Y-84769114D01*
X137202560Y-84769938D01*
G37*
G36*
X138740816Y-84766905D02*
G01*
X138741657Y-84766976D01*
X138742505Y-84767086D01*
X138743363Y-84767229D01*
X138745122Y-84767587D01*
X138746959Y-84767997D01*
X138748900Y-84768407D01*
X138749919Y-84768596D01*
X138750973Y-84768765D01*
X138752066Y-84768908D01*
X138753202Y-84769018D01*
X138754384Y-84769089D01*
X138755615Y-84769114D01*
X139124217Y-84769114D01*
X139128685Y-84769114D01*
X139133265Y-84769231D01*
X139137788Y-84769578D01*
X139142246Y-84770150D01*
X139146635Y-84770942D01*
X139150949Y-84771948D01*
X139155182Y-84773164D01*
X139159328Y-84774582D01*
X139163381Y-84776200D01*
X139167336Y-84778010D01*
X139171188Y-84780008D01*
X139174930Y-84782189D01*
X139178556Y-84784547D01*
X139182062Y-84787076D01*
X139185440Y-84789772D01*
X139188686Y-84792629D01*
X139191794Y-84795642D01*
X139194758Y-84798806D01*
X139197572Y-84802114D01*
X139200231Y-84805563D01*
X139202728Y-84809146D01*
X139205059Y-84812859D01*
X139207217Y-84816695D01*
X139209197Y-84820650D01*
X139210992Y-84824718D01*
X139212598Y-84828895D01*
X139214008Y-84833174D01*
X139215217Y-84837550D01*
X139216219Y-84842018D01*
X139217009Y-84846573D01*
X139217580Y-84851210D01*
X139217926Y-84855923D01*
X139218043Y-84860706D01*
X139217926Y-84865489D01*
X139217580Y-84870202D01*
X139217009Y-84874838D01*
X139216219Y-84879393D01*
X139215217Y-84883862D01*
X139214008Y-84888238D01*
X139212598Y-84892517D01*
X139210992Y-84896693D01*
X139209197Y-84900762D01*
X139207217Y-84904717D01*
X139205059Y-84908553D01*
X139202728Y-84912266D01*
X139200231Y-84915849D01*
X139197572Y-84919297D01*
X139194758Y-84922606D01*
X139191794Y-84925770D01*
X139188686Y-84928783D01*
X139185440Y-84931640D01*
X139182062Y-84934336D01*
X139178556Y-84936865D01*
X139174930Y-84939223D01*
X139171188Y-84941403D01*
X139167336Y-84943402D01*
X139163381Y-84945212D01*
X139159328Y-84946829D01*
X139155182Y-84948248D01*
X139150949Y-84949463D01*
X139146635Y-84950470D01*
X139142246Y-84951261D01*
X139137788Y-84951834D01*
X139133265Y-84952181D01*
X139128685Y-84952298D01*
X139124217Y-84952298D01*
X138829335Y-84952298D01*
X138829335Y-86261393D01*
X139124217Y-86261393D01*
X139128685Y-86261393D01*
X139133265Y-86261510D01*
X139137788Y-86261857D01*
X139142246Y-86262429D01*
X139146635Y-86263221D01*
X139150949Y-86264227D01*
X139155182Y-86265442D01*
X139159328Y-86266861D01*
X139163381Y-86268478D01*
X139167336Y-86270289D01*
X139171188Y-86272287D01*
X139174930Y-86274467D01*
X139178556Y-86276825D01*
X139182062Y-86279355D01*
X139185440Y-86282051D01*
X139188686Y-86284908D01*
X139191794Y-86287921D01*
X139194758Y-86291084D01*
X139197572Y-86294393D01*
X139200231Y-86297842D01*
X139202728Y-86301425D01*
X139205059Y-86305137D01*
X139207217Y-86308974D01*
X139209197Y-86312929D01*
X139210992Y-86316997D01*
X139212598Y-86321173D01*
X139214008Y-86325452D01*
X139215217Y-86329829D01*
X139216219Y-86334297D01*
X139217009Y-86338852D01*
X139217580Y-86343489D01*
X139217926Y-86348201D01*
X139218043Y-86352984D01*
X139217926Y-86357768D01*
X139217580Y-86362480D01*
X139217009Y-86367117D01*
X139216219Y-86371672D01*
X139215217Y-86376140D01*
X139214008Y-86380517D01*
X139212598Y-86384796D01*
X139210992Y-86388972D01*
X139209197Y-86393040D01*
X139207217Y-86396995D01*
X139205059Y-86400832D01*
X139202728Y-86404544D01*
X139200231Y-86408127D01*
X139197572Y-86411576D01*
X139194758Y-86414885D01*
X139191794Y-86418048D01*
X139188686Y-86421061D01*
X139185440Y-86423918D01*
X139182062Y-86426614D01*
X139178556Y-86429144D01*
X139174930Y-86431502D01*
X139171188Y-86433682D01*
X139167336Y-86435680D01*
X139163381Y-86437491D01*
X139159328Y-86439108D01*
X139155182Y-86440527D01*
X139150949Y-86441742D01*
X139146635Y-86442748D01*
X139142246Y-86443540D01*
X139137788Y-86444112D01*
X139133265Y-86444460D01*
X139128685Y-86444576D01*
X139124217Y-86444576D01*
X138755615Y-86444576D01*
X138739977Y-86444576D01*
X138726574Y-86444576D01*
X138346802Y-86444576D01*
X138342222Y-86444460D01*
X138337700Y-86444112D01*
X138333241Y-86443540D01*
X138328852Y-86442748D01*
X138324539Y-86441742D01*
X138320306Y-86440527D01*
X138316160Y-86439108D01*
X138312106Y-86437491D01*
X138308151Y-86435680D01*
X138304300Y-86433682D01*
X138300558Y-86431502D01*
X138296931Y-86429144D01*
X138293426Y-86426614D01*
X138290047Y-86423918D01*
X138286801Y-86421061D01*
X138283693Y-86418048D01*
X138280729Y-86414885D01*
X138277915Y-86411576D01*
X138275257Y-86408127D01*
X138272759Y-86404544D01*
X138270429Y-86400832D01*
X138268271Y-86396995D01*
X138266291Y-86393040D01*
X138264495Y-86388972D01*
X138262889Y-86384796D01*
X138261479Y-86380517D01*
X138260270Y-86376140D01*
X138259268Y-86371672D01*
X138258479Y-86367117D01*
X138257908Y-86362480D01*
X138257561Y-86357768D01*
X138257444Y-86352984D01*
X138257561Y-86348201D01*
X138257908Y-86343489D01*
X138258479Y-86338852D01*
X138259268Y-86334297D01*
X138260270Y-86329829D01*
X138261479Y-86325452D01*
X138262889Y-86321173D01*
X138264495Y-86316997D01*
X138266291Y-86312929D01*
X138268271Y-86308974D01*
X138270429Y-86305137D01*
X138272759Y-86301425D01*
X138275257Y-86297842D01*
X138277915Y-86294393D01*
X138280729Y-86291084D01*
X138283693Y-86287921D01*
X138286801Y-86284908D01*
X138290047Y-86282051D01*
X138293426Y-86279355D01*
X138296931Y-86276825D01*
X138300558Y-86274467D01*
X138304300Y-86272287D01*
X138308151Y-86270289D01*
X138312106Y-86268478D01*
X138316160Y-86266861D01*
X138320306Y-86265442D01*
X138324539Y-86264227D01*
X138328852Y-86263221D01*
X138333241Y-86262429D01*
X138337700Y-86261857D01*
X138342222Y-86261510D01*
X138346802Y-86261393D01*
X138648386Y-86261393D01*
X138648386Y-84952298D01*
X138346802Y-84952298D01*
X138342222Y-84952181D01*
X138337700Y-84951834D01*
X138333241Y-84951261D01*
X138328852Y-84950470D01*
X138324539Y-84949463D01*
X138320306Y-84948248D01*
X138316160Y-84946829D01*
X138312106Y-84945212D01*
X138308151Y-84943402D01*
X138304300Y-84941403D01*
X138300558Y-84939223D01*
X138296931Y-84936865D01*
X138293426Y-84934336D01*
X138290047Y-84931640D01*
X138286801Y-84928783D01*
X138283693Y-84925770D01*
X138280729Y-84922606D01*
X138277915Y-84919297D01*
X138275257Y-84915849D01*
X138272759Y-84912266D01*
X138270429Y-84908553D01*
X138268271Y-84904717D01*
X138266291Y-84900762D01*
X138264495Y-84896693D01*
X138262889Y-84892517D01*
X138261479Y-84888238D01*
X138260270Y-84883862D01*
X138259268Y-84879393D01*
X138258479Y-84874838D01*
X138257908Y-84870202D01*
X138257561Y-84865489D01*
X138257444Y-84860706D01*
X138257561Y-84855923D01*
X138257908Y-84851210D01*
X138258479Y-84846573D01*
X138259268Y-84842018D01*
X138260270Y-84837550D01*
X138261479Y-84833174D01*
X138262889Y-84828895D01*
X138264495Y-84824718D01*
X138266291Y-84820650D01*
X138268271Y-84816695D01*
X138270429Y-84812859D01*
X138272759Y-84809146D01*
X138275257Y-84805563D01*
X138277915Y-84802114D01*
X138280729Y-84798806D01*
X138283693Y-84795642D01*
X138286801Y-84792629D01*
X138290047Y-84789772D01*
X138293426Y-84787076D01*
X138296931Y-84784547D01*
X138300558Y-84782189D01*
X138304300Y-84780008D01*
X138308151Y-84778010D01*
X138312106Y-84776200D01*
X138316160Y-84774582D01*
X138320306Y-84773164D01*
X138324539Y-84771948D01*
X138328852Y-84770942D01*
X138333241Y-84770150D01*
X138337700Y-84769578D01*
X138342222Y-84769231D01*
X138346802Y-84769114D01*
X138726574Y-84769114D01*
X138727043Y-84769089D01*
X138727608Y-84769018D01*
X138728257Y-84768908D01*
X138728982Y-84768765D01*
X138732438Y-84767997D01*
X138734362Y-84767587D01*
X138735339Y-84767398D01*
X138736312Y-84767229D01*
X138737273Y-84767086D01*
X138738210Y-84766976D01*
X138739115Y-84766905D01*
X138739977Y-84766880D01*
X138740816Y-84766905D01*
G37*
G36*
X140298088Y-84769834D02*
G01*
X140333079Y-84771941D01*
X140366309Y-84775358D01*
X140397815Y-84780004D01*
X140427633Y-84785803D01*
X140455798Y-84792675D01*
X140482346Y-84800542D01*
X140507314Y-84809325D01*
X140530737Y-84818946D01*
X140552651Y-84829326D01*
X140573094Y-84840387D01*
X140592099Y-84852049D01*
X140609704Y-84864236D01*
X140625944Y-84876867D01*
X140640856Y-84889865D01*
X140654475Y-84903151D01*
X140660996Y-84910268D01*
X140667163Y-84917362D01*
X140672990Y-84924410D01*
X140678490Y-84931389D01*
X140683676Y-84938277D01*
X140688560Y-84945051D01*
X140697479Y-84958162D01*
X140705350Y-84970540D01*
X140712278Y-84982002D01*
X140723727Y-85001445D01*
X140725002Y-85003696D01*
X140726304Y-85005841D01*
X140728946Y-85009805D01*
X140731562Y-85013323D01*
X140734059Y-85016384D01*
X140736348Y-85018974D01*
X140738335Y-85021079D01*
X140741040Y-85023784D01*
X140741575Y-85024358D01*
X140741598Y-85024444D01*
X140741442Y-85024395D01*
X140738807Y-85022807D01*
X140732401Y-85018915D01*
X140727556Y-85016072D01*
X140726952Y-85015728D01*
X140728901Y-85017005D01*
X140731302Y-85018727D01*
X140733664Y-85020569D01*
X140735984Y-85022525D01*
X140738257Y-85024588D01*
X140740482Y-85026751D01*
X140744771Y-85031357D01*
X140748825Y-85036293D01*
X140752616Y-85041511D01*
X140756120Y-85046961D01*
X140759309Y-85052595D01*
X140762158Y-85058362D01*
X140764641Y-85064215D01*
X140766731Y-85070104D01*
X140768402Y-85075979D01*
X140769073Y-85078897D01*
X140769628Y-85081793D01*
X140770066Y-85084661D01*
X140770383Y-85087495D01*
X140770576Y-85090289D01*
X140770641Y-85093037D01*
X140770524Y-85097820D01*
X140770176Y-85102533D01*
X140769604Y-85107169D01*
X140768812Y-85111724D01*
X140767806Y-85116193D01*
X140766591Y-85120569D01*
X140765172Y-85124848D01*
X140763555Y-85129024D01*
X140761744Y-85133093D01*
X140759746Y-85137048D01*
X140757566Y-85140884D01*
X140755208Y-85144596D01*
X140752678Y-85148180D01*
X140749983Y-85151628D01*
X140747125Y-85154937D01*
X140744112Y-85158101D01*
X140740949Y-85161113D01*
X140737640Y-85163971D01*
X140734192Y-85166667D01*
X140730608Y-85169196D01*
X140726896Y-85171554D01*
X140723059Y-85173734D01*
X140719104Y-85175732D01*
X140715036Y-85177543D01*
X140710860Y-85179160D01*
X140706581Y-85180579D01*
X140702204Y-85181794D01*
X140697736Y-85182801D01*
X140693181Y-85183592D01*
X140688544Y-85184165D01*
X140683832Y-85184512D01*
X140679049Y-85184629D01*
X140676410Y-85184576D01*
X140673547Y-85184419D01*
X140670493Y-85184157D01*
X140667285Y-85183791D01*
X140663960Y-85183320D01*
X140660553Y-85182744D01*
X140657100Y-85182063D01*
X140653637Y-85181278D01*
X140650201Y-85180388D01*
X140646826Y-85179393D01*
X140643550Y-85178293D01*
X140640408Y-85177089D01*
X140637436Y-85175780D01*
X140634670Y-85174366D01*
X140632147Y-85172848D01*
X140629902Y-85171225D01*
X140624834Y-85168306D01*
X140620094Y-85165413D01*
X140615668Y-85162547D01*
X140611546Y-85159706D01*
X140607712Y-85156892D01*
X140604156Y-85154104D01*
X140600864Y-85151342D01*
X140597823Y-85148606D01*
X140595022Y-85145897D01*
X140592446Y-85143213D01*
X140590084Y-85140556D01*
X140587923Y-85137925D01*
X140585950Y-85135320D01*
X140584153Y-85132742D01*
X140581034Y-85127663D01*
X140578464Y-85122689D01*
X140576343Y-85117820D01*
X140574569Y-85113055D01*
X140573040Y-85108395D01*
X140570313Y-85099390D01*
X140568912Y-85095044D01*
X140567351Y-85090803D01*
X140563049Y-85082526D01*
X140558485Y-85074432D01*
X140556088Y-85070446D01*
X140553607Y-85066495D01*
X140551034Y-85062578D01*
X140548362Y-85058690D01*
X140545586Y-85054828D01*
X140542699Y-85050989D01*
X140539694Y-85047169D01*
X140536564Y-85043366D01*
X140533304Y-85039576D01*
X140529906Y-85035796D01*
X140526364Y-85032022D01*
X140522672Y-85028252D01*
X140516031Y-85021509D01*
X140508601Y-85014726D01*
X140500274Y-85007970D01*
X140490943Y-85001305D01*
X140485867Y-84998028D01*
X140480499Y-84994797D01*
X140474826Y-84991623D01*
X140468834Y-84988512D01*
X140462511Y-84985474D01*
X140455841Y-84982515D01*
X140448813Y-84979645D01*
X140441412Y-84976871D01*
X140433625Y-84974202D01*
X140425438Y-84971646D01*
X140416838Y-84969211D01*
X140407811Y-84966906D01*
X140398344Y-84964737D01*
X140388424Y-84962715D01*
X140378036Y-84960846D01*
X140367168Y-84959139D01*
X140355806Y-84957603D01*
X140343936Y-84956244D01*
X140331544Y-84955072D01*
X140318619Y-84954095D01*
X140305145Y-84953321D01*
X140291109Y-84952758D01*
X140276499Y-84952414D01*
X140261300Y-84952298D01*
X140237180Y-84952543D01*
X140214216Y-84953319D01*
X140192358Y-84954683D01*
X140171558Y-84956696D01*
X140151764Y-84959415D01*
X140132930Y-84962900D01*
X140115006Y-84967210D01*
X140097942Y-84972403D01*
X140081690Y-84978539D01*
X140066200Y-84985676D01*
X140051423Y-84993873D01*
X140037311Y-85003190D01*
X140023814Y-85013684D01*
X140010883Y-85025416D01*
X139998470Y-85038443D01*
X139986524Y-85052825D01*
X139975329Y-85068963D01*
X139964407Y-85087264D01*
X139953818Y-85107797D01*
X139943625Y-85130630D01*
X139933890Y-85155832D01*
X139924676Y-85183472D01*
X139916044Y-85213619D01*
X139908056Y-85246341D01*
X139900776Y-85281708D01*
X139894264Y-85319787D01*
X139888584Y-85360647D01*
X139883797Y-85404358D01*
X139879966Y-85450988D01*
X139877152Y-85500606D01*
X139875418Y-85553280D01*
X139874826Y-85609079D01*
X139875419Y-85664460D01*
X139877161Y-85716719D01*
X139879995Y-85765928D01*
X139883867Y-85812159D01*
X139888720Y-85855484D01*
X139894500Y-85895976D01*
X139901150Y-85933705D01*
X139908615Y-85968745D01*
X139916839Y-86001167D01*
X139925767Y-86031042D01*
X139935342Y-86058444D01*
X139945510Y-86083444D01*
X139956215Y-86106114D01*
X139967400Y-86126526D01*
X139979011Y-86144752D01*
X139990992Y-86160865D01*
X139996909Y-86168229D01*
X140002937Y-86175247D01*
X140009080Y-86181926D01*
X140015343Y-86188274D01*
X140021732Y-86194298D01*
X140028253Y-86200006D01*
X140034910Y-86205404D01*
X140041710Y-86210500D01*
X140048656Y-86215302D01*
X140055755Y-86219817D01*
X140063012Y-86224052D01*
X140070433Y-86228014D01*
X140078021Y-86231711D01*
X140085784Y-86235151D01*
X140093726Y-86238340D01*
X140101852Y-86241287D01*
X140118679Y-86246480D01*
X140136308Y-86250790D01*
X140154781Y-86254275D01*
X140174141Y-86256994D01*
X140194430Y-86259007D01*
X140215692Y-86260371D01*
X140237967Y-86261147D01*
X140261300Y-86261392D01*
X140292862Y-86260821D01*
X140322271Y-86259124D01*
X140349625Y-86256327D01*
X140375022Y-86252457D01*
X140398560Y-86247539D01*
X140420338Y-86241601D01*
X140440453Y-86234668D01*
X140459005Y-86226766D01*
X140476090Y-86217922D01*
X140491807Y-86208162D01*
X140506255Y-86197511D01*
X140519531Y-86185997D01*
X140531733Y-86173644D01*
X140542961Y-86160481D01*
X140553312Y-86146532D01*
X140562883Y-86131823D01*
X140570215Y-86119312D01*
X140577134Y-86106085D01*
X140583647Y-86092157D01*
X140589761Y-86077545D01*
X140595482Y-86062266D01*
X140600817Y-86046335D01*
X140605772Y-86029770D01*
X140610355Y-86012586D01*
X140614571Y-85994800D01*
X140618427Y-85976429D01*
X140621929Y-85957487D01*
X140625085Y-85937993D01*
X140627900Y-85917962D01*
X140630382Y-85897411D01*
X140632536Y-85876356D01*
X140634370Y-85854814D01*
X140272470Y-85854814D01*
X140267883Y-85854690D01*
X140263342Y-85854325D01*
X140258853Y-85853724D01*
X140254424Y-85852894D01*
X140250059Y-85851841D01*
X140245767Y-85850573D01*
X140241553Y-85849095D01*
X140237425Y-85847414D01*
X140233388Y-85845536D01*
X140229449Y-85843469D01*
X140225614Y-85841219D01*
X140221892Y-85838792D01*
X140218287Y-85836195D01*
X140214806Y-85833434D01*
X140211456Y-85830516D01*
X140208244Y-85827448D01*
X140205175Y-85824235D01*
X140202257Y-85820885D01*
X140199496Y-85817405D01*
X140196899Y-85813800D01*
X140194472Y-85810077D01*
X140192222Y-85806243D01*
X140190155Y-85802304D01*
X140188278Y-85798267D01*
X140186597Y-85794138D01*
X140185119Y-85789924D01*
X140183850Y-85785632D01*
X140182797Y-85781268D01*
X140181967Y-85776838D01*
X140181366Y-85772349D01*
X140181001Y-85767808D01*
X140180878Y-85763222D01*
X140181001Y-85758831D01*
X140181366Y-85754462D01*
X140181967Y-85750121D01*
X140182797Y-85745817D01*
X140183850Y-85741557D01*
X140185119Y-85737348D01*
X140186597Y-85733200D01*
X140188278Y-85729119D01*
X140190155Y-85725113D01*
X140192222Y-85721190D01*
X140194472Y-85717359D01*
X140196899Y-85713625D01*
X140199496Y-85709998D01*
X140202257Y-85706485D01*
X140205175Y-85703095D01*
X140208244Y-85699833D01*
X140211456Y-85696709D01*
X140214806Y-85693731D01*
X140218287Y-85690905D01*
X140221892Y-85688240D01*
X140225614Y-85685744D01*
X140229449Y-85683424D01*
X140233388Y-85681288D01*
X140237425Y-85679344D01*
X140241553Y-85677599D01*
X140245767Y-85676062D01*
X140250059Y-85674740D01*
X140254424Y-85673641D01*
X140258853Y-85672773D01*
X140263342Y-85672143D01*
X140267883Y-85671759D01*
X140272470Y-85671630D01*
X140728196Y-85671630D01*
X140730429Y-85671630D01*
X140735213Y-85671747D01*
X140739925Y-85672094D01*
X140744562Y-85672666D01*
X140749117Y-85673458D01*
X140753585Y-85674464D01*
X140757962Y-85675679D01*
X140762241Y-85677098D01*
X140766417Y-85678716D01*
X140770485Y-85680526D01*
X140774440Y-85682524D01*
X140778277Y-85684705D01*
X140781989Y-85687062D01*
X140785572Y-85689592D01*
X140789021Y-85692288D01*
X140792330Y-85695145D01*
X140795493Y-85698158D01*
X140798506Y-85701321D01*
X140801363Y-85704630D01*
X140804059Y-85708079D01*
X140806589Y-85711662D01*
X140808947Y-85715374D01*
X140811127Y-85719211D01*
X140813125Y-85723166D01*
X140814936Y-85727234D01*
X140816553Y-85731410D01*
X140817972Y-85735689D01*
X140819187Y-85740066D01*
X140820193Y-85744534D01*
X140820985Y-85749089D01*
X140821557Y-85753726D01*
X140821905Y-85758438D01*
X140822021Y-85763222D01*
X140817553Y-85783327D01*
X140816628Y-85844032D01*
X140813504Y-85903716D01*
X140810954Y-85933118D01*
X140807658Y-85962196D01*
X140803550Y-85990927D01*
X140798565Y-86019288D01*
X140792637Y-86047257D01*
X140785702Y-86074810D01*
X140777694Y-86101924D01*
X140768546Y-86128577D01*
X140758195Y-86154746D01*
X140746573Y-86180407D01*
X140733617Y-86205539D01*
X140719260Y-86230117D01*
X140711289Y-86242329D01*
X140702876Y-86254246D01*
X140694025Y-86265863D01*
X140684738Y-86277174D01*
X140675020Y-86288172D01*
X140664873Y-86298852D01*
X140654300Y-86309207D01*
X140643305Y-86319231D01*
X140631892Y-86328918D01*
X140620063Y-86338261D01*
X140607821Y-86347256D01*
X140595171Y-86355894D01*
X140582114Y-86364172D01*
X140568656Y-86372081D01*
X140554798Y-86379617D01*
X140540544Y-86386773D01*
X140525897Y-86393542D01*
X140510861Y-86399920D01*
X140495439Y-86405898D01*
X140479634Y-86411473D01*
X140463449Y-86416636D01*
X140446888Y-86421383D01*
X140429954Y-86425707D01*
X140412650Y-86429602D01*
X140394980Y-86433061D01*
X140376946Y-86436079D01*
X140358553Y-86438650D01*
X140339802Y-86440767D01*
X140320699Y-86442424D01*
X140301245Y-86443616D01*
X140281444Y-86444335D01*
X140261300Y-86444576D01*
X140232385Y-86444117D01*
X140203496Y-86442683D01*
X140174713Y-86440188D01*
X140146112Y-86436548D01*
X140117773Y-86431678D01*
X140089775Y-86425492D01*
X140062195Y-86417905D01*
X140035113Y-86408833D01*
X140008606Y-86398190D01*
X139982754Y-86385891D01*
X139957635Y-86371852D01*
X139933328Y-86355986D01*
X139909911Y-86338209D01*
X139887462Y-86318437D01*
X139866061Y-86296582D01*
X139845785Y-86272562D01*
X139826751Y-86246581D01*
X139809017Y-86218856D01*
X139792571Y-86189317D01*
X139777405Y-86157898D01*
X139763509Y-86124527D01*
X139750873Y-86089138D01*
X139739487Y-86051661D01*
X139729341Y-86012028D01*
X139720425Y-85970169D01*
X139712730Y-85926016D01*
X139706246Y-85879501D01*
X139700962Y-85830554D01*
X139696870Y-85779107D01*
X139693960Y-85725092D01*
X139692220Y-85668438D01*
X139691643Y-85609079D01*
X139692195Y-85549301D01*
X139693864Y-85492233D01*
X139696664Y-85437809D01*
X139700613Y-85385963D01*
X139705728Y-85336631D01*
X139712023Y-85289746D01*
X139719516Y-85245244D01*
X139728224Y-85203059D01*
X139738161Y-85163125D01*
X139749346Y-85125376D01*
X139761793Y-85089749D01*
X139775520Y-85056176D01*
X139790543Y-85024593D01*
X139806879Y-84994935D01*
X139824542Y-84967135D01*
X139843551Y-84941128D01*
X139853347Y-84928842D01*
X139863459Y-84917107D01*
X139873878Y-84905915D01*
X139884591Y-84895253D01*
X139895590Y-84885112D01*
X139906862Y-84875481D01*
X139918398Y-84866348D01*
X139930187Y-84857704D01*
X139954480Y-84841838D01*
X139979656Y-84827799D01*
X140005632Y-84815500D01*
X140032320Y-84804857D01*
X140059637Y-84795785D01*
X140087497Y-84788198D01*
X140115815Y-84782012D01*
X140144506Y-84777142D01*
X140173485Y-84773502D01*
X140202667Y-84771007D01*
X140231967Y-84769573D01*
X140261300Y-84769114D01*
X140298088Y-84769834D01*
G37*
G36*
X141778993Y-84766905D02*
G01*
X141779835Y-84766976D01*
X141780683Y-84767086D01*
X141781541Y-84767229D01*
X141783299Y-84767587D01*
X141785136Y-84767997D01*
X141787078Y-84768407D01*
X141788096Y-84768596D01*
X141789150Y-84768765D01*
X141790244Y-84768908D01*
X141791380Y-84769018D01*
X141792561Y-84769089D01*
X141793792Y-84769114D01*
X142162394Y-84769114D01*
X142166861Y-84769114D01*
X142171442Y-84769231D01*
X142175964Y-84769578D01*
X142180423Y-84770150D01*
X142184812Y-84770942D01*
X142189125Y-84771948D01*
X142193358Y-84773164D01*
X142197504Y-84774582D01*
X142201557Y-84776200D01*
X142205513Y-84778010D01*
X142209364Y-84780008D01*
X142213106Y-84782189D01*
X142216733Y-84784547D01*
X142220238Y-84787076D01*
X142223617Y-84789772D01*
X142226863Y-84792629D01*
X142229970Y-84795642D01*
X142232934Y-84798806D01*
X142235748Y-84802114D01*
X142238407Y-84805563D01*
X142240904Y-84809146D01*
X142243235Y-84812859D01*
X142245393Y-84816695D01*
X142247373Y-84820650D01*
X142249168Y-84824718D01*
X142250774Y-84828895D01*
X142252184Y-84833174D01*
X142253393Y-84837550D01*
X142254395Y-84842018D01*
X142255185Y-84846573D01*
X142255756Y-84851210D01*
X142256102Y-84855923D01*
X142256219Y-84860706D01*
X142256102Y-84865489D01*
X142255756Y-84870202D01*
X142255185Y-84874838D01*
X142254395Y-84879393D01*
X142253393Y-84883862D01*
X142252184Y-84888238D01*
X142250774Y-84892517D01*
X142249168Y-84896693D01*
X142247373Y-84900762D01*
X142245393Y-84904717D01*
X142243235Y-84908553D01*
X142240904Y-84912266D01*
X142238407Y-84915849D01*
X142235748Y-84919297D01*
X142232934Y-84922606D01*
X142229970Y-84925770D01*
X142226863Y-84928783D01*
X142223617Y-84931640D01*
X142220238Y-84934336D01*
X142216733Y-84936865D01*
X142213106Y-84939223D01*
X142209364Y-84941403D01*
X142205513Y-84943402D01*
X142201557Y-84945212D01*
X142197504Y-84946829D01*
X142193358Y-84948248D01*
X142189125Y-84949463D01*
X142184812Y-84950470D01*
X142180423Y-84951261D01*
X142175964Y-84951834D01*
X142171442Y-84952181D01*
X142166861Y-84952298D01*
X142162394Y-84952298D01*
X141867512Y-84952298D01*
X141867512Y-86261393D01*
X142162394Y-86261393D01*
X142166861Y-86261393D01*
X142171442Y-86261510D01*
X142175964Y-86261857D01*
X142180423Y-86262429D01*
X142184812Y-86263221D01*
X142189125Y-86264227D01*
X142193358Y-86265442D01*
X142197504Y-86266861D01*
X142201557Y-86268478D01*
X142205513Y-86270289D01*
X142209364Y-86272287D01*
X142213106Y-86274467D01*
X142216733Y-86276825D01*
X142220238Y-86279355D01*
X142223617Y-86282051D01*
X142226863Y-86284908D01*
X142229970Y-86287921D01*
X142232934Y-86291084D01*
X142235748Y-86294393D01*
X142238407Y-86297842D01*
X142240904Y-86301425D01*
X142243235Y-86305137D01*
X142245393Y-86308974D01*
X142247373Y-86312929D01*
X142249168Y-86316997D01*
X142250774Y-86321173D01*
X142252184Y-86325452D01*
X142253393Y-86329829D01*
X142254395Y-86334297D01*
X142255185Y-86338852D01*
X142255756Y-86343489D01*
X142256102Y-86348201D01*
X142256219Y-86352984D01*
X142256102Y-86357768D01*
X142255756Y-86362480D01*
X142255185Y-86367117D01*
X142254395Y-86371672D01*
X142253393Y-86376140D01*
X142252184Y-86380517D01*
X142250774Y-86384796D01*
X142249168Y-86388972D01*
X142247373Y-86393040D01*
X142245393Y-86396995D01*
X142243235Y-86400832D01*
X142240904Y-86404544D01*
X142238407Y-86408127D01*
X142235748Y-86411576D01*
X142232934Y-86414885D01*
X142229970Y-86418048D01*
X142226863Y-86421061D01*
X142223617Y-86423918D01*
X142220238Y-86426614D01*
X142216733Y-86429144D01*
X142213106Y-86431502D01*
X142209364Y-86433682D01*
X142205513Y-86435680D01*
X142201557Y-86437491D01*
X142197504Y-86439108D01*
X142193358Y-86440527D01*
X142189125Y-86441742D01*
X142184812Y-86442748D01*
X142180423Y-86443540D01*
X142175964Y-86444112D01*
X142171442Y-86444460D01*
X142166861Y-86444576D01*
X142162394Y-86444576D01*
X141793792Y-86444576D01*
X141778154Y-86444576D01*
X141764751Y-86444576D01*
X141384979Y-86444576D01*
X141380399Y-86444460D01*
X141375877Y-86444112D01*
X141371418Y-86443540D01*
X141367029Y-86442748D01*
X141362715Y-86441742D01*
X141358483Y-86440527D01*
X141354337Y-86439108D01*
X141350283Y-86437491D01*
X141346328Y-86435680D01*
X141342476Y-86433682D01*
X141338734Y-86431502D01*
X141335108Y-86429144D01*
X141331603Y-86426614D01*
X141328224Y-86423918D01*
X141324978Y-86421061D01*
X141321870Y-86418048D01*
X141318906Y-86414885D01*
X141316092Y-86411576D01*
X141313433Y-86408127D01*
X141310936Y-86404544D01*
X141308605Y-86400832D01*
X141306447Y-86396995D01*
X141304468Y-86393040D01*
X141302672Y-86388972D01*
X141301066Y-86384796D01*
X141299656Y-86380517D01*
X141298447Y-86376140D01*
X141297445Y-86371672D01*
X141296656Y-86367117D01*
X141296085Y-86362480D01*
X141295738Y-86357768D01*
X141295621Y-86352984D01*
X141295738Y-86348201D01*
X141296085Y-86343489D01*
X141296656Y-86338852D01*
X141297445Y-86334297D01*
X141298447Y-86329829D01*
X141299656Y-86325452D01*
X141301066Y-86321173D01*
X141302672Y-86316997D01*
X141304468Y-86312929D01*
X141306447Y-86308974D01*
X141308605Y-86305137D01*
X141310936Y-86301425D01*
X141313433Y-86297842D01*
X141316092Y-86294393D01*
X141318906Y-86291084D01*
X141321870Y-86287921D01*
X141324978Y-86284908D01*
X141328224Y-86282051D01*
X141331603Y-86279355D01*
X141335108Y-86276825D01*
X141338734Y-86274467D01*
X141342476Y-86272287D01*
X141346328Y-86270289D01*
X141350283Y-86268478D01*
X141354337Y-86266861D01*
X141358483Y-86265442D01*
X141362715Y-86264227D01*
X141367029Y-86263221D01*
X141371418Y-86262429D01*
X141375877Y-86261857D01*
X141380399Y-86261510D01*
X141384979Y-86261393D01*
X141686563Y-86261393D01*
X141686563Y-84952298D01*
X141384980Y-84952298D01*
X141380399Y-84952181D01*
X141375877Y-84951834D01*
X141371418Y-84951261D01*
X141367029Y-84950470D01*
X141362716Y-84949463D01*
X141358483Y-84948248D01*
X141354337Y-84946829D01*
X141350284Y-84945212D01*
X141346328Y-84943402D01*
X141342477Y-84941403D01*
X141338735Y-84939223D01*
X141335108Y-84936865D01*
X141331603Y-84934336D01*
X141328224Y-84931640D01*
X141324978Y-84928783D01*
X141321870Y-84925770D01*
X141318907Y-84922606D01*
X141316092Y-84919297D01*
X141313434Y-84915849D01*
X141310936Y-84912266D01*
X141308606Y-84908553D01*
X141306448Y-84904717D01*
X141304468Y-84900762D01*
X141302672Y-84896693D01*
X141301067Y-84892517D01*
X141299656Y-84888238D01*
X141298447Y-84883862D01*
X141297445Y-84879393D01*
X141296656Y-84874838D01*
X141296085Y-84870202D01*
X141295738Y-84865489D01*
X141295621Y-84860706D01*
X141295738Y-84855923D01*
X141296085Y-84851210D01*
X141296656Y-84846573D01*
X141297445Y-84842018D01*
X141298447Y-84837550D01*
X141299656Y-84833174D01*
X141301067Y-84828895D01*
X141302672Y-84824718D01*
X141304468Y-84820650D01*
X141306448Y-84816695D01*
X141308606Y-84812859D01*
X141310936Y-84809146D01*
X141313434Y-84805563D01*
X141316092Y-84802114D01*
X141318907Y-84798806D01*
X141321870Y-84795642D01*
X141324978Y-84792629D01*
X141328224Y-84789772D01*
X141331603Y-84787076D01*
X141335108Y-84784547D01*
X141338735Y-84782189D01*
X141342477Y-84780008D01*
X141346328Y-84778010D01*
X141350284Y-84776200D01*
X141354337Y-84774582D01*
X141358483Y-84773164D01*
X141362716Y-84771948D01*
X141367029Y-84770942D01*
X141371418Y-84770150D01*
X141375877Y-84769578D01*
X141380399Y-84769231D01*
X141384980Y-84769114D01*
X141764751Y-84769114D01*
X141765221Y-84769089D01*
X141765785Y-84769018D01*
X141766435Y-84768908D01*
X141767160Y-84768765D01*
X141770615Y-84767997D01*
X141772539Y-84767587D01*
X141773516Y-84767398D01*
X141774490Y-84767229D01*
X141775450Y-84767086D01*
X141776388Y-84766976D01*
X141777293Y-84766905D01*
X141778155Y-84766880D01*
X141778993Y-84766905D01*
G37*
G36*
X143362554Y-84769757D02*
G01*
X143395144Y-84771640D01*
X143426307Y-84774695D01*
X143456063Y-84778853D01*
X143484431Y-84784044D01*
X143511432Y-84790201D01*
X143537084Y-84797255D01*
X143561407Y-84805136D01*
X143584422Y-84813777D01*
X143606148Y-84823108D01*
X143626603Y-84833061D01*
X143645809Y-84843567D01*
X143663784Y-84854558D01*
X143680548Y-84865964D01*
X143696122Y-84877716D01*
X143710524Y-84889747D01*
X143723383Y-84901979D01*
X143735176Y-84914299D01*
X143745934Y-84926586D01*
X143755691Y-84938720D01*
X143764480Y-84950578D01*
X143772333Y-84962041D01*
X143779282Y-84972986D01*
X143785361Y-84983294D01*
X143790602Y-84992842D01*
X143795039Y-85001510D01*
X143801627Y-85015721D01*
X143806584Y-85028252D01*
X143806977Y-85029952D01*
X143807321Y-85031695D01*
X143807619Y-85033470D01*
X143807875Y-85035268D01*
X143808272Y-85038894D01*
X143808538Y-85042494D01*
X143808700Y-85045988D01*
X143808783Y-85049300D01*
X143808818Y-85055060D01*
X143808701Y-85059843D01*
X143808354Y-85064555D01*
X143807781Y-85069192D01*
X143806990Y-85073747D01*
X143805983Y-85078215D01*
X143804768Y-85082592D01*
X143803349Y-85086871D01*
X143801732Y-85091047D01*
X143799922Y-85095115D01*
X143797923Y-85099070D01*
X143795743Y-85102907D01*
X143793385Y-85106619D01*
X143790856Y-85110202D01*
X143788160Y-85113651D01*
X143785303Y-85116960D01*
X143782290Y-85120123D01*
X143779126Y-85123136D01*
X143775817Y-85125993D01*
X143772369Y-85128689D01*
X143768786Y-85131219D01*
X143765073Y-85133577D01*
X143761237Y-85135757D01*
X143757282Y-85137755D01*
X143753214Y-85139566D01*
X143749037Y-85141183D01*
X143744758Y-85142602D01*
X143740382Y-85143817D01*
X143735914Y-85144823D01*
X143731358Y-85145615D01*
X143726722Y-85146187D01*
X143722009Y-85146535D01*
X143717226Y-85146651D01*
X143713464Y-85146561D01*
X143709719Y-85146291D01*
X143705998Y-85145847D01*
X143702304Y-85145233D01*
X143698643Y-85144455D01*
X143695020Y-85143515D01*
X143691439Y-85142419D01*
X143687906Y-85141171D01*
X143681001Y-85138239D01*
X143674345Y-85134753D01*
X143667977Y-85130750D01*
X143661936Y-85126267D01*
X143656262Y-85121338D01*
X143650993Y-85116000D01*
X143646170Y-85110289D01*
X143641830Y-85104241D01*
X143638015Y-85097892D01*
X143636316Y-85094616D01*
X143634762Y-85091278D01*
X143633359Y-85087883D01*
X143632111Y-85084435D01*
X143631024Y-85080939D01*
X143630102Y-85077399D01*
X143629840Y-85076566D01*
X143629454Y-85075529D01*
X143628846Y-85074083D01*
X143627975Y-85072231D01*
X143626804Y-85069977D01*
X143625292Y-85067324D01*
X143623400Y-85064275D01*
X143622300Y-85062602D01*
X143621090Y-85060833D01*
X143619766Y-85058965D01*
X143618322Y-85057001D01*
X143616753Y-85054940D01*
X143615056Y-85052784D01*
X143613224Y-85050531D01*
X143611253Y-85048183D01*
X143609139Y-85045740D01*
X143606875Y-85043203D01*
X143604458Y-85040572D01*
X143601881Y-85037847D01*
X143599142Y-85035028D01*
X143596233Y-85032117D01*
X143593152Y-85029114D01*
X143589891Y-85026018D01*
X143582391Y-85020036D01*
X143574079Y-85013871D01*
X143564877Y-85007601D01*
X143554707Y-85001305D01*
X143543489Y-84995061D01*
X143531146Y-84988949D01*
X143517598Y-84983045D01*
X143502767Y-84977430D01*
X143486576Y-84972181D01*
X143468944Y-84967377D01*
X143459564Y-84965167D01*
X143449794Y-84963097D01*
X143439625Y-84961177D01*
X143429047Y-84959419D01*
X143418050Y-84957830D01*
X143406625Y-84956421D01*
X143394760Y-84955202D01*
X143382448Y-84954183D01*
X143369678Y-84953373D01*
X143356439Y-84952782D01*
X143342723Y-84952421D01*
X143328519Y-84952298D01*
X143304375Y-84952543D01*
X143281344Y-84953319D01*
X143259387Y-84954683D01*
X143238463Y-84956696D01*
X143218534Y-84959415D01*
X143199561Y-84962900D01*
X143181504Y-84967210D01*
X143164324Y-84972403D01*
X143147981Y-84978539D01*
X143132438Y-84985676D01*
X143117653Y-84993873D01*
X143103588Y-85003190D01*
X143090204Y-85013685D01*
X143077462Y-85025416D01*
X143065321Y-85038443D01*
X143053743Y-85052826D01*
X143042156Y-85068963D01*
X143030889Y-85087264D01*
X143020002Y-85107797D01*
X143009553Y-85130630D01*
X142999602Y-85155832D01*
X142990207Y-85183472D01*
X142981427Y-85213619D01*
X142973321Y-85246341D01*
X142965949Y-85281708D01*
X142959368Y-85319787D01*
X142953638Y-85360648D01*
X142948818Y-85404359D01*
X142944966Y-85450988D01*
X142942142Y-85500606D01*
X142940404Y-85553280D01*
X142939812Y-85609079D01*
X142940405Y-85664460D01*
X142942146Y-85716719D01*
X142944981Y-85765928D01*
X142948853Y-85812159D01*
X142953706Y-85855485D01*
X142959486Y-85895976D01*
X142966136Y-85933705D01*
X142973601Y-85968745D01*
X142981825Y-86001167D01*
X142990752Y-86031043D01*
X143000328Y-86058445D01*
X143010496Y-86083444D01*
X143021200Y-86106115D01*
X143032386Y-86126527D01*
X143043997Y-86144753D01*
X143055977Y-86160865D01*
X143062104Y-86168229D01*
X143068340Y-86175247D01*
X143074689Y-86181926D01*
X143081157Y-86188274D01*
X143087748Y-86194298D01*
X143094465Y-86200006D01*
X143101315Y-86205404D01*
X143108300Y-86210500D01*
X143115427Y-86215302D01*
X143122698Y-86219817D01*
X143130120Y-86224052D01*
X143137695Y-86228014D01*
X143145429Y-86231712D01*
X143153327Y-86235151D01*
X143169629Y-86241287D01*
X143186639Y-86246480D01*
X143204391Y-86250790D01*
X143222922Y-86254275D01*
X143242268Y-86256995D01*
X143262464Y-86259007D01*
X143283548Y-86260372D01*
X143305554Y-86261147D01*
X143328519Y-86261393D01*
X143357669Y-86260829D01*
X143384857Y-86259189D01*
X143410159Y-86256548D01*
X143433654Y-86252980D01*
X143455422Y-86248562D01*
X143475541Y-86243368D01*
X143494089Y-86237474D01*
X143511145Y-86230955D01*
X143526787Y-86223886D01*
X143541093Y-86216343D01*
X143554144Y-86208400D01*
X143566016Y-86200133D01*
X143576789Y-86191618D01*
X143586540Y-86182929D01*
X143595349Y-86174142D01*
X143603295Y-86165333D01*
X143610448Y-86157041D01*
X143616855Y-86148953D01*
X143622556Y-86141114D01*
X143627589Y-86133569D01*
X143631993Y-86126364D01*
X143635809Y-86119545D01*
X143639075Y-86113159D01*
X143641830Y-86107250D01*
X143644115Y-86101865D01*
X143645967Y-86097049D01*
X143648532Y-86089309D01*
X143650208Y-86082677D01*
X143651130Y-86078718D01*
X143652218Y-86074804D01*
X143653467Y-86070939D01*
X143654872Y-86067130D01*
X143656430Y-86063382D01*
X143658135Y-86059699D01*
X143659984Y-86056088D01*
X143661971Y-86052553D01*
X143666344Y-86045734D01*
X143671217Y-86039285D01*
X143676555Y-86033248D01*
X143679387Y-86030397D01*
X143682321Y-86027665D01*
X143685354Y-86025058D01*
X143688480Y-86022581D01*
X143691696Y-86020238D01*
X143694996Y-86018036D01*
X143698377Y-86015979D01*
X143701833Y-86014074D01*
X143705360Y-86012324D01*
X143708954Y-86010736D01*
X143712610Y-86009315D01*
X143716324Y-86008067D01*
X143720091Y-86006995D01*
X143723906Y-86006107D01*
X143727766Y-86005407D01*
X143731666Y-86004900D01*
X143735600Y-86004592D01*
X143739566Y-86004488D01*
X143744349Y-86004605D01*
X143749062Y-86004952D01*
X143753698Y-86005525D01*
X143758253Y-86006316D01*
X143762722Y-86007323D01*
X143767098Y-86008538D01*
X143771377Y-86009957D01*
X143775553Y-86011574D01*
X143779621Y-86013384D01*
X143783577Y-86015383D01*
X143787413Y-86017563D01*
X143791125Y-86019921D01*
X143794709Y-86022450D01*
X143798157Y-86025146D01*
X143801466Y-86028003D01*
X143804629Y-86031016D01*
X143807642Y-86034180D01*
X143810499Y-86037489D01*
X143813195Y-86040937D01*
X143815725Y-86044520D01*
X143818083Y-86048233D01*
X143820263Y-86052069D01*
X143822261Y-86056024D01*
X143824072Y-86060093D01*
X143825689Y-86064269D01*
X143827108Y-86068548D01*
X143828323Y-86072924D01*
X143829329Y-86077393D01*
X143830121Y-86081948D01*
X143830693Y-86086584D01*
X143831040Y-86091297D01*
X143831157Y-86096080D01*
X143831157Y-86113952D01*
X143830154Y-86117953D01*
X143826899Y-86129206D01*
X143824313Y-86137199D01*
X143821026Y-86146584D01*
X143816993Y-86157219D01*
X143812169Y-86168963D01*
X143806506Y-86181676D01*
X143799961Y-86195216D01*
X143792485Y-86209444D01*
X143784035Y-86224218D01*
X143774564Y-86239398D01*
X143769431Y-86247096D01*
X143764026Y-86254843D01*
X143758342Y-86262621D01*
X143752375Y-86270413D01*
X143746118Y-86278200D01*
X143739566Y-86285966D01*
X143725034Y-86301369D01*
X143709076Y-86316513D01*
X143691677Y-86331297D01*
X143672826Y-86345619D01*
X143652509Y-86359379D01*
X143630713Y-86372475D01*
X143607424Y-86384805D01*
X143582631Y-86396267D01*
X143556318Y-86406761D01*
X143528475Y-86416185D01*
X143499087Y-86424438D01*
X143468141Y-86431417D01*
X143452080Y-86434398D01*
X143435624Y-86437022D01*
X143418773Y-86439278D01*
X143401524Y-86441151D01*
X143383875Y-86442631D01*
X143365826Y-86443703D01*
X143347375Y-86444356D01*
X143328519Y-86444576D01*
X143299972Y-86444117D01*
X143271357Y-86442683D01*
X143242761Y-86440188D01*
X143214273Y-86436548D01*
X143185982Y-86431678D01*
X143157975Y-86425492D01*
X143130341Y-86417905D01*
X143103169Y-86408833D01*
X143076547Y-86398190D01*
X143050562Y-86385892D01*
X143025304Y-86371852D01*
X143000861Y-86355986D01*
X142977322Y-86338210D01*
X142954773Y-86318437D01*
X142933305Y-86296583D01*
X142913005Y-86272562D01*
X142893971Y-86246581D01*
X142876236Y-86218856D01*
X142859791Y-86189318D01*
X142844625Y-86157898D01*
X142830729Y-86124528D01*
X142818092Y-86089138D01*
X142806706Y-86051661D01*
X142796560Y-86012028D01*
X142787644Y-85970169D01*
X142779949Y-85926016D01*
X142773465Y-85879501D01*
X142768182Y-85830554D01*
X142764090Y-85779108D01*
X142761179Y-85725092D01*
X142759440Y-85668439D01*
X142758862Y-85609079D01*
X142759414Y-85549301D01*
X142761083Y-85492233D01*
X142763883Y-85437809D01*
X142767833Y-85385963D01*
X142772947Y-85336631D01*
X142779242Y-85289746D01*
X142786736Y-85245244D01*
X142795443Y-85203059D01*
X142805381Y-85163125D01*
X142816565Y-85125377D01*
X142829013Y-85089749D01*
X142842740Y-85056177D01*
X142857763Y-85024594D01*
X142874098Y-84994935D01*
X142891762Y-84967135D01*
X142910771Y-84941128D01*
X142920769Y-84928842D01*
X142931072Y-84917108D01*
X142941667Y-84905915D01*
X142952544Y-84895254D01*
X142963693Y-84885112D01*
X142975103Y-84875481D01*
X142986763Y-84866348D01*
X142998663Y-84857704D01*
X143023139Y-84841838D01*
X143048447Y-84827799D01*
X143074500Y-84815500D01*
X143101215Y-84804857D01*
X143128506Y-84795785D01*
X143156287Y-84788199D01*
X143184475Y-84782013D01*
X143212983Y-84777142D01*
X143241726Y-84773502D01*
X143270620Y-84771008D01*
X143299580Y-84769573D01*
X143328519Y-84769114D01*
X143362554Y-84769757D01*
G37*
G36*
X144903090Y-84754178D02*
G01*
X144927091Y-84756260D01*
X144950837Y-84759691D01*
X144974279Y-84764437D01*
X144997367Y-84770465D01*
X145020053Y-84777744D01*
X145042287Y-84786240D01*
X145064021Y-84795921D01*
X145085204Y-84806754D01*
X145105789Y-84818706D01*
X145125726Y-84831744D01*
X145144966Y-84845836D01*
X145163460Y-84860949D01*
X145181159Y-84877050D01*
X145198013Y-84894107D01*
X145213974Y-84912087D01*
X145229419Y-84931377D01*
X145243915Y-84951539D01*
X145257455Y-84972551D01*
X145270033Y-84994394D01*
X145281642Y-85017048D01*
X145292276Y-85040495D01*
X145301929Y-85064714D01*
X145310593Y-85089686D01*
X145318262Y-85115390D01*
X145324930Y-85141808D01*
X145330590Y-85168920D01*
X145335236Y-85196706D01*
X145338861Y-85225146D01*
X145341458Y-85254221D01*
X145343021Y-85283912D01*
X145343544Y-85314198D01*
X145342972Y-85344533D01*
X145341270Y-85374362D01*
X145338463Y-85403647D01*
X145334573Y-85432353D01*
X145329622Y-85460443D01*
X145323634Y-85487883D01*
X145316632Y-85514635D01*
X145308638Y-85540664D01*
X145299676Y-85565934D01*
X145289767Y-85590409D01*
X145278936Y-85614053D01*
X145267205Y-85636829D01*
X145254597Y-85658702D01*
X145241135Y-85679636D01*
X145226842Y-85699595D01*
X145211740Y-85718543D01*
X145202002Y-85729643D01*
X145192054Y-85740328D01*
X145181896Y-85750601D01*
X145171529Y-85760464D01*
X145160953Y-85769922D01*
X145150167Y-85778977D01*
X145139172Y-85787633D01*
X145127967Y-85795893D01*
X145116553Y-85803761D01*
X145104930Y-85811238D01*
X145093097Y-85818330D01*
X145081054Y-85825039D01*
X145068803Y-85831369D01*
X145056341Y-85837322D01*
X145043671Y-85842902D01*
X145030790Y-85848112D01*
X145330140Y-86303838D01*
X145331788Y-86306452D01*
X145333377Y-86309252D01*
X145334901Y-86312217D01*
X145336353Y-86315321D01*
X145337726Y-86318544D01*
X145339015Y-86321862D01*
X145340211Y-86325252D01*
X145341310Y-86328690D01*
X145342303Y-86332155D01*
X145343186Y-86335623D01*
X145343950Y-86339072D01*
X145344591Y-86342478D01*
X145345100Y-86345819D01*
X145345472Y-86349071D01*
X145345700Y-86352212D01*
X145345778Y-86355219D01*
X145345661Y-86360002D01*
X145345313Y-86364714D01*
X145344741Y-86369351D01*
X145343949Y-86373906D01*
X145342943Y-86378374D01*
X145341728Y-86382751D01*
X145340309Y-86387030D01*
X145338692Y-86391206D01*
X145336881Y-86395274D01*
X145334883Y-86399229D01*
X145332703Y-86403066D01*
X145330345Y-86406778D01*
X145327816Y-86410361D01*
X145325120Y-86413810D01*
X145322263Y-86417119D01*
X145319250Y-86420282D01*
X145316086Y-86423295D01*
X145312777Y-86426152D01*
X145309329Y-86428848D01*
X145305746Y-86431378D01*
X145302033Y-86433735D01*
X145298197Y-86435916D01*
X145294242Y-86437914D01*
X145290173Y-86439725D01*
X145285997Y-86441342D01*
X145281718Y-86442761D01*
X145277342Y-86443976D01*
X145272873Y-86444982D01*
X145268318Y-86445774D01*
X145263682Y-86446346D01*
X145258969Y-86446693D01*
X145254186Y-86446810D01*
X145249087Y-86446604D01*
X145243867Y-86445999D01*
X145238562Y-86445014D01*
X145233208Y-86443669D01*
X145227840Y-86441984D01*
X145222496Y-86439978D01*
X145217211Y-86437671D01*
X145212020Y-86435082D01*
X145206960Y-86432232D01*
X145202068Y-86429139D01*
X145197378Y-86425824D01*
X145192927Y-86422307D01*
X145188751Y-86418606D01*
X145184885Y-86414741D01*
X145181367Y-86410732D01*
X145178231Y-86406599D01*
X144831969Y-85877153D01*
X144467835Y-85877153D01*
X144467835Y-86355219D01*
X144467718Y-86360002D01*
X144467371Y-86364714D01*
X144466799Y-86369351D01*
X144466007Y-86373906D01*
X144465001Y-86378374D01*
X144463785Y-86382751D01*
X144462366Y-86387030D01*
X144460749Y-86391206D01*
X144458939Y-86395274D01*
X144456941Y-86399229D01*
X144454760Y-86403066D01*
X144452402Y-86406778D01*
X144449873Y-86410361D01*
X144447177Y-86413810D01*
X144444320Y-86417119D01*
X144441307Y-86420282D01*
X144438143Y-86423295D01*
X144434835Y-86426152D01*
X144431386Y-86428848D01*
X144427803Y-86431378D01*
X144424090Y-86433735D01*
X144420254Y-86435916D01*
X144416299Y-86437914D01*
X144412231Y-86439725D01*
X144408054Y-86441342D01*
X144403775Y-86442761D01*
X144399399Y-86443976D01*
X144394931Y-86444982D01*
X144390376Y-86445774D01*
X144385739Y-86446346D01*
X144381027Y-86446693D01*
X144376243Y-86446810D01*
X144371460Y-86446693D01*
X144366747Y-86446346D01*
X144362111Y-86445774D01*
X144357556Y-86444982D01*
X144353087Y-86443976D01*
X144348711Y-86442761D01*
X144344432Y-86441342D01*
X144340256Y-86439725D01*
X144336187Y-86437914D01*
X144332232Y-86435916D01*
X144328396Y-86433735D01*
X144324684Y-86431378D01*
X144321100Y-86428848D01*
X144317652Y-86426152D01*
X144314343Y-86423295D01*
X144311180Y-86420282D01*
X144308167Y-86417119D01*
X144305309Y-86413810D01*
X144302614Y-86410361D01*
X144300084Y-86406778D01*
X144297726Y-86403066D01*
X144295546Y-86399229D01*
X144293548Y-86395274D01*
X144291737Y-86391206D01*
X144290120Y-86387030D01*
X144288701Y-86382751D01*
X144287486Y-86378374D01*
X144286480Y-86373906D01*
X144285688Y-86369351D01*
X144285116Y-86364714D01*
X144284768Y-86360002D01*
X144284652Y-86355219D01*
X144284652Y-85803433D01*
X144282418Y-85785561D01*
X144282443Y-85784748D01*
X144282514Y-85783977D01*
X144282624Y-85783239D01*
X144282767Y-85782524D01*
X144282936Y-85781822D01*
X144283124Y-85781124D01*
X144283535Y-85779697D01*
X144283743Y-85778949D01*
X144283945Y-85778165D01*
X144284133Y-85777336D01*
X144284303Y-85776451D01*
X144284445Y-85775500D01*
X144284556Y-85774474D01*
X144284626Y-85773363D01*
X144284652Y-85772157D01*
X144284652Y-85696203D01*
X144467835Y-85696203D01*
X144865478Y-85696203D01*
X144865903Y-85696190D01*
X144866340Y-85696153D01*
X144867245Y-85696011D01*
X144868183Y-85695791D01*
X144869143Y-85695505D01*
X144870117Y-85695167D01*
X144871093Y-85694789D01*
X144873018Y-85693969D01*
X144876473Y-85692433D01*
X144877198Y-85692147D01*
X144877847Y-85691927D01*
X144878412Y-85691785D01*
X144878881Y-85691735D01*
X144890051Y-85691735D01*
X144903717Y-85691001D01*
X144917072Y-85689636D01*
X144930120Y-85687636D01*
X144942863Y-85684998D01*
X144955305Y-85681719D01*
X144967450Y-85677795D01*
X144979299Y-85673223D01*
X144990858Y-85667999D01*
X145002129Y-85662122D01*
X145013115Y-85655586D01*
X145023819Y-85648390D01*
X145034245Y-85640529D01*
X145044397Y-85632000D01*
X145054277Y-85622801D01*
X145063888Y-85612928D01*
X145073235Y-85602377D01*
X145082681Y-85590256D01*
X145091730Y-85577350D01*
X145100355Y-85563658D01*
X145108524Y-85549181D01*
X145116210Y-85533919D01*
X145123381Y-85517871D01*
X145130009Y-85501038D01*
X145136065Y-85483419D01*
X145141518Y-85465015D01*
X145146340Y-85445826D01*
X145150501Y-85425851D01*
X145153971Y-85405091D01*
X145156722Y-85383546D01*
X145158723Y-85361215D01*
X145159945Y-85338099D01*
X145160359Y-85314198D01*
X145159970Y-85290714D01*
X145158819Y-85268013D01*
X145156928Y-85246091D01*
X145154320Y-85224944D01*
X145151019Y-85204570D01*
X145147047Y-85184964D01*
X145142427Y-85166125D01*
X145137182Y-85148048D01*
X145131334Y-85130730D01*
X145124908Y-85114167D01*
X145117925Y-85098358D01*
X145110409Y-85083298D01*
X145102383Y-85068984D01*
X145093868Y-85055413D01*
X145084889Y-85042581D01*
X145075469Y-85030486D01*
X145065653Y-85019124D01*
X145055477Y-85008495D01*
X145044947Y-84998600D01*
X145034071Y-84989437D01*
X145022854Y-84981007D01*
X145011304Y-84973311D01*
X144999426Y-84966347D01*
X144987228Y-84960116D01*
X144974715Y-84954619D01*
X144961895Y-84949854D01*
X144948774Y-84945823D01*
X144935358Y-84942524D01*
X144921655Y-84939959D01*
X144907670Y-84938126D01*
X144893410Y-84937027D01*
X144878881Y-84936660D01*
X144467835Y-84936660D01*
X144467835Y-85696203D01*
X144284652Y-85696203D01*
X144284652Y-84936660D01*
X144284652Y-84845068D01*
X144284768Y-84840285D01*
X144285116Y-84835572D01*
X144285688Y-84830936D01*
X144286480Y-84826381D01*
X144287486Y-84821912D01*
X144288701Y-84817536D01*
X144290120Y-84813257D01*
X144291737Y-84809081D01*
X144293548Y-84805012D01*
X144295546Y-84801057D01*
X144297726Y-84797221D01*
X144300084Y-84793508D01*
X144302614Y-84789925D01*
X144305309Y-84786477D01*
X144308167Y-84783168D01*
X144311180Y-84780004D01*
X144314343Y-84776991D01*
X144317652Y-84774134D01*
X144321100Y-84771438D01*
X144324684Y-84768909D01*
X144328396Y-84766551D01*
X144332232Y-84764371D01*
X144336187Y-84762372D01*
X144340256Y-84760562D01*
X144344432Y-84758945D01*
X144348711Y-84757526D01*
X144353087Y-84756311D01*
X144357556Y-84755304D01*
X144362111Y-84754513D01*
X144366747Y-84753940D01*
X144371460Y-84753593D01*
X144376243Y-84753476D01*
X144878882Y-84753476D01*
X144903090Y-84754178D01*
G37*
G36*
X146359918Y-84776175D02*
G01*
X146388952Y-84777325D01*
X146417966Y-84779379D01*
X146446873Y-84782448D01*
X146475583Y-84786642D01*
X146504008Y-84792073D01*
X146532061Y-84798852D01*
X146559652Y-84807091D01*
X146586693Y-84816901D01*
X146613097Y-84828392D01*
X146638773Y-84841677D01*
X146663635Y-84856866D01*
X146687594Y-84874071D01*
X146710561Y-84893404D01*
X146732449Y-84914974D01*
X146753168Y-84938894D01*
X146772620Y-84964901D01*
X146790770Y-84992705D01*
X146807624Y-85022374D01*
X146823189Y-85053978D01*
X146837471Y-85087583D01*
X146850476Y-85123260D01*
X146862212Y-85161078D01*
X146872685Y-85201104D01*
X146881901Y-85243408D01*
X146889867Y-85288058D01*
X146896590Y-85335123D01*
X146902076Y-85384672D01*
X146906331Y-85436773D01*
X146909362Y-85491496D01*
X146911176Y-85548908D01*
X146911779Y-85609079D01*
X146911176Y-85669618D01*
X146909362Y-85727304D01*
X146906331Y-85782215D01*
X146902076Y-85834429D01*
X146896590Y-85884025D01*
X146889867Y-85931082D01*
X146881901Y-85975678D01*
X146872685Y-86017892D01*
X146862212Y-86057802D01*
X146850476Y-86095487D01*
X146837471Y-86131025D01*
X146823189Y-86164495D01*
X146807624Y-86195975D01*
X146790770Y-86225545D01*
X146772620Y-86253281D01*
X146753168Y-86279264D01*
X146742960Y-86291531D01*
X146732449Y-86303209D01*
X146721646Y-86314311D01*
X146710561Y-86324851D01*
X146699207Y-86334840D01*
X146687594Y-86344293D01*
X146675733Y-86353222D01*
X146663635Y-86361641D01*
X146638773Y-86376999D01*
X146613097Y-86390473D01*
X146586693Y-86402166D01*
X146559652Y-86412184D01*
X146532061Y-86420631D01*
X146504008Y-86427612D01*
X146475583Y-86433232D01*
X146446873Y-86437595D01*
X146417966Y-86440807D01*
X146388952Y-86442971D01*
X146359918Y-86444192D01*
X146330952Y-86444576D01*
X146302012Y-86444167D01*
X146273048Y-86442875D01*
X146244144Y-86440601D01*
X146215380Y-86437246D01*
X146186839Y-86432714D01*
X146158602Y-86426906D01*
X146130751Y-86419723D01*
X146103368Y-86411067D01*
X146076535Y-86400841D01*
X146050334Y-86388946D01*
X146024846Y-86375284D01*
X146000153Y-86359756D01*
X145976337Y-86342265D01*
X145953480Y-86322713D01*
X145931663Y-86301000D01*
X145910969Y-86277030D01*
X145891542Y-86251048D01*
X145873463Y-86223315D01*
X145856720Y-86193756D01*
X145841298Y-86162296D01*
X145827185Y-86128859D01*
X145814368Y-86093371D01*
X145802834Y-86055755D01*
X145792570Y-86015937D01*
X145783562Y-85973842D01*
X145775798Y-85929394D01*
X145769264Y-85882517D01*
X145763947Y-85833137D01*
X145759835Y-85781179D01*
X145756914Y-85726567D01*
X145755171Y-85669225D01*
X145754593Y-85609079D01*
X145937776Y-85609079D01*
X145938369Y-85665221D01*
X145940110Y-85718098D01*
X145942945Y-85767793D01*
X145946816Y-85814393D01*
X145951670Y-85857982D01*
X145957449Y-85898646D01*
X145964100Y-85936470D01*
X145971564Y-85971538D01*
X145979788Y-86003935D01*
X145988716Y-86033748D01*
X145998292Y-86061060D01*
X146008460Y-86085958D01*
X146019164Y-86108525D01*
X146030350Y-86128848D01*
X146041961Y-86147011D01*
X146053942Y-86163099D01*
X146059872Y-86170456D01*
X146065937Y-86177456D01*
X146072141Y-86184105D01*
X146078489Y-86190412D01*
X146084984Y-86196386D01*
X146091630Y-86202034D01*
X146098431Y-86207364D01*
X146105392Y-86212385D01*
X146112517Y-86217105D01*
X146119809Y-86221533D01*
X146127273Y-86225675D01*
X146134914Y-86229541D01*
X146142734Y-86233139D01*
X146150738Y-86236477D01*
X146167315Y-86242404D01*
X146184677Y-86247389D01*
X146202857Y-86251497D01*
X146221888Y-86254793D01*
X146241803Y-86257344D01*
X146262634Y-86259213D01*
X146284414Y-86260468D01*
X146307176Y-86261172D01*
X146330952Y-86261393D01*
X146355146Y-86261173D01*
X146378323Y-86260472D01*
X146400512Y-86259228D01*
X146421741Y-86257378D01*
X146442041Y-86254861D01*
X146461442Y-86251615D01*
X146479972Y-86247576D01*
X146497661Y-86242683D01*
X146514538Y-86236874D01*
X146530633Y-86230087D01*
X146545976Y-86222259D01*
X146560595Y-86213328D01*
X146574521Y-86203232D01*
X146587782Y-86191909D01*
X146600408Y-86179296D01*
X146612429Y-86165333D01*
X146624410Y-86149637D01*
X146636021Y-86131810D01*
X146647207Y-86111765D01*
X146657912Y-86089413D01*
X146668079Y-86064666D01*
X146677655Y-86037435D01*
X146686583Y-86007631D01*
X146694807Y-85975168D01*
X146702272Y-85939955D01*
X146708922Y-85901905D01*
X146714701Y-85860930D01*
X146719555Y-85816941D01*
X146723427Y-85769850D01*
X146726261Y-85719568D01*
X146728003Y-85666007D01*
X146728595Y-85609079D01*
X146728003Y-85552544D01*
X146726261Y-85499328D01*
X146723427Y-85449344D01*
X146719555Y-85402509D01*
X146714701Y-85358736D01*
X146708922Y-85317941D01*
X146702272Y-85280039D01*
X146694807Y-85244945D01*
X146686583Y-85212574D01*
X146677655Y-85182840D01*
X146668079Y-85155658D01*
X146657912Y-85130944D01*
X146647207Y-85108612D01*
X146636021Y-85088578D01*
X146624410Y-85070755D01*
X146612429Y-85055060D01*
X146606493Y-85047898D01*
X146600408Y-85041071D01*
X146594173Y-85034569D01*
X146587782Y-85028387D01*
X146581232Y-85022518D01*
X146574521Y-85016954D01*
X146567643Y-85011689D01*
X146560595Y-85006716D01*
X146553374Y-85002027D01*
X146545976Y-84997616D01*
X146538397Y-84993475D01*
X146530633Y-84989599D01*
X146522681Y-84985979D01*
X146514538Y-84982609D01*
X146497661Y-84976592D01*
X146479972Y-84971491D01*
X146461442Y-84967251D01*
X146442041Y-84963815D01*
X146421741Y-84961129D01*
X146400512Y-84959137D01*
X146378323Y-84957782D01*
X146355146Y-84957011D01*
X146330952Y-84956766D01*
X146307176Y-84957011D01*
X146284414Y-84957787D01*
X146262634Y-84959151D01*
X146241803Y-84961164D01*
X146221888Y-84963883D01*
X146202857Y-84967368D01*
X146184677Y-84971678D01*
X146167315Y-84976871D01*
X146150738Y-84983007D01*
X146134914Y-84990144D01*
X146119809Y-84998341D01*
X146105392Y-85007658D01*
X146091630Y-85018152D01*
X146078489Y-85029884D01*
X146065937Y-85042911D01*
X146053942Y-85057293D01*
X146041961Y-85073356D01*
X146030350Y-85091448D01*
X146019164Y-85111661D01*
X146008460Y-85134085D01*
X145998292Y-85158814D01*
X145988716Y-85185938D01*
X145979788Y-85215548D01*
X145971564Y-85247738D01*
X145964100Y-85282597D01*
X145957449Y-85320219D01*
X145951670Y-85360694D01*
X145946816Y-85404114D01*
X145942945Y-85450571D01*
X145940110Y-85500157D01*
X145938369Y-85552962D01*
X145937776Y-85609079D01*
X145754593Y-85609079D01*
X145755171Y-85549326D01*
X145756914Y-85492329D01*
X145759835Y-85438015D01*
X145763947Y-85386312D01*
X145769264Y-85337149D01*
X145775798Y-85290453D01*
X145783562Y-85246153D01*
X145792570Y-85204176D01*
X145802834Y-85164450D01*
X145814368Y-85126904D01*
X145827185Y-85091465D01*
X145841298Y-85058061D01*
X145856720Y-85026621D01*
X145873463Y-84997073D01*
X145891542Y-84969344D01*
X145910969Y-84943362D01*
X145921177Y-84931089D01*
X145931688Y-84919392D01*
X145942490Y-84908260D01*
X145953571Y-84897680D01*
X145964921Y-84887639D01*
X145976528Y-84878127D01*
X145988381Y-84869130D01*
X146000467Y-84860636D01*
X146025296Y-84845109D01*
X146050923Y-84831446D01*
X146077257Y-84819551D01*
X146104206Y-84809325D01*
X146131679Y-84800670D01*
X146159583Y-84793487D01*
X146187829Y-84787678D01*
X146216322Y-84783146D01*
X146244973Y-84779792D01*
X146273690Y-84777517D01*
X146302380Y-84776225D01*
X146330952Y-84775816D01*
X146359918Y-84776175D01*
G37*
G36*
X148279270Y-84766997D02*
G01*
X148283982Y-84767344D01*
X148288619Y-84767916D01*
X148293174Y-84768708D01*
X148297642Y-84769714D01*
X148302018Y-84770930D01*
X148306297Y-84772348D01*
X148310474Y-84773966D01*
X148314542Y-84775776D01*
X148318497Y-84777774D01*
X148322333Y-84779955D01*
X148326046Y-84782313D01*
X148329629Y-84784842D01*
X148333078Y-84787538D01*
X148336386Y-84790395D01*
X148339550Y-84793408D01*
X148342563Y-84796572D01*
X148345420Y-84799880D01*
X148348116Y-84803329D01*
X148350645Y-84806912D01*
X148353003Y-84810625D01*
X148355184Y-84814461D01*
X148357182Y-84818416D01*
X148358992Y-84822484D01*
X148360609Y-84826661D01*
X148362028Y-84830940D01*
X148363243Y-84835316D01*
X148364250Y-84839784D01*
X148365041Y-84844339D01*
X148365614Y-84848976D01*
X148365961Y-84853689D01*
X148366078Y-84858472D01*
X148366078Y-84860706D01*
X148366078Y-86352984D01*
X148365961Y-86357768D01*
X148365614Y-86362480D01*
X148365041Y-86367117D01*
X148364250Y-86371672D01*
X148363243Y-86376140D01*
X148362028Y-86380517D01*
X148360609Y-86384795D01*
X148358992Y-86388972D01*
X148357182Y-86393040D01*
X148355184Y-86396995D01*
X148353003Y-86400832D01*
X148350645Y-86404544D01*
X148348116Y-86408127D01*
X148345420Y-86411576D01*
X148342563Y-86414885D01*
X148339550Y-86418048D01*
X148336386Y-86421061D01*
X148333078Y-86423918D01*
X148329629Y-86426614D01*
X148326046Y-86429144D01*
X148322333Y-86431501D01*
X148318497Y-86433682D01*
X148314542Y-86435680D01*
X148310474Y-86437490D01*
X148306297Y-86439108D01*
X148302018Y-86440527D01*
X148297642Y-86441742D01*
X148293174Y-86442748D01*
X148288619Y-86443540D01*
X148283982Y-86444112D01*
X148279270Y-86444459D01*
X148274486Y-86444576D01*
X148268944Y-86444369D01*
X148263242Y-86443756D01*
X148257429Y-86442750D01*
X148251553Y-86441365D01*
X148245665Y-86439613D01*
X148239812Y-86437508D01*
X148234045Y-86435062D01*
X148228411Y-86432290D01*
X148222961Y-86429203D01*
X148217743Y-86425815D01*
X148212807Y-86422139D01*
X148208201Y-86418188D01*
X148203975Y-86413975D01*
X148200177Y-86409514D01*
X148198454Y-86407194D01*
X148196857Y-86404817D01*
X148195392Y-86402384D01*
X148194064Y-86399897D01*
X147521649Y-85206968D01*
X147521649Y-86352984D01*
X147521532Y-86357768D01*
X147521185Y-86362480D01*
X147520612Y-86367117D01*
X147519821Y-86371672D01*
X147518814Y-86376140D01*
X147517599Y-86380517D01*
X147516180Y-86384796D01*
X147514563Y-86388972D01*
X147512753Y-86393040D01*
X147510755Y-86396995D01*
X147508574Y-86400832D01*
X147506216Y-86404544D01*
X147503687Y-86408127D01*
X147500991Y-86411576D01*
X147498134Y-86414885D01*
X147495121Y-86418048D01*
X147491957Y-86421061D01*
X147488649Y-86423918D01*
X147485200Y-86426614D01*
X147481617Y-86429144D01*
X147477904Y-86431502D01*
X147474068Y-86433682D01*
X147470113Y-86435680D01*
X147466045Y-86437491D01*
X147461868Y-86439108D01*
X147457589Y-86440527D01*
X147453213Y-86441742D01*
X147448745Y-86442748D01*
X147444190Y-86443540D01*
X147439553Y-86444112D01*
X147434840Y-86444460D01*
X147430057Y-86444576D01*
X147425274Y-86444460D01*
X147420561Y-86444112D01*
X147415925Y-86443540D01*
X147411370Y-86442748D01*
X147406901Y-86441742D01*
X147402525Y-86440527D01*
X147398246Y-86439108D01*
X147394070Y-86437491D01*
X147390001Y-86435680D01*
X147386046Y-86433682D01*
X147382210Y-86431502D01*
X147378497Y-86429144D01*
X147374914Y-86426614D01*
X147371466Y-86423918D01*
X147368157Y-86421061D01*
X147364993Y-86418048D01*
X147361981Y-86414885D01*
X147359123Y-86411576D01*
X147356427Y-86408127D01*
X147353898Y-86404544D01*
X147351540Y-86400832D01*
X147349360Y-86396995D01*
X147347362Y-86393040D01*
X147345551Y-86388972D01*
X147343934Y-86384796D01*
X147342515Y-86380517D01*
X147341300Y-86376140D01*
X147340294Y-86371672D01*
X147339502Y-86367117D01*
X147338930Y-86362480D01*
X147338582Y-86357768D01*
X147338466Y-86352984D01*
X147338466Y-84860706D01*
X147338582Y-84855923D01*
X147338930Y-84851210D01*
X147339502Y-84846573D01*
X147340294Y-84842018D01*
X147341300Y-84837550D01*
X147342515Y-84833174D01*
X147343934Y-84828895D01*
X147345551Y-84824718D01*
X147347362Y-84820650D01*
X147349360Y-84816695D01*
X147351540Y-84812859D01*
X147353898Y-84809146D01*
X147356427Y-84805563D01*
X147359123Y-84802114D01*
X147361981Y-84798806D01*
X147364993Y-84795642D01*
X147368157Y-84792629D01*
X147371466Y-84789772D01*
X147374914Y-84787076D01*
X147378497Y-84784547D01*
X147382210Y-84782189D01*
X147386046Y-84780008D01*
X147390001Y-84778010D01*
X147394070Y-84776200D01*
X147398246Y-84774582D01*
X147402525Y-84773164D01*
X147406901Y-84771948D01*
X147411370Y-84770942D01*
X147415925Y-84770150D01*
X147420561Y-84769578D01*
X147425274Y-84769231D01*
X147430057Y-84769114D01*
X147435599Y-84769321D01*
X147441301Y-84769934D01*
X147447114Y-84770940D01*
X147452990Y-84772325D01*
X147458879Y-84774077D01*
X147464731Y-84776182D01*
X147470499Y-84778628D01*
X147476132Y-84781401D01*
X147481582Y-84784488D01*
X147486800Y-84787876D01*
X147491737Y-84791552D01*
X147496342Y-84795502D01*
X147500569Y-84799715D01*
X147504366Y-84804176D01*
X147506089Y-84806496D01*
X147507686Y-84808873D01*
X147509152Y-84811306D01*
X147510479Y-84813793D01*
X148182898Y-86006722D01*
X148182898Y-84860706D01*
X148182898Y-84858472D01*
X148183015Y-84853885D01*
X148183362Y-84849344D01*
X148183933Y-84844855D01*
X148184722Y-84840426D01*
X148185724Y-84836061D01*
X148186933Y-84831769D01*
X148188343Y-84827555D01*
X148189949Y-84823427D01*
X148191745Y-84819390D01*
X148193724Y-84815451D01*
X148195882Y-84811617D01*
X148198213Y-84807894D01*
X148200710Y-84804289D01*
X148203369Y-84800808D01*
X148206183Y-84797458D01*
X148209147Y-84794246D01*
X148212255Y-84791177D01*
X148215501Y-84788260D01*
X148218880Y-84785499D01*
X148222385Y-84782902D01*
X148226011Y-84780475D01*
X148229753Y-84778224D01*
X148233605Y-84776157D01*
X148237560Y-84774280D01*
X148241614Y-84772599D01*
X148245760Y-84771121D01*
X148249992Y-84769852D01*
X148254306Y-84768800D01*
X148258695Y-84767970D01*
X148263153Y-84767369D01*
X148267676Y-84767003D01*
X148272256Y-84766880D01*
X148274486Y-84766880D01*
X148279270Y-84766997D01*
G37*
D12*
X130404909Y-107235499D02*
X130643004Y-107235499D01*
X130547766Y-107473594D02*
X130643004Y-107235499D01*
X130643004Y-107235499D02*
X130547766Y-106997404D01*
X130833480Y-107378356D02*
X130643004Y-107235499D01*
X130643004Y-107235499D02*
X130833480Y-107092642D01*
X130404909Y-107235499D02*
X130643004Y-107235499D01*
X130547766Y-107473594D02*
X130643004Y-107235499D01*
X130643004Y-107235499D02*
X130547766Y-106997404D01*
X130833480Y-107378356D02*
X130643004Y-107235499D01*
X130643004Y-107235499D02*
X130833480Y-107092642D01*
X130404909Y-96235499D02*
X130643004Y-96235499D01*
X130547766Y-96473594D02*
X130643004Y-96235499D01*
X130643004Y-96235499D02*
X130547766Y-95997404D01*
X130833480Y-96378356D02*
X130643004Y-96235499D01*
X130643004Y-96235499D02*
X130833480Y-96092642D01*
X130404909Y-96235499D02*
X130643004Y-96235499D01*
X130547766Y-96473594D02*
X130643004Y-96235499D01*
X130643004Y-96235499D02*
X130547766Y-95997404D01*
X130833480Y-96378356D02*
X130643004Y-96235499D01*
X130643004Y-96235499D02*
X130833480Y-96092642D01*
D13*
%TO.C,U1*%
X126427000Y-85065500D02*
G75*
G02*
X126223800Y-85065500I-101600J0D01*
G01*
X126223800Y-85065500D02*
G75*
G02*
X126427000Y-85065500I101600J0D01*
G01*
X127204000Y-86845800D02*
X129464600Y-86845800D01*
X129464600Y-84585200D02*
X127204000Y-84585200D01*
D14*
%TO.C,SW200*%
X134274500Y-117595500D02*
X134274500Y-111135500D01*
X134274500Y-117595500D02*
X134244500Y-117595500D01*
X134274500Y-111135500D02*
X134244500Y-111135500D01*
X129744500Y-117595500D02*
X132344500Y-117595500D01*
X129744500Y-111135500D02*
X132344500Y-111135500D01*
X127844500Y-117595500D02*
X127814500Y-117595500D01*
X127814500Y-117595500D02*
X127814500Y-111135500D01*
X127814500Y-111135500D02*
X127844500Y-111135500D01*
%TO.C,SW201*%
X157274500Y-117595500D02*
X157244500Y-117595500D01*
X157274500Y-111135500D02*
X157274500Y-117595500D01*
X157244500Y-111135500D02*
X157274500Y-111135500D01*
X155344500Y-117595500D02*
X152744500Y-117595500D01*
X155344500Y-111135500D02*
X152744500Y-111135500D01*
X150814500Y-117595500D02*
X150844500Y-117595500D01*
X150814500Y-111135500D02*
X150844500Y-111135500D01*
X150814500Y-111135500D02*
X150814500Y-117595500D01*
D13*
%TO.C,U101*%
X160477590Y-108632500D02*
X160477590Y-98218500D01*
X160477590Y-98218500D02*
X124663590Y-98218500D01*
X124663590Y-108632500D02*
X160477590Y-108632500D01*
X124663590Y-98218500D02*
X124663590Y-108632500D01*
%TO.C,SW202*%
D15*
X137304798Y-109390500D02*
X147804798Y-109390500D01*
X147804798Y-119790500D01*
X137304798Y-119790500D01*
X137304798Y-109390500D01*
D13*
%TO.C,U102*%
X160477590Y-97632500D02*
X160477590Y-87218500D01*
X160477590Y-87218500D02*
X124663590Y-87218500D01*
X124663590Y-97632500D02*
X160477590Y-97632500D01*
X124663590Y-87218500D02*
X124663590Y-97632500D01*
%TD*%
M02*
