%TF.GenerationSoftware,KiCad,Pcbnew,9.0.2+1*%
%TF.CreationDate,2025-07-26T18:11:14+01:00*%
%TF.ProjectId,DigiCron,44696769-4372-46f6-9e2e-6b696361645f,1*%
%TF.SameCoordinates,Original*%
%TF.FileFunction,Paste,Bot*%
%TF.FilePolarity,Positive*%
%FSLAX46Y46*%
G04 Gerber Fmt 4.6, Leading zero omitted, Abs format (unit mm)*
G04 Created by KiCad (PCBNEW 9.0.2+1) date 2025-07-26 18:11:14*
%MOMM*%
%LPD*%
G01*
G04 APERTURE LIST*
G04 Aperture macros list*
%AMRoundRect*
0 Rectangle with rounded corners*
0 $1 Rounding radius*
0 $2 $3 $4 $5 $6 $7 $8 $9 X,Y pos of 4 corners*
0 Add a 4 corners polygon primitive as box body*
4,1,4,$2,$3,$4,$5,$6,$7,$8,$9,$2,$3,0*
0 Add four circle primitives for the rounded corners*
1,1,$1+$1,$2,$3*
1,1,$1+$1,$4,$5*
1,1,$1+$1,$6,$7*
1,1,$1+$1,$8,$9*
0 Add four rect primitives between the rounded corners*
20,1,$1+$1,$2,$3,$4,$5,0*
20,1,$1+$1,$4,$5,$6,$7,0*
20,1,$1+$1,$6,$7,$8,$9,0*
20,1,$1+$1,$8,$9,$2,$3,0*%
G04 Aperture macros list end*
%ADD10RoundRect,0.160000X-0.197500X-0.160000X0.197500X-0.160000X0.197500X0.160000X-0.197500X0.160000X0*%
%ADD11RoundRect,0.160000X-0.160000X0.197500X-0.160000X-0.197500X0.160000X-0.197500X0.160000X0.197500X0*%
%ADD12RoundRect,0.160000X0.197500X0.160000X-0.197500X0.160000X-0.197500X-0.160000X0.197500X-0.160000X0*%
%ADD13RoundRect,0.160000X0.160000X-0.197500X0.160000X0.197500X-0.160000X0.197500X-0.160000X-0.197500X0*%
%ADD14R,0.558800X0.952500*%
%ADD15R,0.813000X0.500000*%
%ADD16R,0.449200X1.117800*%
%ADD17RoundRect,0.112500X-0.237500X0.112500X-0.237500X-0.112500X0.237500X-0.112500X0.237500X0.112500X0*%
%ADD18R,0.700000X0.300000*%
%ADD19RoundRect,0.150000X-0.587500X-0.150000X0.587500X-0.150000X0.587500X0.150000X-0.587500X0.150000X0*%
%ADD20R,0.350000X0.500000*%
%ADD21RoundRect,0.250000X0.750000X-0.250000X0.750000X0.250000X-0.750000X0.250000X-0.750000X-0.250000X0*%
%ADD22RoundRect,0.225000X0.375000X-0.225000X0.375000X0.225000X-0.375000X0.225000X-0.375000X-0.225000X0*%
%ADD23R,1.320800X0.558800*%
%ADD24RoundRect,0.150000X-0.512500X-0.150000X0.512500X-0.150000X0.512500X0.150000X-0.512500X0.150000X0*%
%ADD25RoundRect,0.250001X0.849999X-0.462499X0.849999X0.462499X-0.849999X0.462499X-0.849999X-0.462499X0*%
%ADD26R,0.670001X0.299999*%
%ADD27R,0.600000X0.400000*%
%ADD28R,0.400000X0.600000*%
%ADD29RoundRect,0.250001X1.449999X-0.499999X1.449999X0.499999X-1.449999X0.499999X-1.449999X-0.499999X0*%
%ADD30RoundRect,0.250000X1.500000X-0.250000X1.500000X0.250000X-1.500000X0.250000X-1.500000X-0.250000X0*%
%ADD31R,1.900000X1.100000*%
%ADD32RoundRect,0.225000X-0.375000X0.225000X-0.375000X-0.225000X0.375000X-0.225000X0.375000X0.225000X0*%
G04 APERTURE END LIST*
D10*
%TO.C,R210*%
X144129500Y-118115500D03*
X145324500Y-118115500D03*
%TD*%
%TO.C,R209*%
X144129500Y-119365500D03*
X145324500Y-119365500D03*
%TD*%
D11*
%TO.C,R208*%
X129724500Y-106518000D03*
X129724500Y-107713000D03*
%TD*%
D10*
%TO.C,R207*%
X149947000Y-110365500D03*
X151142000Y-110365500D03*
%TD*%
D12*
%TO.C,R206*%
X151142000Y-109365500D03*
X149947000Y-109365500D03*
%TD*%
%TO.C,R205*%
X135574500Y-99115500D03*
X134379500Y-99115500D03*
%TD*%
D10*
%TO.C,R204*%
X134379500Y-100115500D03*
X135574500Y-100115500D03*
%TD*%
%TO.C,R203*%
X142229500Y-104615500D03*
X143424500Y-104615500D03*
%TD*%
D13*
%TO.C,R202*%
X144124500Y-110660500D03*
X144124500Y-109465500D03*
%TD*%
D12*
%TO.C,R201*%
X153674500Y-99865500D03*
X152479500Y-99865500D03*
%TD*%
D11*
%TO.C,R200*%
X149874500Y-104215500D03*
X149874500Y-105410500D03*
%TD*%
%TO.C,R107*%
X132924500Y-85368000D03*
X132924500Y-86563000D03*
%TD*%
D10*
%TO.C,R106*%
X129497000Y-94115500D03*
X130692000Y-94115500D03*
%TD*%
D13*
%TO.C,R104*%
X146294500Y-97163000D03*
X146294500Y-95968000D03*
%TD*%
%TO.C,R103*%
X147374500Y-97163000D03*
X147374500Y-95968000D03*
%TD*%
D12*
%TO.C,R102*%
X142122000Y-93865500D03*
X140927000Y-93865500D03*
%TD*%
D13*
%TO.C,R101*%
X144794500Y-97145500D03*
X144794500Y-95950500D03*
%TD*%
D12*
%TO.C,C207*%
X126924500Y-96265500D03*
X125729500Y-96265500D03*
%TD*%
%TO.C,C206*%
X126922000Y-91015500D03*
X125727000Y-91015500D03*
%TD*%
D11*
%TO.C,C205*%
X125624500Y-102518000D03*
X125624500Y-103713000D03*
%TD*%
%TO.C,C204*%
X131219500Y-101700500D03*
X131219500Y-102895500D03*
%TD*%
%TO.C,C203*%
X130224500Y-101700500D03*
X130224500Y-102895500D03*
%TD*%
D13*
%TO.C,C202*%
X136794500Y-105610500D03*
X136794500Y-104415500D03*
%TD*%
%TO.C,C201*%
X143719500Y-102538000D03*
X143719500Y-101343000D03*
%TD*%
%TO.C,C200*%
X148824500Y-105410500D03*
X148824500Y-104215500D03*
%TD*%
D12*
%TO.C,R100*%
X153574500Y-95115500D03*
X152379500Y-95115500D03*
%TD*%
D14*
%TO.C,U200*%
X141174100Y-101615500D03*
X139294500Y-101615500D03*
X139294500Y-104371400D03*
X140234300Y-104371400D03*
X141174100Y-104371400D03*
%TD*%
D15*
%TO.C,U104*%
X135076002Y-95986401D03*
D16*
X134794501Y-97357302D03*
X135594500Y-97357302D03*
X136394501Y-97357302D03*
X137194499Y-97357302D03*
X137994500Y-97357302D03*
X138794501Y-97357302D03*
D15*
X138512998Y-95986401D03*
D16*
X138794499Y-94615500D03*
X137994500Y-94615500D03*
X137194499Y-94615500D03*
X136394501Y-94615500D03*
X135594500Y-94615500D03*
X134794499Y-94615500D03*
%TD*%
D17*
%TO.C,D201*%
X138294500Y-106615500D03*
X140294500Y-107265500D03*
X140294500Y-105965500D03*
%TD*%
D18*
%TO.C,X200*%
X153794500Y-102615500D03*
X153794500Y-103115500D03*
X153794500Y-103615500D03*
X153794500Y-104115500D03*
X153794500Y-104615500D03*
X153794500Y-105115500D03*
X153794500Y-105615500D03*
X153794500Y-106115500D03*
X153794500Y-106615500D03*
X153794500Y-107115500D03*
X153794500Y-107615500D03*
X153794500Y-108115500D03*
X152094500Y-108365500D03*
X152094500Y-107865500D03*
X152094500Y-107365500D03*
X152094500Y-106865500D03*
X152094500Y-106365500D03*
X152094500Y-105865500D03*
X152094500Y-105365500D03*
X152094500Y-104865500D03*
X152094500Y-104365500D03*
X152094500Y-103865500D03*
X152094500Y-103365500D03*
X152094500Y-102865500D03*
%TD*%
D19*
%TO.C,Q100*%
X140669500Y-91615500D03*
X138794500Y-90665500D03*
X138794500Y-92565500D03*
%TD*%
D20*
%TO.C,U105*%
X131269500Y-92640500D03*
X130619500Y-92640500D03*
X129969500Y-92640500D03*
X129319500Y-92640500D03*
X129319500Y-90590500D03*
X129969500Y-90590500D03*
X130619500Y-90590500D03*
X131269500Y-90590500D03*
%TD*%
D21*
%TO.C,J103*%
X144294500Y-94115500D03*
%TD*%
%TO.C,J100*%
X150794500Y-91115500D03*
%TD*%
D22*
%TO.C,D200*%
X146794500Y-102465500D03*
X146794500Y-105765500D03*
%TD*%
D23*
%TO.C,Q200*%
X148044500Y-109615500D03*
X145656900Y-108663000D03*
X145656900Y-110568000D03*
%TD*%
D24*
%TO.C,U202*%
X128319500Y-107015500D03*
X128319500Y-105115500D03*
X126044500Y-105115500D03*
X126044500Y-106065500D03*
X126044500Y-107015500D03*
%TD*%
D25*
%TO.C,L200*%
X133044500Y-101865500D03*
X133044500Y-104190500D03*
%TD*%
D19*
%TO.C,Q101*%
X136294500Y-91615500D03*
X134419500Y-90665500D03*
X134419500Y-92565500D03*
%TD*%
D26*
%TO.C,U201*%
X135314498Y-102365501D03*
X135314498Y-102865500D03*
X135314498Y-103365502D03*
X136794500Y-103365502D03*
X136794500Y-102865500D03*
X136794500Y-102365501D03*
%TD*%
D27*
%TO.C,U100*%
X135094500Y-116015500D03*
X135094500Y-115215500D03*
X135094500Y-114415500D03*
X135094500Y-113615500D03*
X135094500Y-112815500D03*
X135094500Y-112015500D03*
D28*
X130794500Y-118665500D03*
X131494500Y-117765500D03*
X131894500Y-118665500D03*
X132294500Y-117765500D03*
X132694500Y-118665500D03*
X133094500Y-117765500D03*
X133894500Y-117765500D03*
X134294500Y-118665500D03*
X134694500Y-117765500D03*
X135094500Y-118665500D03*
X135494500Y-117765500D03*
X135894500Y-118665500D03*
X136294500Y-117765500D03*
X137094500Y-117765500D03*
X137494500Y-118665500D03*
X137894500Y-117765500D03*
X138294500Y-118665500D03*
X138694500Y-117765500D03*
X139094500Y-118665500D03*
X139494500Y-117765500D03*
X139894500Y-118665500D03*
X140694500Y-118665500D03*
D27*
X141694500Y-118815500D03*
X141694500Y-118015500D03*
X141694500Y-117215500D03*
X141694500Y-116415500D03*
X140794500Y-116015500D03*
X141694500Y-115615500D03*
X140794500Y-115215500D03*
X141694500Y-114815500D03*
X140794500Y-114415500D03*
X141694500Y-114015500D03*
X140794500Y-113615500D03*
X141694500Y-113215500D03*
X140794500Y-112815500D03*
X141694500Y-112415500D03*
X140794500Y-112015500D03*
X141694500Y-111615500D03*
X141694500Y-110815500D03*
X141694500Y-110015500D03*
X141694500Y-109215500D03*
D28*
X138294500Y-109365500D03*
X137894500Y-110265500D03*
X137494500Y-109365500D03*
X137094500Y-110265500D03*
X136694500Y-109365500D03*
X136294500Y-110265500D03*
X135894500Y-109365500D03*
X135494500Y-110265500D03*
X135094500Y-109365500D03*
X134694500Y-110265500D03*
X134294500Y-109365500D03*
X132694500Y-109365500D03*
X131894500Y-109365500D03*
X130794500Y-109365500D03*
%TD*%
D21*
%TO.C,J101*%
X148794500Y-94115500D03*
%TD*%
%TO.C,J102*%
X146294500Y-91115500D03*
%TD*%
D29*
%TO.C,J200*%
X152294500Y-112265500D03*
X152294500Y-118965500D03*
D30*
X158044500Y-114615500D03*
X158044500Y-116615500D03*
%TD*%
D31*
%TO.C,XTAL200*%
X127294500Y-94865500D03*
X127294500Y-92365500D03*
%TD*%
D32*
%TO.C,D101*%
X134794500Y-88915500D03*
X134794500Y-85615500D03*
%TD*%
M02*
