%TF.GenerationSoftware,KiCad,Pcbnew,9.0.2+1*%
%TF.CreationDate,2025-07-26T18:11:14+01:00*%
%TF.ProjectId,DigiCron,44696769-4372-46f6-9e2e-6b696361645f,1*%
%TF.SameCoordinates,Original*%
%TF.FileFunction,Copper,L2,Bot*%
%TF.FilePolarity,Positive*%
%FSLAX46Y46*%
G04 Gerber Fmt 4.6, Leading zero omitted, Abs format (unit mm)*
G04 Created by KiCad (PCBNEW 9.0.2+1) date 2025-07-26 18:11:14*
%MOMM*%
%LPD*%
G01*
G04 APERTURE LIST*
G04 Aperture macros list*
%AMRoundRect*
0 Rectangle with rounded corners*
0 $1 Rounding radius*
0 $2 $3 $4 $5 $6 $7 $8 $9 X,Y pos of 4 corners*
0 Add a 4 corners polygon primitive as box body*
4,1,4,$2,$3,$4,$5,$6,$7,$8,$9,$2,$3,0*
0 Add four circle primitives for the rounded corners*
1,1,$1+$1,$2,$3*
1,1,$1+$1,$4,$5*
1,1,$1+$1,$6,$7*
1,1,$1+$1,$8,$9*
0 Add four rect primitives between the rounded corners*
20,1,$1+$1,$2,$3,$4,$5,0*
20,1,$1+$1,$4,$5,$6,$7,0*
20,1,$1+$1,$6,$7,$8,$9,0*
20,1,$1+$1,$8,$9,$2,$3,0*%
G04 Aperture macros list end*
%TA.AperFunction,SMDPad,CuDef*%
%ADD10RoundRect,0.160000X-0.197500X-0.160000X0.197500X-0.160000X0.197500X0.160000X-0.197500X0.160000X0*%
%TD*%
%TA.AperFunction,SMDPad,CuDef*%
%ADD11RoundRect,0.160000X-0.160000X0.197500X-0.160000X-0.197500X0.160000X-0.197500X0.160000X0.197500X0*%
%TD*%
%TA.AperFunction,SMDPad,CuDef*%
%ADD12RoundRect,0.160000X0.197500X0.160000X-0.197500X0.160000X-0.197500X-0.160000X0.197500X-0.160000X0*%
%TD*%
%TA.AperFunction,SMDPad,CuDef*%
%ADD13RoundRect,0.160000X0.160000X-0.197500X0.160000X0.197500X-0.160000X0.197500X-0.160000X-0.197500X0*%
%TD*%
%TA.AperFunction,SMDPad,CuDef*%
%ADD14R,0.558800X0.952500*%
%TD*%
%TA.AperFunction,SMDPad,CuDef*%
%ADD15R,0.813000X0.500000*%
%TD*%
%TA.AperFunction,SMDPad,CuDef*%
%ADD16R,0.449200X1.117800*%
%TD*%
%TA.AperFunction,SMDPad,CuDef*%
%ADD17RoundRect,0.112500X-0.237500X0.112500X-0.237500X-0.112500X0.237500X-0.112500X0.237500X0.112500X0*%
%TD*%
%TA.AperFunction,ComponentPad*%
%ADD18O,1.400000X0.800000*%
%TD*%
%TA.AperFunction,SMDPad,CuDef*%
%ADD19R,0.700000X0.300000*%
%TD*%
%TA.AperFunction,SMDPad,CuDef*%
%ADD20RoundRect,0.150000X-0.587500X-0.150000X0.587500X-0.150000X0.587500X0.150000X-0.587500X0.150000X0*%
%TD*%
%TA.AperFunction,SMDPad,CuDef*%
%ADD21R,0.350000X0.500000*%
%TD*%
%TA.AperFunction,SMDPad,CuDef*%
%ADD22RoundRect,0.250000X0.750000X-0.250000X0.750000X0.250000X-0.750000X0.250000X-0.750000X-0.250000X0*%
%TD*%
%TA.AperFunction,SMDPad,CuDef*%
%ADD23R,2.000000X2.000000*%
%TD*%
%TA.AperFunction,ComponentPad*%
%ADD24C,1.397000*%
%TD*%
%TA.AperFunction,SMDPad,CuDef*%
%ADD25RoundRect,0.225000X0.375000X-0.225000X0.375000X0.225000X-0.375000X0.225000X-0.375000X-0.225000X0*%
%TD*%
%TA.AperFunction,SMDPad,CuDef*%
%ADD26R,1.320800X0.558800*%
%TD*%
%TA.AperFunction,SMDPad,CuDef*%
%ADD27RoundRect,0.150000X-0.512500X-0.150000X0.512500X-0.150000X0.512500X0.150000X-0.512500X0.150000X0*%
%TD*%
%TA.AperFunction,SMDPad,CuDef*%
%ADD28RoundRect,0.250001X0.849999X-0.462499X0.849999X0.462499X-0.849999X0.462499X-0.849999X-0.462499X0*%
%TD*%
%TA.AperFunction,ComponentPad*%
%ADD29C,1.800000*%
%TD*%
%TA.AperFunction,ComponentPad*%
%ADD30R,1.800000X1.800000*%
%TD*%
%TA.AperFunction,SMDPad,CuDef*%
%ADD31R,0.670001X0.299999*%
%TD*%
%TA.AperFunction,SMDPad,CuDef*%
%ADD32R,0.600000X0.400000*%
%TD*%
%TA.AperFunction,SMDPad,CuDef*%
%ADD33R,0.400000X0.600000*%
%TD*%
%TA.AperFunction,SMDPad,CuDef*%
%ADD34RoundRect,0.250001X1.449999X-0.499999X1.449999X0.499999X-1.449999X0.499999X-1.449999X-0.499999X0*%
%TD*%
%TA.AperFunction,SMDPad,CuDef*%
%ADD35RoundRect,0.250000X1.500000X-0.250000X1.500000X0.250000X-1.500000X0.250000X-1.500000X-0.250000X0*%
%TD*%
%TA.AperFunction,SMDPad,CuDef*%
%ADD36R,1.900000X1.100000*%
%TD*%
%TA.AperFunction,SMDPad,CuDef*%
%ADD37RoundRect,0.225000X-0.375000X0.225000X-0.375000X-0.225000X0.375000X-0.225000X0.375000X0.225000X0*%
%TD*%
%TA.AperFunction,ViaPad*%
%ADD38C,0.800000*%
%TD*%
%TA.AperFunction,Conductor*%
%ADD39C,0.250000*%
%TD*%
%TA.AperFunction,Conductor*%
%ADD40C,0.200000*%
%TD*%
G04 APERTURE END LIST*
D10*
%TO.P,R210,1*%
%TO.N,USB_D-*%
X144129500Y-118115500D03*
%TO.P,R210,2*%
%TO.N,Net-(R210-Pad2)*%
X145324500Y-118115500D03*
%TD*%
%TO.P,R209,1*%
%TO.N,USB_D+*%
X144129500Y-119365500D03*
%TO.P,R209,2*%
%TO.N,Net-(R209-Pad2)*%
X145324500Y-119365500D03*
%TD*%
D11*
%TO.P,R208,1*%
%TO.N,GND*%
X129724500Y-106518000D03*
%TO.P,R208,2*%
%TO.N,Net-(U202-PROG)*%
X129724500Y-107713000D03*
%TD*%
D10*
%TO.P,R207,1*%
%TO.N,VDIV*%
X149947000Y-110365500D03*
%TO.P,R207,2*%
%TO.N,VBAT*%
X151142000Y-110365500D03*
%TD*%
D12*
%TO.P,R206,1*%
%TO.N,GND*%
X151142000Y-109365500D03*
%TO.P,R206,2*%
%TO.N,VDIV*%
X149947000Y-109365500D03*
%TD*%
%TO.P,R205,1*%
%TO.N,Net-(U201-FB)*%
X135574500Y-99115500D03*
%TO.P,R205,2*%
%TO.N,GND*%
X134379500Y-99115500D03*
%TD*%
D10*
%TO.P,R204,1*%
%TO.N,Net-(U201-VOUT)*%
X134379500Y-100115500D03*
%TO.P,R204,2*%
%TO.N,Net-(U201-FB)*%
X135574500Y-100115500D03*
%TD*%
%TO.P,R203,1*%
%TO.N,Net-(U200-EN)*%
X142229500Y-104615500D03*
%TO.P,R203,2*%
%TO.N,Net-(D200-K)*%
X143424500Y-104615500D03*
%TD*%
D13*
%TO.P,R202,1*%
%TO.N,VBUS*%
X144124500Y-110660500D03*
%TO.P,R202,2*%
%TO.N,GND*%
X144124500Y-109465500D03*
%TD*%
D12*
%TO.P,R201,1*%
%TO.N,Net-(X200-CC2)*%
X153674500Y-99865500D03*
%TO.P,R201,2*%
%TO.N,GND*%
X152479500Y-99865500D03*
%TD*%
D11*
%TO.P,R200,1*%
%TO.N,Net-(X200-CC1)*%
X149874500Y-104215500D03*
%TO.P,R200,2*%
%TO.N,GND*%
X149874500Y-105410500D03*
%TD*%
%TO.P,R107,1*%
%TO.N,+3V3*%
X132924500Y-85368000D03*
%TO.P,R107,2*%
%TO.N,SCL*%
X132924500Y-86563000D03*
%TD*%
D10*
%TO.P,R106,1*%
%TO.N,SDA*%
X129497000Y-94115500D03*
%TO.P,R106,2*%
%TO.N,+3V3*%
X130692000Y-94115500D03*
%TD*%
D13*
%TO.P,R104,1*%
%TO.N,GND*%
X146294500Y-97163000D03*
%TO.P,R104,2*%
%TO.N,Net-(Q101-G)*%
X146294500Y-95968000D03*
%TD*%
%TO.P,R103,1*%
%TO.N,VIBMOTOR*%
X147374500Y-97163000D03*
%TO.P,R103,2*%
%TO.N,Net-(Q101-G)*%
X147374500Y-95968000D03*
%TD*%
D12*
%TO.P,R102,1*%
%TO.N,GND*%
X142122000Y-93865500D03*
%TO.P,R102,2*%
%TO.N,Net-(Q100-G)*%
X140927000Y-93865500D03*
%TD*%
D13*
%TO.P,R101,1*%
%TO.N,IR_OUT*%
X144794500Y-97145500D03*
%TO.P,R101,2*%
%TO.N,Net-(Q100-G)*%
X144794500Y-95950500D03*
%TD*%
D12*
%TO.P,C207,1*%
%TO.N,XL2*%
X126924500Y-96265500D03*
%TO.P,C207,2*%
%TO.N,GND*%
X125729500Y-96265500D03*
%TD*%
%TO.P,C206,1*%
%TO.N,XL1*%
X126922000Y-91015500D03*
%TO.P,C206,2*%
%TO.N,GND*%
X125727000Y-91015500D03*
%TD*%
D11*
%TO.P,C205,1*%
%TO.N,VBAT*%
X125624500Y-102518000D03*
%TO.P,C205,2*%
%TO.N,GND*%
X125624500Y-103713000D03*
%TD*%
%TO.P,C204,1*%
%TO.N,Net-(U201-VOUT)*%
X131219500Y-101700500D03*
%TO.P,C204,2*%
%TO.N,GND*%
X131219500Y-102895500D03*
%TD*%
%TO.P,C203,1*%
%TO.N,Net-(U201-VOUT)*%
X130224500Y-101700500D03*
%TO.P,C203,2*%
%TO.N,GND*%
X130224500Y-102895500D03*
%TD*%
D13*
%TO.P,C202,1*%
%TO.N,GND*%
X136794500Y-105610500D03*
%TO.P,C202,2*%
%TO.N,VBAT*%
X136794500Y-104415500D03*
%TD*%
%TO.P,C201,1*%
%TO.N,+3V3*%
X143719500Y-102538000D03*
%TO.P,C201,2*%
%TO.N,GND*%
X143719500Y-101343000D03*
%TD*%
%TO.P,C200,1*%
%TO.N,Net-(D200-K)*%
X148824500Y-105410500D03*
%TO.P,C200,2*%
%TO.N,GND*%
X148824500Y-104215500D03*
%TD*%
D12*
%TO.P,R100,1*%
%TO.N,Net-(D100-K)*%
X153574500Y-95115500D03*
%TO.P,R100,2*%
%TO.N,Net-(Q100-D)*%
X152379500Y-95115500D03*
%TD*%
D14*
%TO.P,U200,5,VOUT*%
%TO.N,+3V3*%
X141174100Y-101615500D03*
%TO.P,U200,4,NC*%
%TO.N,unconnected-(U200-NC-Pad4)*%
X139294500Y-101615500D03*
%TO.P,U200,3,EN*%
%TO.N,Net-(U200-EN)*%
X139294500Y-104371400D03*
%TO.P,U200,2,GND*%
%TO.N,GND*%
X140234300Y-104371400D03*
%TO.P,U200,1,VIN*%
%TO.N,Net-(D200-K)*%
X141174100Y-104371400D03*
%TD*%
D15*
%TO.P,U104,14,SCL/SCLK*%
%TO.N,SCL*%
X135076002Y-95986401D03*
D16*
%TO.P,U104,13,SDA/SDI/SDIO*%
%TO.N,SDA*%
X134794501Y-97357302D03*
%TO.P,U104,12,SDO/ALTADDRESS*%
%TO.N,+3V3*%
X135594500Y-97357302D03*
%TO.P,U104,11,RESERVED*%
%TO.N,unconnected-(U104-RESERVED-Pad11)*%
X136394501Y-97357302D03*
%TO.P,U104,10,NC*%
%TO.N,unconnected-(U104-NC-Pad10)*%
X137194499Y-97357302D03*
%TO.P,U104,9,INT2*%
%TO.N,unconnected-(U104-INT2-Pad9)*%
X137994500Y-97357302D03*
%TO.P,U104,8,INT1*%
%TO.N,unconnected-(U104-INT1-Pad8)*%
X138794501Y-97357302D03*
D15*
%TO.P,U104,7,\u002ACS*%
%TO.N,+3V3*%
X138512998Y-95986401D03*
D16*
%TO.P,U104,6,VS*%
X138794499Y-94615500D03*
%TO.P,U104,5,GND*%
%TO.N,GND*%
X137994500Y-94615500D03*
%TO.P,U104,4,GND*%
X137194499Y-94615500D03*
%TO.P,U104,3,RESERVED*%
%TO.N,unconnected-(U104-RESERVED-Pad3)*%
X136394501Y-94615500D03*
%TO.P,U104,2,GND*%
%TO.N,GND*%
X135594500Y-94615500D03*
%TO.P,U104,1,VDDI/O*%
%TO.N,+3V3*%
X134794499Y-94615500D03*
%TD*%
D17*
%TO.P,D201,3*%
%TO.N,+5V*%
X138294500Y-106615500D03*
%TO.P,D201,2*%
%TO.N,Net-(U201-VOUT)*%
X140294500Y-107265500D03*
%TO.P,D201,1*%
%TO.N,VBUS*%
X140294500Y-105965500D03*
%TD*%
D18*
%TO.P,X200,S4,Shell4*%
%TO.N,GND*%
X159954500Y-110105500D03*
%TO.P,X200,S3,Shell3*%
X159954500Y-101125500D03*
%TO.P,X200,S2,Shell2*%
X154004500Y-109745500D03*
%TO.P,X200,S1,Shell1*%
X154004500Y-101485500D03*
D19*
%TO.P,X200,B12,GND*%
X153794500Y-102615500D03*
%TO.P,X200,B11,RX1+*%
%TO.N,unconnected-(X200-RX1+-PadB11)*%
X153794500Y-103115500D03*
%TO.P,X200,B10,RX1-*%
%TO.N,unconnected-(X200-RX1--PadB10)*%
X153794500Y-103615500D03*
%TO.P,X200,B9,VBUS*%
%TO.N,VBUS*%
X153794500Y-104115500D03*
%TO.P,X200,B8,SBU2*%
%TO.N,unconnected-(X200-SBU2-PadB8)*%
X153794500Y-104615500D03*
%TO.P,X200,B7,D-*%
%TO.N,Net-(R210-Pad2)*%
X153794500Y-105115500D03*
%TO.P,X200,B6,D+*%
%TO.N,Net-(R209-Pad2)*%
X153794500Y-105615500D03*
%TO.P,X200,B5,CC2*%
%TO.N,Net-(X200-CC2)*%
X153794500Y-106115500D03*
%TO.P,X200,B4,VBUS*%
%TO.N,VBUS*%
X153794500Y-106615500D03*
%TO.P,X200,B3,TX2-*%
%TO.N,unconnected-(X200-TX2--PadB3)*%
X153794500Y-107115500D03*
%TO.P,X200,B2,TX2+*%
%TO.N,unconnected-(X200-TX2+-PadB2)*%
X153794500Y-107615500D03*
%TO.P,X200,B1,GND*%
%TO.N,GND*%
X153794500Y-108115500D03*
%TO.P,X200,A12,GND*%
X152094500Y-108365500D03*
%TO.P,X200,A11,RX2+*%
%TO.N,unconnected-(X200-RX2+-PadA11)*%
X152094500Y-107865500D03*
%TO.P,X200,A10,RX2-*%
%TO.N,unconnected-(X200-RX2--PadA10)*%
X152094500Y-107365500D03*
%TO.P,X200,A9,VBUS*%
%TO.N,VBUS*%
X152094500Y-106865500D03*
%TO.P,X200,A8,SBU1*%
%TO.N,unconnected-(X200-SBU1-PadA8)*%
X152094500Y-106365500D03*
%TO.P,X200,A7,D-*%
%TO.N,Net-(R210-Pad2)*%
X152094500Y-105865500D03*
%TO.P,X200,A6,D+*%
%TO.N,Net-(R209-Pad2)*%
X152094500Y-105365500D03*
%TO.P,X200,A5,CC1*%
%TO.N,Net-(X200-CC1)*%
X152094500Y-104865500D03*
%TO.P,X200,A4,VBUS*%
%TO.N,VBUS*%
X152094500Y-104365500D03*
%TO.P,X200,A3,TX1-*%
%TO.N,unconnected-(X200-TX1--PadA3)*%
X152094500Y-103865500D03*
%TO.P,X200,A2,TX1+*%
%TO.N,unconnected-(X200-TX1+-PadA2)*%
X152094500Y-103365500D03*
%TO.P,X200,A1,GND*%
%TO.N,GND*%
X152094500Y-102865500D03*
%TD*%
D20*
%TO.P,Q100,3,D*%
%TO.N,Net-(Q100-D)*%
X140669500Y-91615500D03*
%TO.P,Q100,2,S*%
%TO.N,GND*%
X138794500Y-90665500D03*
%TO.P,Q100,1,G*%
%TO.N,Net-(Q100-G)*%
X138794500Y-92565500D03*
%TD*%
D21*
%TO.P,U105,8,VDD*%
%TO.N,+3V3*%
X131269500Y-92640500D03*
%TO.P,U105,7,GND*%
%TO.N,GND*%
X130619500Y-92640500D03*
%TO.P,U105,6,VDDIO*%
%TO.N,+3V3*%
X129969500Y-92640500D03*
%TO.P,U105,5,SDO*%
X129319500Y-92640500D03*
%TO.P,U105,4,SCK*%
%TO.N,SCL*%
X129319500Y-90590500D03*
%TO.P,U105,3,SDI*%
%TO.N,SDA*%
X129969500Y-90590500D03*
%TO.P,U105,2,CSB*%
%TO.N,+3V3*%
X130619500Y-90590500D03*
%TO.P,U105,1,GND*%
%TO.N,GND*%
X131269500Y-90590500D03*
%TD*%
D22*
%TO.P,J103,1,1*%
%TO.N,PIEZO_B*%
X144294500Y-94115500D03*
%TD*%
%TO.P,J100,1,1*%
%TO.N,Net-(D101-A)*%
X150794500Y-91115500D03*
%TD*%
D23*
%TO.P,J201,1,1*%
%TO.N,GND*%
X156794500Y-85615500D03*
%TD*%
D24*
%TO.P,U101,26,DATA_OUT*%
%TO.N,unconnected-(U101-DATA_OUT-Pad26)*%
X127330590Y-99615500D03*
%TO.P,U101,25,OSC*%
%TO.N,unconnected-(U101-OSC-Pad25)*%
X129870590Y-99615500D03*
%TO.P,U101,24,RESET*%
%TO.N,HCMS_RESET*%
X132410590Y-99615500D03*
%TO.P,U101,22,V_LOGIC*%
%TO.N,+5V*%
X137490590Y-99615500D03*
%TO.P,U101,21,SEL*%
X140030590Y-99615500D03*
%TO.P,U101,20,GND_LOGIC*%
%TO.N,GND*%
X142570590Y-99615500D03*
%TO.P,U101,19,BLANK*%
%TO.N,HCMS_BLANK*%
X145110590Y-99615500D03*
%TO.P,U101,18,\u002ACE*%
%TO.N,HCMS_CE*%
X147650590Y-99615500D03*
%TO.P,U101,17,CLOCK*%
%TO.N,HCMS_CLOCK*%
X150190590Y-99615500D03*
%TO.P,U101,15,RS*%
%TO.N,HCMS_RS*%
X155270590Y-99615500D03*
%TO.P,U101,14,DATA_IN*%
%TO.N,HCMS_DATA_SHARE*%
X157810590Y-99615500D03*
%TO.P,U101,10,V_LED*%
%TO.N,+5V*%
X150190590Y-107235500D03*
%TO.P,U101,7,GND_LED*%
%TO.N,GND*%
X142570590Y-107235500D03*
%TO.P,U101,3,V_LED*%
%TO.N,+5V*%
X132410590Y-107235500D03*
%TD*%
D23*
%TO.P,J202,1,1*%
%TO.N,+3V3*%
X151127832Y-85615500D03*
%TD*%
D25*
%TO.P,D200,2,A*%
%TO.N,VBUS*%
X146794500Y-102465500D03*
%TO.P,D200,1,K*%
%TO.N,Net-(D200-K)*%
X146794500Y-105765500D03*
%TD*%
D26*
%TO.P,Q200,3,D*%
%TO.N,VBAT*%
X148044500Y-109615500D03*
%TO.P,Q200,2,S*%
%TO.N,Net-(D200-K)*%
X145656900Y-108663000D03*
%TO.P,Q200,1,G*%
%TO.N,VBUS*%
X145656900Y-110568000D03*
%TD*%
D24*
%TO.P,U102,26,DATA_OUT*%
%TO.N,HCMS_DATA_SHARE*%
X127330590Y-88615500D03*
%TO.P,U102,25,OSC*%
%TO.N,unconnected-(U102-OSC-Pad25)*%
X129870590Y-88615500D03*
%TO.P,U102,24,RESET*%
%TO.N,HCMS_RESET*%
X132410590Y-88615500D03*
%TO.P,U102,22,V_LOGIC*%
%TO.N,+5V*%
X137490590Y-88615500D03*
%TO.P,U102,21,SEL*%
X140030590Y-88615500D03*
%TO.P,U102,20,GND_LOGIC*%
%TO.N,GND*%
X142570590Y-88615500D03*
%TO.P,U102,19,BLANK*%
%TO.N,HCMS_BLANK*%
X145110590Y-88615500D03*
%TO.P,U102,18,\u002ACE*%
%TO.N,HCMS_CE*%
X147650590Y-88615500D03*
%TO.P,U102,17,CLOCK*%
%TO.N,HCMS_CLOCK*%
X150190590Y-88615500D03*
%TO.P,U102,15,RS*%
%TO.N,HCMS_RS*%
X155270590Y-88615500D03*
%TO.P,U102,14,DATA_IN*%
%TO.N,HCMS_DATA_IN*%
X157810590Y-88615500D03*
%TO.P,U102,10,V_LED*%
%TO.N,+5V*%
X150190590Y-96235500D03*
%TO.P,U102,7,GND_LED*%
%TO.N,GND*%
X142570590Y-96235500D03*
%TO.P,U102,3,V_LED*%
%TO.N,+5V*%
X132410590Y-96235500D03*
%TD*%
D27*
%TO.P,U202,5,PROG*%
%TO.N,Net-(U202-PROG)*%
X128319500Y-107015500D03*
%TO.P,U202,4,V_{DD}*%
%TO.N,VBUS*%
X128319500Y-105115500D03*
%TO.P,U202,3,V_{BAT}*%
%TO.N,VBAT*%
X126044500Y-105115500D03*
%TO.P,U202,2,V_{SS}*%
%TO.N,GND*%
X126044500Y-106065500D03*
%TO.P,U202,1,STAT*%
%TO.N,unconnected-(U202-STAT-Pad1)*%
X126044500Y-107015500D03*
%TD*%
D23*
%TO.P,J203,1,1*%
%TO.N,SWDIO*%
X145461166Y-85615500D03*
%TD*%
D28*
%TO.P,L200,2,2*%
%TO.N,Net-(U201-SW)*%
X133044500Y-101865500D03*
%TO.P,L200,1,1*%
%TO.N,VBAT*%
X133044500Y-104190500D03*
%TD*%
D20*
%TO.P,Q101,3,D*%
%TO.N,Net-(D101-A)*%
X136294500Y-91615500D03*
%TO.P,Q101,2,S*%
%TO.N,GND*%
X134419500Y-90665500D03*
%TO.P,Q101,1,G*%
%TO.N,Net-(Q101-G)*%
X134419500Y-92565500D03*
%TD*%
D29*
%TO.P,D100,2,A*%
%TO.N,+3V3*%
X157809500Y-95090500D03*
D30*
%TO.P,D100,1,K*%
%TO.N,Net-(D100-K)*%
X155269500Y-95090500D03*
%TD*%
D23*
%TO.P,J204,1,1*%
%TO.N,SWCLK*%
X139794500Y-85615500D03*
%TD*%
D31*
%TO.P,U201,6,VOUT*%
%TO.N,Net-(U201-VOUT)*%
X135314498Y-102365501D03*
%TO.P,U201,5,SW*%
%TO.N,Net-(U201-SW)*%
X135314498Y-102865500D03*
%TO.P,U201,4,GND*%
%TO.N,GND*%
X135314498Y-103365502D03*
%TO.P,U201,3,VIN*%
%TO.N,VBAT*%
X136794500Y-103365502D03*
%TO.P,U201,2,EN*%
%TO.N,5V_EN*%
X136794500Y-102865500D03*
%TO.P,U201,1,FB*%
%TO.N,Net-(U201-FB)*%
X136794500Y-102365501D03*
%TD*%
D32*
%TO.P,U100,61,P1.01*%
%TO.N,HCMS_DATA_IN*%
X135094500Y-116015500D03*
%TO.P,U100,60,P1.03*%
%TO.N,HCMS_CLOCK*%
X135094500Y-115215500D03*
%TO.P,U100,59,P1.05*%
%TO.N,HCMS_RESET*%
X135094500Y-114415500D03*
%TO.P,U100,58,P1.07*%
%TO.N,unconnected-(U100-P1.07-Pad58)*%
X135094500Y-113615500D03*
%TO.P,U100,57,P1.06*%
%TO.N,HCMS_BLANK*%
X135094500Y-112815500D03*
%TO.P,U100,56,P1.04*%
%TO.N,HCMS_CE*%
X135094500Y-112015500D03*
D33*
%TO.P,U100,55,GND*%
%TO.N,GND*%
X130794500Y-118665500D03*
%TO.P,U100,54,P0.10/NFC2*%
%TO.N,D2*%
X131494500Y-117765500D03*
%TO.P,U100,53,SWDCLK*%
%TO.N,SWCLK*%
X131894500Y-118665500D03*
%TO.P,U100,52,P0.09/NFC1*%
%TO.N,unconnected-(U100-P0.09{slash}NFC1-Pad52)*%
X132294500Y-117765500D03*
%TO.P,U100,51,SWDIO*%
%TO.N,SWDIO*%
X132694500Y-118665500D03*
%TO.P,U100,50,P1.02*%
%TO.N,HCMS_RS*%
X133094500Y-117765500D03*
%TO.P,U100,49,P0.25*%
%TO.N,unconnected-(U100-P0.25-Pad49)*%
X133894500Y-117765500D03*
%TO.P,U100,48,P0.24*%
%TO.N,unconnected-(U100-P0.24-Pad48)*%
X134294500Y-118665500D03*
%TO.P,U100,47,TRACEDATA0/P1.00*%
%TO.N,unconnected-(U100-TRACEDATA0{slash}P1.00-Pad47)*%
X134694500Y-117765500D03*
%TO.P,U100,46,P0.22*%
%TO.N,unconnected-(U100-P0.22-Pad46)*%
X135094500Y-118665500D03*
%TO.P,U100,45,P0.23*%
%TO.N,unconnected-(U100-P0.23-Pad45)*%
X135494500Y-117765500D03*
%TO.P,U100,44,P0.20*%
%TO.N,unconnected-(U100-P0.20-Pad44)*%
X135894500Y-118665500D03*
%TO.P,U100,43,P0.21*%
%TO.N,unconnected-(U100-P0.21-Pad43)*%
X136294500Y-117765500D03*
%TO.P,U100,42,P0.19*%
%TO.N,unconnected-(U100-P0.19-Pad42)*%
X137094500Y-117765500D03*
%TO.P,U100,41,P0.17*%
%TO.N,unconnected-(U100-P0.17-Pad41)*%
X137494500Y-118665500D03*
%TO.P,U100,40,~{RESET}/P0.18*%
%TO.N,RESET*%
X137894500Y-117765500D03*
%TO.P,U100,39,P0.15*%
%TO.N,unconnected-(U100-P0.15-Pad39)*%
X138294500Y-118665500D03*
%TO.P,U100,38,P0.16*%
%TO.N,unconnected-(U100-P0.16-Pad38)*%
X138694500Y-117765500D03*
%TO.P,U100,37,P0.13*%
%TO.N,unconnected-(U100-P0.13-Pad37)*%
X139094500Y-118665500D03*
%TO.P,U100,36,P0.14*%
%TO.N,unconnected-(U100-P0.14-Pad36)*%
X139494500Y-117765500D03*
%TO.P,U100,35,D+*%
%TO.N,USB_D+*%
X139894500Y-118665500D03*
%TO.P,U100,34,D-*%
%TO.N,USB_D-*%
X140694500Y-118665500D03*
D32*
%TO.P,U100,33,GND*%
%TO.N,GND*%
X141694500Y-118815500D03*
%TO.P,U100,32,VBUS*%
%TO.N,VBUS*%
X141694500Y-118015500D03*
%TO.P,U100,31,DCCH*%
%TO.N,unconnected-(U100-DCCH-Pad31)*%
X141694500Y-117215500D03*
%TO.P,U100,30,VDDH*%
%TO.N,+3V3*%
X141694500Y-116415500D03*
%TO.P,U100,29,TRACEDATA1/P0.12*%
%TO.N,unconnected-(U100-TRACEDATA1{slash}P0.12-Pad29)*%
X140794500Y-116015500D03*
%TO.P,U100,28,VDD*%
%TO.N,+3V3*%
X141694500Y-115615500D03*
%TO.P,U100,27,TRACEDATA2/P0.11*%
%TO.N,unconnected-(U100-TRACEDATA2{slash}P0.11-Pad27)*%
X140794500Y-115215500D03*
%TO.P,U100,26,TRACEDATA3/P1.09*%
%TO.N,JOY_SELECT*%
X141694500Y-114815500D03*
%TO.P,U100,25,P1.08*%
%TO.N,JOY_HOME*%
X140794500Y-114415500D03*
%TO.P,U100,24,P0.08*%
%TO.N,unconnected-(U100-P0.08-Pad24)*%
X141694500Y-114015500D03*
%TO.P,U100,23,TRACECLK/P0.07*%
%TO.N,JOY_BACK*%
X140794500Y-113615500D03*
%TO.P,U100,22,P0.06*%
%TO.N,IR_OUT*%
X141694500Y-113215500D03*
%TO.P,U100,21,P0.05/AIN3*%
%TO.N,unconnected-(U100-P0.05{slash}AIN3-Pad21)*%
X140794500Y-112815500D03*
%TO.P,U100,20,P0.04/AIN2*%
%TO.N,VIBMOTOR*%
X141694500Y-112415500D03*
%TO.P,U100,19,P0.26*%
%TO.N,unconnected-(U100-P0.26-Pad19)*%
X140794500Y-112015500D03*
%TO.P,U100,18,XL2/P0.01*%
%TO.N,XL2*%
X141694500Y-111615500D03*
%TO.P,U100,17,XL1/P0.00*%
%TO.N,XL1*%
X141694500Y-110815500D03*
%TO.P,U100,16,P0.27*%
%TO.N,VDIV*%
X141694500Y-110015500D03*
%TO.P,U100,15,GND*%
%TO.N,GND*%
X141694500Y-109215500D03*
D33*
%TO.P,U100,14,P0.30/AIN6*%
%TO.N,SCL*%
X138294500Y-109365500D03*
%TO.P,U100,13,P0.28/AIN4*%
%TO.N,unconnected-(U100-P0.28{slash}AIN4-Pad13)*%
X137894500Y-110265500D03*
%TO.P,U100,12,P0.31/AIN7*%
%TO.N,5V_EN*%
X137494500Y-109365500D03*
%TO.P,U100,11,P0.02/AIN0*%
%TO.N,PIEZO_A*%
X137094500Y-110265500D03*
%TO.P,U100,10,P0.29/AIN5*%
%TO.N,SDA*%
X136694500Y-109365500D03*
%TO.P,U100,9,P0.03/AIN1*%
%TO.N,PIEZO_B*%
X136294500Y-110265500D03*
%TO.P,U100,8,P1.15*%
%TO.N,JOY_DOWN*%
X135894500Y-109365500D03*
%TO.P,U100,7,P1.14*%
%TO.N,JOY_RIGHT*%
X135494500Y-110265500D03*
%TO.P,U100,6,P1.13*%
%TO.N,JOY_LEFT*%
X135094500Y-109365500D03*
%TO.P,U100,5,P1.12*%
%TO.N,JOY_UP*%
X134694500Y-110265500D03*
%TO.P,U100,4,P1.11*%
%TO.N,unconnected-(U100-P1.11-Pad4)*%
X134294500Y-109365500D03*
%TO.P,U100,3,P1.10*%
%TO.N,LED*%
X132694500Y-109365500D03*
%TO.P,U100,2,GND*%
%TO.N,GND*%
X131894500Y-109365500D03*
%TO.P,U100,1,GND*%
X130794500Y-109365500D03*
%TD*%
D22*
%TO.P,J101,1,1*%
%TO.N,+3V3*%
X148794500Y-94115500D03*
%TD*%
%TO.P,J102,1,1*%
%TO.N,PIEZO_A*%
X146294500Y-91115500D03*
%TD*%
D34*
%TO.P,J200,MP*%
%TO.N,N/C*%
X152294500Y-112265500D03*
X152294500Y-118965500D03*
D35*
%TO.P,J200,2,N*%
%TO.N,GND*%
X158044500Y-114615500D03*
%TO.P,J200,1,L*%
%TO.N,VBAT*%
X158044500Y-116615500D03*
%TD*%
D36*
%TO.P,XTAL200,2*%
%TO.N,XL2*%
X127294500Y-94865500D03*
%TO.P,XTAL200,1*%
%TO.N,XL1*%
X127294500Y-92365500D03*
%TD*%
D37*
%TO.P,D101,2,A*%
%TO.N,Net-(D101-A)*%
X134794500Y-88915500D03*
%TO.P,D101,1,K*%
%TO.N,+3V3*%
X134794500Y-85615500D03*
%TD*%
D38*
%TO.N,SCL*%
X132924500Y-86563000D03*
%TO.N,VBAT*%
X131334590Y-103865500D03*
%TO.N,SWDIO*%
X145474500Y-85915500D03*
%TO.N,IR_OUT*%
X144544500Y-97365500D03*
%TO.N,JOY_RIGHT*%
X137519500Y-113140500D03*
%TO.N,HCMS_CLOCK*%
X140244500Y-108465500D03*
X134220500Y-111865500D03*
%TO.N,VIBMOTOR*%
X147302294Y-96931500D03*
%TO.N,SCL*%
X128594500Y-88315500D03*
%TO.N,Net-(U201-VOUT)*%
X135299499Y-102110501D03*
%TO.N,HCMS_CE*%
X145094500Y-102765500D03*
%TO.N,SCL*%
X136574500Y-98615500D03*
%TO.N,VIBMOTOR*%
X144378522Y-107040500D03*
%TO.N,VDIV*%
X145334500Y-105925500D03*
%TO.N,IR_OUT*%
X145119500Y-107635017D03*
%TO.N,JOY_LEFT*%
X135121798Y-108642798D03*
%TO.N,VDIV*%
X147794500Y-107615500D03*
%TO.N,HCMS_BLANK*%
X135094500Y-112815500D03*
%TO.N,GND*%
X137194499Y-94054600D03*
%TO.N,JOY_BACK*%
X138094500Y-116715500D03*
%TO.N,GND*%
X125624500Y-103683000D03*
%TO.N,+5V*%
X153694500Y-98715500D03*
%TO.N,GND*%
X146302588Y-97008000D03*
X131294500Y-116615500D03*
%TO.N,SCL*%
X134294500Y-96115500D03*
%TO.N,GND*%
X151294500Y-108615500D03*
X148094500Y-102415500D03*
X142851094Y-92967500D03*
X134419500Y-90665500D03*
X129294500Y-98215500D03*
X126044500Y-106065500D03*
X148804198Y-104195198D03*
X129894500Y-95615500D03*
X157544500Y-107115500D03*
X145794500Y-115865500D03*
X146794500Y-118315500D03*
X125727000Y-91015500D03*
X137194500Y-90640500D03*
X130283366Y-102815409D03*
X136802588Y-105508000D03*
X145794500Y-112115500D03*
X158044500Y-114615500D03*
X148694500Y-111515500D03*
X135139905Y-103565499D03*
X132494500Y-98032302D03*
X145919500Y-92990500D03*
%TO.N,VBUS*%
X150616558Y-103293442D03*
%TO.N,Net-(R210-Pad2)*%
X148544500Y-106365500D03*
X151200606Y-106097238D03*
%TO.N,VBAT*%
X142294500Y-98365500D03*
%TO.N,GND*%
X131794500Y-91115500D03*
%TO.N,VBUS*%
X140794500Y-105865500D03*
%TO.N,JOY_SELECT*%
X143932000Y-115028000D03*
%TO.N,GND*%
X144140171Y-109465500D03*
X142122000Y-93865500D03*
X142794500Y-118615500D03*
X140234300Y-104371400D03*
%TO.N,HCMS_RESET*%
X135368779Y-105540500D03*
X136044500Y-113615500D03*
%TO.N,Net-(R210-Pad2)*%
X154794500Y-105115500D03*
%TO.N,VBAT*%
X127394500Y-103815500D03*
%TO.N,SWCLK*%
X131794500Y-119615500D03*
%TO.N,VBAT*%
X134396798Y-104190500D03*
%TO.N,GND*%
X138794500Y-90665500D03*
%TO.N,JOY_UP*%
X135294500Y-111265498D03*
%TO.N,JOY_DOWN*%
X134301228Y-108122228D03*
%TO.N,SWDIO*%
X138405848Y-119625848D03*
%TO.N,+3V3*%
X141694500Y-115615500D03*
X148794500Y-94115500D03*
X130554500Y-94125687D03*
X153219500Y-92540500D03*
X150444500Y-92565500D03*
X134794499Y-94615500D03*
X132924500Y-85368000D03*
X141244500Y-92690500D03*
X145169500Y-101715500D03*
X139423599Y-95986401D03*
X152681621Y-88615500D03*
%TO.N,JOY_HOME*%
X140794500Y-114415500D03*
%TO.N,VBUS*%
X132294500Y-114615500D03*
X154795500Y-106790500D03*
%TO.N,SWCLK*%
X139274500Y-85515500D03*
%TO.N,+5V*%
X138329702Y-107355298D03*
%TO.N,HCMS_CE*%
X145375804Y-104976399D03*
%TO.N,VBUS*%
X141681046Y-117975138D03*
X145044500Y-110455500D03*
%TO.N,Net-(U201-VOUT)*%
X140295151Y-107516849D03*
%TO.N,GND*%
X141694500Y-109215500D03*
%TO.N,HCMS_DATA_IN*%
X150644500Y-116490500D03*
X137894500Y-114815500D03*
%TO.N,HCMS_RS*%
X132728689Y-116614500D03*
%TO.N,SDA*%
X128094500Y-90515500D03*
%TO.N,JOY_BACK*%
X139893500Y-112572394D03*
%TO.N,VBAT*%
X136794500Y-103565501D03*
%TO.N,HCMS_CLOCK*%
X144424500Y-104815500D03*
%TD*%
D39*
%TO.N,XL1*%
X133620500Y-110058600D02*
X133544500Y-110134600D01*
X133620500Y-107067258D02*
X133620500Y-110058600D01*
X132720742Y-106167500D02*
X133620500Y-107067258D01*
X128544500Y-103319700D02*
X128826500Y-103601700D01*
X134518500Y-115722400D02*
X134518500Y-116491500D01*
X138695500Y-115182815D02*
X138695500Y-115010491D01*
X131486732Y-106167500D02*
X132720742Y-106167500D01*
X128544500Y-93615500D02*
X128544500Y-103319700D01*
X129650232Y-104331000D02*
X131486732Y-106167500D01*
X138694500Y-112249700D02*
X140128700Y-110815500D01*
X129547268Y-104331000D02*
X129650232Y-104331000D01*
X127294500Y-92365500D02*
X128544500Y-93615500D01*
X133544500Y-110134600D02*
X133544500Y-113731300D01*
X128826500Y-103610232D02*
X129547268Y-104331000D01*
X133544500Y-113731300D02*
X133893500Y-114080300D01*
X128826500Y-103601700D02*
X128826500Y-103610232D01*
X138695500Y-115010491D02*
X138694500Y-115009491D01*
X133893500Y-114080300D02*
X133893500Y-115097400D01*
X133893500Y-115097400D02*
X134518500Y-115722400D01*
X138694500Y-115009491D02*
X138694500Y-112249700D01*
X134518500Y-116491500D02*
X135670500Y-116491500D01*
X136261600Y-115515500D02*
X138362815Y-115515500D01*
X135670500Y-116491500D02*
X135670500Y-116106600D01*
X135670500Y-116106600D02*
X136261600Y-115515500D01*
X140128700Y-110815500D02*
X141694500Y-110815500D01*
X138362815Y-115515500D02*
X138695500Y-115182815D01*
%TO.N,SDA*%
X129758400Y-100614500D02*
X130647621Y-100614500D01*
X129757400Y-100615500D02*
X129758400Y-100614500D01*
X131652832Y-105766500D02*
X129816332Y-103930000D01*
X129674500Y-100615500D02*
X129757400Y-100615500D01*
X128945500Y-101344500D02*
X129674500Y-100615500D01*
X128945500Y-103153600D02*
X128945500Y-101344500D01*
X129227500Y-103435600D02*
X128945500Y-103153600D01*
X129227500Y-103444132D02*
X129227500Y-103435600D01*
X129713368Y-103930000D02*
X129227500Y-103444132D01*
X133795719Y-105766500D02*
X131652832Y-105766500D01*
X136694500Y-108665281D02*
X133795719Y-105766500D01*
X129816332Y-103930000D02*
X129713368Y-103930000D01*
X136694500Y-109365500D02*
X136694500Y-108665281D01*
X130647621Y-100614500D02*
X131094500Y-100167621D01*
X131094500Y-100167621D02*
X131094500Y-99065500D01*
%TO.N,XL2*%
X130819050Y-106305850D02*
X130819050Y-106066918D01*
X131395500Y-106882300D02*
X130819050Y-106305850D01*
X131395500Y-107716500D02*
X131395500Y-106882300D01*
X132290000Y-108611000D02*
X131395500Y-107716500D01*
X134117500Y-116657600D02*
X134117500Y-115938500D01*
X133219500Y-108688484D02*
X133142016Y-108611000D01*
X133219500Y-109892500D02*
X133219500Y-108688484D01*
X133143500Y-109968500D02*
X133219500Y-109892500D01*
X133143500Y-113897400D02*
X133143500Y-109968500D01*
X133794500Y-115565500D02*
X133492500Y-115263500D01*
X133794500Y-115615500D02*
X133794500Y-115565500D01*
X134117500Y-115938500D02*
X133794500Y-115615500D01*
X141694500Y-111615500D02*
X141618500Y-111539500D01*
X136071500Y-116272700D02*
X136071500Y-116657600D01*
X133492500Y-115263500D02*
X133492500Y-114246400D01*
X141618500Y-111539500D02*
X139971800Y-111539500D01*
X126044500Y-101385500D02*
X126044500Y-98865500D01*
X139096500Y-114844391D02*
X139096500Y-115348915D01*
X129381168Y-104732000D02*
X128425500Y-103776332D01*
X128425500Y-103767800D02*
X128143500Y-103485800D01*
X136071500Y-116657600D02*
X135836600Y-116892500D01*
X133142016Y-108611000D02*
X132290000Y-108611000D01*
X135836600Y-116892500D02*
X134352400Y-116892500D01*
X139095500Y-112415800D02*
X139095500Y-114843391D01*
X130819050Y-106066918D02*
X129484132Y-104732000D01*
X139971800Y-111539500D02*
X139095500Y-112415800D01*
X139096500Y-115348915D02*
X138528915Y-115916500D01*
X133492500Y-114246400D02*
X133143500Y-113897400D01*
X138528915Y-115916500D02*
X136427700Y-115916500D01*
X139095500Y-114843391D02*
X139096500Y-114844391D01*
X126924500Y-97985500D02*
X126924500Y-96305500D01*
X136427700Y-115916500D02*
X136071500Y-116272700D01*
X134352400Y-116892500D02*
X134117500Y-116657600D01*
X129484132Y-104732000D02*
X129381168Y-104732000D01*
X128425500Y-103776332D02*
X128425500Y-103767800D01*
X128143500Y-103485800D02*
X128143500Y-103484500D01*
X128143500Y-103484500D02*
X126044500Y-101385500D01*
X126044500Y-98865500D02*
X126924500Y-97985500D01*
%TO.N,HCMS_RESET*%
X131818932Y-105365500D02*
X134289657Y-105365500D01*
X134289657Y-105365500D02*
X134562657Y-105638500D01*
X129346500Y-102987500D02*
X129628500Y-103269500D01*
X129346500Y-101593500D02*
X129346500Y-102987500D01*
X135271500Y-105638500D02*
X135368779Y-105541221D01*
X129879468Y-103529000D02*
X129982432Y-103529000D01*
X129924500Y-101015500D02*
X129346500Y-101593500D01*
X135368779Y-105541221D02*
X135368779Y-105540500D01*
X129628500Y-103269500D02*
X129628500Y-103278032D01*
X129628500Y-103278032D02*
X129879468Y-103529000D01*
X131010590Y-101015500D02*
X129924500Y-101015500D01*
X134562657Y-105638500D02*
X135271500Y-105638500D01*
X129982432Y-103529000D02*
X131818932Y-105365500D01*
X132410590Y-99615500D02*
X131010590Y-101015500D01*
%TO.N,VBUS*%
X128819500Y-105615500D02*
X129800532Y-105615500D01*
X129800532Y-105615500D02*
X130418050Y-106233018D01*
X130418050Y-106233018D02*
X130418050Y-106471950D01*
X130418050Y-106471950D02*
X130994500Y-107048400D01*
X132294500Y-114615500D02*
X132341500Y-114568500D01*
X131418500Y-108339500D02*
X130994500Y-107915500D01*
X132341500Y-114568500D02*
X132341500Y-110864500D01*
X132341500Y-110864500D02*
X131418500Y-109941500D01*
X131418500Y-109941500D02*
X131418500Y-108339500D01*
X130994500Y-107915500D02*
X130994500Y-107048400D01*
X128819500Y-105615500D02*
X128319500Y-105115500D01*
%TO.N,GND*%
X130494500Y-107115500D02*
X129897000Y-106518000D01*
X129897000Y-106518000D02*
X129724500Y-106518000D01*
%TO.N,VBAT*%
X131334590Y-103865500D02*
X132719500Y-103865500D01*
X132719500Y-103865500D02*
X133044500Y-104190500D01*
%TO.N,GND*%
X125954500Y-91115500D02*
X125724500Y-91345500D01*
X125724500Y-91345500D02*
X125724500Y-96115500D01*
%TO.N,XL2*%
X126924500Y-96265500D02*
X126924500Y-95235500D01*
X126924500Y-95235500D02*
X127294500Y-94865500D01*
%TO.N,SCL*%
X136574500Y-98615500D02*
X136374500Y-98815500D01*
X136374500Y-98815500D02*
X136374500Y-100515500D01*
X136893500Y-107531600D02*
X138294500Y-108932600D01*
X136374500Y-100515500D02*
X137491960Y-101632960D01*
X137491960Y-101632960D02*
X137491960Y-105923220D01*
X137491960Y-105923220D02*
X136893500Y-106521680D01*
X136893500Y-106521680D02*
X136893500Y-107531600D01*
X138294500Y-108932600D02*
X138294500Y-109365500D01*
%TO.N,HCMS_DATA_SHARE*%
X157810590Y-99615500D02*
X156445500Y-98250410D01*
X156445500Y-98250410D02*
X156445500Y-93366500D01*
X156445500Y-93366500D02*
X150094500Y-87015500D01*
X150094500Y-87015500D02*
X138594500Y-87015500D01*
X133228009Y-84715500D02*
X133204509Y-84692000D01*
X138594500Y-87015500D02*
X138294500Y-86715500D01*
X138294500Y-86715500D02*
X138294500Y-85615500D01*
X138294500Y-85615500D02*
X137394500Y-84715500D01*
X133204509Y-84692000D02*
X132644491Y-84692000D01*
X137394500Y-84715500D02*
X133228009Y-84715500D01*
X132620991Y-84715500D02*
X131230590Y-84715500D01*
X132644491Y-84692000D02*
X132620991Y-84715500D01*
X131230590Y-84715500D02*
X127330590Y-88615500D01*
%TO.N,+3V3*%
X132924500Y-85368000D02*
X134547000Y-85368000D01*
X134547000Y-85368000D02*
X134794500Y-85615500D01*
X132542000Y-85368000D02*
X131294500Y-86615500D01*
X132542000Y-85368000D02*
X131194500Y-86715500D01*
X131194500Y-89615500D02*
X130619500Y-90190500D01*
X132924500Y-85368000D02*
X132542000Y-85368000D01*
X131194500Y-86715500D02*
X131194500Y-89615500D01*
X130619500Y-90190500D02*
X130619500Y-90590500D01*
%TO.N,SCL*%
X134294500Y-96115500D02*
X132794500Y-94615500D01*
X132794500Y-94615500D02*
X132794500Y-90015500D01*
X132794500Y-90015500D02*
X133694500Y-89115500D01*
X133694500Y-89115500D02*
X133694500Y-88035500D01*
X133694500Y-88035500D02*
X132924500Y-87265500D01*
X132924500Y-87265500D02*
X132924500Y-86563000D01*
%TO.N,Net-(R209-Pad2)*%
X149220500Y-106645509D02*
X148824509Y-107041500D01*
X148824509Y-107041500D02*
X148264491Y-107041500D01*
X148264491Y-107041500D02*
X148115491Y-106892500D01*
X146118500Y-118621500D02*
X145374500Y-119365500D01*
X148115491Y-106892500D02*
X147267500Y-106892500D01*
X147267500Y-106892500D02*
X147044500Y-107115500D01*
X147044500Y-107115500D02*
X147044500Y-116965500D01*
X147044500Y-116965500D02*
X146118500Y-117891500D01*
X146118500Y-117891500D02*
X146118500Y-118621500D01*
D40*
%TO.N,USB_D+*%
X140746500Y-119617500D02*
X143877500Y-119617500D01*
X143877500Y-119617500D02*
X144129500Y-119365500D01*
D39*
%TO.N,GND*%
X144140171Y-109465500D02*
X144140171Y-109544829D01*
X144140171Y-109544829D02*
X144044500Y-109640500D01*
X152479500Y-99865500D02*
X152479500Y-100180500D01*
X152479500Y-100180500D02*
X151345500Y-101314500D01*
%TO.N,Net-(X200-CC2)*%
X153674500Y-99865500D02*
X153769499Y-99865500D01*
X153769499Y-99865500D02*
X155794500Y-101890501D01*
%TO.N,Net-(Q100-G)*%
X143319696Y-94891500D02*
X143192696Y-94764500D01*
X146013600Y-95292500D02*
X145612600Y-94891500D01*
X148294500Y-95763484D02*
X147823516Y-95292500D01*
X144794500Y-96140500D02*
X144904516Y-96140500D01*
X145612600Y-94891500D02*
X143319696Y-94891500D01*
X147823516Y-95292500D02*
X146013600Y-95292500D01*
X147845500Y-97814500D02*
X148294500Y-97365500D01*
X143192696Y-94764500D02*
X141928500Y-94764500D01*
X145673500Y-97814500D02*
X147845500Y-97814500D01*
X145574500Y-97715500D02*
X145673500Y-97814500D01*
X145574500Y-96810484D02*
X145574500Y-97715500D01*
X148294500Y-97365500D02*
X148294500Y-95763484D01*
X144904516Y-96140500D02*
X145574500Y-96810484D01*
X141928500Y-94764500D02*
X140929500Y-93765500D01*
%TO.N,Net-(Q101-G)*%
X134419500Y-92565500D02*
X134769500Y-92915500D01*
X134769500Y-92915500D02*
X137800388Y-92915500D01*
X137800388Y-92915500D02*
X138026388Y-93141500D01*
X138026388Y-93141500D02*
X139653400Y-93141500D01*
X139653400Y-93141500D02*
X140175500Y-93663600D01*
X140175500Y-93663600D02*
X140175500Y-94256016D01*
X140175500Y-94256016D02*
X141084984Y-95165500D01*
X143153596Y-95292500D02*
X145446500Y-95292500D01*
X141084984Y-95165500D02*
X143026596Y-95165500D01*
X143026596Y-95165500D02*
X143153596Y-95292500D01*
X145446500Y-95292500D02*
X146294500Y-96140500D01*
X146294500Y-96140500D02*
X146319500Y-96115500D01*
%TO.N,Net-(Q100-G)*%
X138794500Y-92565500D02*
X139729500Y-92565500D01*
X139729500Y-92565500D02*
X140929500Y-93765500D01*
X140887000Y-93773000D02*
X140887000Y-93808000D01*
%TO.N,PIEZO_A*%
X138794500Y-108789500D02*
X138794500Y-110448400D01*
X138718500Y-108789500D02*
X138794500Y-108789500D01*
X137892960Y-106097040D02*
X137294500Y-106695500D01*
X137764888Y-91946112D02*
X137196500Y-92514500D01*
X137294500Y-107365500D02*
X138718500Y-108789500D01*
X137892960Y-101709390D02*
X137892960Y-106097040D01*
X139774500Y-93829700D02*
X139774500Y-95365500D01*
X141195090Y-99853052D02*
X140332642Y-100715500D01*
X141195090Y-99012648D02*
X141195090Y-99853052D01*
X140294500Y-98112058D02*
X141195090Y-99012648D01*
X138886850Y-100715500D02*
X137892960Y-101709390D01*
X137294500Y-106695500D02*
X137294500Y-107365500D01*
X140294500Y-95885500D02*
X140294500Y-98112058D01*
X139487300Y-93542500D02*
X139774500Y-93829700D01*
X137196500Y-92514500D02*
X135712612Y-92514500D01*
X139774500Y-95365500D02*
X140294500Y-95885500D01*
X145794500Y-90615500D02*
X140325388Y-90615500D01*
X135712612Y-92514500D02*
X135187612Y-91989500D01*
X133406000Y-92896112D02*
X133889488Y-93379600D01*
X137860288Y-93542500D02*
X139487300Y-93542500D01*
X135187612Y-91989500D02*
X133651388Y-91989500D01*
X140325388Y-90615500D02*
X138994776Y-91946112D01*
X138994776Y-91946112D02*
X137764888Y-91946112D01*
X137697388Y-93379600D02*
X137860288Y-93542500D01*
X140332642Y-100715500D02*
X138886850Y-100715500D01*
X133406000Y-92234888D02*
X133406000Y-92896112D01*
X133889488Y-93379600D02*
X137697388Y-93379600D01*
X146294500Y-91115500D02*
X145794500Y-90615500D01*
X133651388Y-91989500D02*
X133406000Y-92234888D01*
X138794500Y-110448400D02*
X138328400Y-110914500D01*
X138328400Y-110914500D02*
X137410600Y-110914500D01*
X137410600Y-110914500D02*
X137094500Y-110598400D01*
X137094500Y-110598400D02*
X137094500Y-110265500D01*
%TO.N,Net-(Q101-G)*%
X147374500Y-95968000D02*
X146294500Y-95968000D01*
%TO.N,PIEZO_B*%
X140294500Y-101320742D02*
X140294500Y-102315500D01*
X141596090Y-97913910D02*
X141596090Y-100019152D01*
X141596090Y-100019152D02*
X140294500Y-101320742D01*
X148695500Y-95597384D02*
X148695500Y-97531600D01*
X142144500Y-97365500D02*
X141596090Y-97913910D01*
X144294500Y-94115500D02*
X145403700Y-94115500D01*
X144438491Y-98215500D02*
X143588491Y-97365500D01*
X148011600Y-98215500D02*
X144438491Y-98215500D01*
X143588491Y-97365500D02*
X142144500Y-97365500D01*
X147989616Y-94891500D02*
X148695500Y-95597384D01*
X146179700Y-94891500D02*
X147989616Y-94891500D01*
X145403700Y-94115500D02*
X146179700Y-94891500D01*
X148695500Y-97531600D02*
X148011600Y-98215500D01*
X139544500Y-106564141D02*
X139544500Y-110265500D01*
X140294500Y-102315500D02*
X139794500Y-102815500D01*
X139794500Y-102815500D02*
X138975650Y-102815500D01*
X138975650Y-102815500D02*
X138338100Y-103453050D01*
X138338100Y-103453050D02*
X138338100Y-105357741D01*
X138338100Y-105357741D02*
X139544500Y-106564141D01*
X139544500Y-110265500D02*
X138494500Y-111315500D01*
X138494500Y-111315500D02*
X137244500Y-111315500D01*
X137244500Y-111315500D02*
X136294500Y-110365500D01*
X136294500Y-110365500D02*
X136294500Y-110265500D01*
%TO.N,VBAT*%
X142294500Y-98365500D02*
X142544500Y-98615500D01*
X142544500Y-98615500D02*
X148178700Y-98615500D01*
X156294500Y-108863500D02*
X154042500Y-111115500D01*
X148178700Y-98615500D02*
X149096500Y-97697700D01*
X149096500Y-97697700D02*
X149096500Y-95564304D01*
X149096500Y-95564304D02*
X149545304Y-95115500D01*
X149545304Y-95115500D02*
X151044500Y-95115500D01*
X151044500Y-95115500D02*
X153644500Y-97715500D01*
X154748742Y-97715500D02*
X156294500Y-99261258D01*
X156294500Y-99261258D02*
X156294500Y-108863500D01*
X153644500Y-97715500D02*
X154748742Y-97715500D01*
%TO.N,Net-(U200-EN)*%
X139294500Y-104371400D02*
X139294500Y-104685500D01*
X139294500Y-104685500D02*
X139774500Y-105165500D01*
X139774500Y-105165500D02*
X141679500Y-105165500D01*
X141679500Y-105165500D02*
X142229500Y-104615500D01*
%TO.N,Net-(D200-K)*%
X145219500Y-103865500D02*
X142974500Y-103865500D01*
X143424500Y-104615500D02*
X143424500Y-104315500D01*
X143424500Y-104315500D02*
X142974500Y-103865500D01*
%TO.N,HCMS_CLOCK*%
X144424500Y-104815500D02*
X144196964Y-104815500D01*
X144196964Y-104815500D02*
X144424500Y-105043036D01*
X144048500Y-105491500D02*
X142310600Y-105491500D01*
X141195090Y-107947810D02*
X140752400Y-108390500D01*
X144424500Y-105043036D02*
X144424500Y-105115500D01*
X144424500Y-105115500D02*
X144048500Y-105491500D01*
X142310600Y-105491500D02*
X142277450Y-105524650D01*
X142277450Y-105524650D02*
X142185350Y-105524650D01*
X142185350Y-105524650D02*
X141195090Y-106514910D01*
X141195090Y-106514910D02*
X141195090Y-107947810D01*
X140752400Y-108390500D02*
X140294500Y-108390500D01*
%TO.N,HCMS_CE*%
X138269500Y-113515500D02*
X137894500Y-113890500D01*
X140994500Y-109382600D02*
X138269500Y-112107600D01*
X138269500Y-112107600D02*
X138269500Y-113515500D01*
X142476700Y-105892500D02*
X142443550Y-105925650D01*
X140994500Y-108715500D02*
X140994500Y-109382600D01*
X141596090Y-108113910D02*
X140994500Y-108715500D01*
X141596090Y-106763910D02*
X141596090Y-108113910D01*
X142434350Y-105925650D02*
X141596090Y-106763910D01*
X136843500Y-113414500D02*
X135444500Y-112015500D01*
X137319500Y-113890500D02*
X137245500Y-113816500D01*
X142443550Y-105925650D02*
X142434350Y-105925650D01*
X137894500Y-113890500D02*
X137319500Y-113890500D01*
X144411491Y-105892500D02*
X142476700Y-105892500D01*
X145071845Y-105232146D02*
X144411491Y-105892500D01*
X137245500Y-113816500D02*
X137239491Y-113816500D01*
X137239491Y-113816500D02*
X136843500Y-113420509D01*
X135444500Y-112015500D02*
X135094500Y-112015500D01*
X136843500Y-113420509D02*
X136843500Y-113414500D01*
%TO.N,VDIV*%
X142244500Y-110015500D02*
X141694500Y-110015500D01*
X142544500Y-109715500D02*
X142244500Y-110015500D01*
X144944500Y-106315500D02*
X144124500Y-106315500D01*
X142544500Y-108731300D02*
X142544500Y-109715500D01*
X143613151Y-106826849D02*
X143613151Y-107662649D01*
X144124500Y-106315500D02*
X143613151Y-106826849D01*
X143613151Y-107662649D02*
X142544500Y-108731300D01*
X145334500Y-105925500D02*
X144944500Y-106315500D01*
%TO.N,+5V*%
X138329702Y-107355298D02*
X138119500Y-107145096D01*
X138394500Y-106790500D02*
X138394500Y-106715500D01*
X138119500Y-107065500D02*
X138394500Y-106790500D01*
X138394500Y-106715500D02*
X138294500Y-106615500D01*
X138119500Y-107145096D02*
X138119500Y-107065500D01*
%TO.N,GND*%
X135139907Y-103565501D02*
X135354500Y-103565501D01*
X135139905Y-103565499D02*
X135139907Y-103565501D01*
X126044500Y-106065500D02*
X129324500Y-106065500D01*
X129324500Y-106065500D02*
X129794500Y-106535500D01*
X129794500Y-106535500D02*
X129794500Y-106765500D01*
%TO.N,Net-(U202-PROG)*%
X128319500Y-107015500D02*
X128993500Y-107689500D01*
X128993500Y-107689500D02*
X129794500Y-107689500D01*
%TO.N,GND*%
X149874500Y-105410500D02*
X149874500Y-105265500D01*
X149874500Y-105265500D02*
X148824500Y-104215500D01*
%TO.N,Net-(X200-CC1)*%
X152094500Y-104865500D02*
X150524500Y-104865500D01*
X150524500Y-104865500D02*
X149874500Y-104215500D01*
%TO.N,GND*%
X125624500Y-103683000D02*
X125784500Y-103523000D01*
X125784500Y-103523000D02*
X125794500Y-103523000D01*
%TO.N,JOY_RIGHT*%
X135494500Y-110365500D02*
X135494500Y-110265500D01*
X137519500Y-113140500D02*
X137094500Y-112715500D01*
%TO.N,Net-(U201-FB)*%
X137034501Y-102365501D02*
X137034501Y-101765501D01*
X137034501Y-101765501D02*
X135384500Y-100115500D01*
%TO.N,+3V3*%
X131269500Y-93140500D02*
X131243500Y-93166500D01*
X152681621Y-88615500D02*
X151127832Y-87061711D01*
X148794500Y-94115500D02*
X146971500Y-92292500D01*
X135594500Y-97357302D02*
X135594500Y-96922402D01*
D40*
%TO.N,USB_D+*%
X144067500Y-119617500D02*
X144319500Y-119365500D01*
X139894500Y-118665500D02*
X139894500Y-118765500D01*
D39*
%TO.N,VBAT*%
X155294500Y-115615500D02*
X156294500Y-116615500D01*
X127394500Y-103815500D02*
X127344500Y-103815500D01*
%TO.N,HCMS_CE*%
X145094500Y-102765500D02*
X145169500Y-102765500D01*
X147650590Y-100284410D02*
X147650590Y-99615500D01*
D40*
%TO.N,USB_D-*%
X141195500Y-119266500D02*
X140694500Y-118765500D01*
X144319500Y-118115500D02*
X143168499Y-119266500D01*
D39*
%TO.N,SCL*%
X128594500Y-89865500D02*
X128594500Y-88315500D01*
%TO.N,JOY_BACK*%
X138695015Y-116317500D02*
X138692500Y-116317500D01*
X138294500Y-116715500D02*
X138094500Y-116715500D01*
%TO.N,HCMS_DATA_IN*%
X158978500Y-100845492D02*
X158985500Y-100838492D01*
%TO.N,VBUS*%
X144769500Y-111180500D02*
X144044500Y-110455500D01*
X144044500Y-110455500D02*
X145044500Y-110455500D01*
%TO.N,Net-(U201-SW)*%
X133697904Y-101865500D02*
X133044500Y-101865500D01*
X135314498Y-102865500D02*
X134697904Y-102865500D01*
X134697904Y-102865500D02*
X133697904Y-101865500D01*
%TO.N,IR_OUT*%
X144544500Y-97205500D02*
X144794500Y-96955500D01*
X145119500Y-107635017D02*
X145102645Y-107651872D01*
%TO.N,+3V3*%
X136394500Y-95450400D02*
X135093900Y-95450400D01*
X129969500Y-93140500D02*
X129969500Y-92640500D01*
X143719500Y-102348000D02*
X143327000Y-102348000D01*
X151127832Y-87061711D02*
X151127832Y-85615500D01*
X129995500Y-93166500D02*
X129969500Y-93140500D01*
%TO.N,XL1*%
X127294500Y-91640500D02*
X126769500Y-91115500D01*
%TO.N,+3V3*%
X135594500Y-96922402D02*
X136394500Y-96122402D01*
X134794499Y-95150999D02*
X134794499Y-94615500D01*
%TO.N,VBUS*%
X152896500Y-106615500D02*
X152646500Y-106865500D01*
X142244500Y-118015500D02*
X144769500Y-115490500D01*
%TO.N,JOY_SELECT*%
X143719500Y-114815500D02*
X143932000Y-115028000D01*
X141794500Y-114715500D02*
X141694500Y-114815500D01*
%TO.N,VBUS*%
X138917750Y-103440500D02*
X138739100Y-103619150D01*
X151688616Y-104365500D02*
X150616558Y-103293442D01*
%TO.N,JOY_BACK*%
X139893500Y-112572394D02*
X139893500Y-115116500D01*
X139944500Y-112770610D02*
X139944500Y-112820096D01*
%TO.N,VBUS*%
X145544400Y-110455500D02*
X145656900Y-110568000D01*
%TO.N,HCMS_DATA_IN*%
X158985500Y-100838492D02*
X158985500Y-89790410D01*
%TO.N,IR_OUT*%
X145102645Y-107651872D02*
X144758128Y-107651872D01*
X143465171Y-108944829D02*
X143465171Y-111696829D01*
%TO.N,HCMS_RESET*%
X135244500Y-114415500D02*
X136044500Y-113615500D01*
%TO.N,VBAT*%
X149544500Y-111115500D02*
X151702000Y-111115500D01*
%TO.N,VBUS*%
X150616558Y-103293442D02*
X147622442Y-103293442D01*
%TO.N,HCMS_CLOCK*%
X134294500Y-114865500D02*
X134644500Y-115215500D01*
%TO.N,VIBMOTOR*%
X144378522Y-107087581D02*
X144294500Y-107171603D01*
X144294500Y-107171603D02*
X144294500Y-107548400D01*
%TO.N,JOY_RIGHT*%
X137094500Y-112715500D02*
X137094500Y-111965500D01*
X137094500Y-111965500D02*
X135494500Y-110365500D01*
D40*
%TO.N,USB_D-*%
X144119500Y-118315499D02*
X144119500Y-118115500D01*
X140694500Y-118765500D02*
X140694500Y-118665500D01*
D39*
%TO.N,HCMS_CLOCK*%
X134220500Y-111865500D02*
X134044500Y-111865500D01*
X134294500Y-112115500D02*
X134294500Y-114865500D01*
%TO.N,IR_OUT*%
X141946500Y-113215500D02*
X141694500Y-113215500D01*
X144544500Y-97365500D02*
X144544500Y-97205500D01*
%TO.N,Net-(D200-K)*%
X145794500Y-106765500D02*
X145794500Y-108365500D01*
D40*
%TO.N,USB_D-*%
X141195500Y-119266500D02*
X143168499Y-119266500D01*
D39*
%TO.N,JOY_BACK*%
X139944500Y-112820096D02*
X139935105Y-112829491D01*
X140544500Y-113615500D02*
X140794500Y-113615500D01*
%TO.N,VBUS*%
X153794500Y-106615500D02*
X152896500Y-106615500D01*
%TO.N,VIBMOTOR*%
X144294500Y-107548400D02*
X143064171Y-108778729D01*
X143064171Y-111297829D02*
X141946500Y-112415500D01*
%TO.N,Net-(D200-K)*%
X148794500Y-105455500D02*
X147104500Y-105455500D01*
X147104500Y-105455500D02*
X146794500Y-105765500D01*
%TO.N,SCL*%
X129319500Y-90590500D02*
X128594500Y-89865500D01*
%TO.N,VIBMOTOR*%
X141946500Y-112415500D02*
X141694500Y-112415500D01*
X143064171Y-108778729D02*
X143064171Y-111297829D01*
%TO.N,SCL*%
X134946903Y-96115500D02*
X135076002Y-95986401D01*
%TO.N,VBUS*%
X152646500Y-106865500D02*
X152094500Y-106865500D01*
%TO.N,VBAT*%
X155294500Y-112367500D02*
X155294500Y-115615500D01*
%TO.N,Net-(D200-K)*%
X145794500Y-108365500D02*
X145656900Y-108503100D01*
%TO.N,HCMS_CLOCK*%
X134044500Y-111865500D02*
X134294500Y-112115500D01*
%TO.N,VBUS*%
X152844500Y-104365500D02*
X152094500Y-104365500D01*
X152094500Y-104365500D02*
X151688616Y-104365500D01*
%TO.N,VBAT*%
X151702000Y-111115500D02*
X154042500Y-111115500D01*
%TO.N,JOY_BACK*%
X139497500Y-115512500D02*
X139497500Y-115515015D01*
X139893500Y-112572394D02*
X139893500Y-112719610D01*
%TO.N,XL1*%
X127294500Y-92365500D02*
X127294500Y-91640500D01*
%TO.N,VBAT*%
X127344500Y-103815500D02*
X126044500Y-105115500D01*
%TO.N,5V_EN*%
X136794500Y-102865500D02*
X136257503Y-102865500D01*
%TO.N,JOY_SELECT*%
X141694500Y-114815500D02*
X143719500Y-114815500D01*
X143932000Y-115028000D02*
X143994500Y-115090500D01*
%TO.N,Net-(D200-K)*%
X145656900Y-108503100D02*
X145656900Y-108663000D01*
%TO.N,VBUS*%
X150616558Y-103293442D02*
X150538616Y-103215500D01*
%TO.N,SCL*%
X134294500Y-96115500D02*
X134946903Y-96115500D01*
%TO.N,VIBMOTOR*%
X144378522Y-107040500D02*
X144378522Y-107087581D01*
%TO.N,VBAT*%
X136794500Y-104640500D02*
X136794500Y-103565501D01*
X132569500Y-103715500D02*
X133044500Y-104190500D01*
%TO.N,Net-(U201-FB)*%
X135384500Y-99115500D02*
X135384500Y-100115500D01*
%TO.N,Net-(D101-A)*%
X136294500Y-91615500D02*
X136494500Y-91415500D01*
%TO.N,VBUS*%
X146794500Y-102465500D02*
X146794500Y-102815500D01*
X146169500Y-103440500D02*
X138917750Y-103440500D01*
%TO.N,+5V*%
X152994500Y-98715500D02*
X150514500Y-96235500D01*
%TO.N,5V_EN*%
X137494500Y-108699700D02*
X137494500Y-109365500D01*
X136044500Y-107249700D02*
X137494500Y-108699700D01*
%TO.N,IR_OUT*%
X144758128Y-107651872D02*
X143465171Y-108944829D01*
X143465171Y-111696829D02*
X141946500Y-113215500D01*
%TO.N,HCMS_CE*%
X145169500Y-102765500D02*
X147650590Y-100284410D01*
%TO.N,+3V3*%
X130619500Y-90590500D02*
X130619500Y-91173400D01*
X129319500Y-92640500D02*
X129969500Y-92640500D01*
%TO.N,VDIV*%
X150137000Y-109365500D02*
X150137000Y-110365500D01*
%TO.N,VBAT*%
X150952000Y-110365500D02*
X151702000Y-111115500D01*
X150952000Y-110365500D02*
X150952000Y-110565499D01*
%TO.N,VBUS*%
X139580950Y-105965500D02*
X140294500Y-105965500D01*
X153094500Y-104115500D02*
X152844500Y-104365500D01*
%TO.N,GND*%
X151294500Y-109023000D02*
X150952000Y-109365500D01*
X148494500Y-102015500D02*
X150644500Y-102015500D01*
X151544500Y-108365500D02*
X151294500Y-108615500D01*
X134119304Y-102854000D02*
X134630806Y-103365502D01*
X131269500Y-91090500D02*
X130619500Y-91740500D01*
X131920500Y-114033491D02*
X131618500Y-114335491D01*
X130794500Y-109915500D02*
X131920500Y-111041500D01*
%TO.N,SWDIO*%
X138394500Y-119614500D02*
X137894500Y-119614500D01*
X133644500Y-119615500D02*
X132694500Y-118665500D01*
X138405848Y-119625848D02*
X138394500Y-119614500D01*
X137893500Y-119615500D02*
X133644500Y-119615500D01*
%TO.N,GND*%
X145622500Y-92693500D02*
X143125094Y-92693500D01*
X137469500Y-90640500D02*
X137494500Y-90665500D01*
X157544500Y-107115500D02*
X159954500Y-109525500D01*
X134194500Y-99115500D02*
X134569500Y-99115500D01*
%TO.N,SWDIO*%
X137894500Y-119614500D02*
X137893500Y-119615500D01*
%TO.N,GND*%
X130794500Y-117115500D02*
X130794500Y-118665500D01*
X133111302Y-98032302D02*
X134194500Y-99115500D01*
%TO.N,SDA*%
X129969500Y-90590500D02*
X129969500Y-91090500D01*
%TO.N,GND*%
X130619500Y-91740500D02*
X130619500Y-92640500D01*
X131209313Y-102658000D02*
X131405313Y-102854000D01*
X159954500Y-101125500D02*
X159954500Y-110105500D01*
X132494500Y-98032302D02*
X133111302Y-98032302D01*
X137494500Y-90665500D02*
X138794500Y-90665500D01*
X131344500Y-90665500D02*
X131269500Y-90590500D01*
X153794500Y-109535500D02*
X154004500Y-109745500D01*
X131294500Y-116615500D02*
X130794500Y-117115500D01*
X145794500Y-115865500D02*
X145794500Y-112115500D01*
X132044500Y-115865500D02*
X133091500Y-114818500D01*
X159954500Y-101125500D02*
X159944500Y-101115500D01*
X130494500Y-108115500D02*
X130794500Y-108415500D01*
X143719500Y-100764410D02*
X142570590Y-99615500D01*
X131405313Y-102854000D02*
X134119304Y-102854000D01*
X153194500Y-102615500D02*
X153794500Y-102615500D01*
X136025390Y-93780600D02*
X135594500Y-94211490D01*
%TO.N,SDA*%
X128868500Y-92191500D02*
X128868500Y-93372400D01*
%TO.N,GND*%
X146302588Y-96963588D02*
X146294500Y-96955500D01*
X131894500Y-109795500D02*
X131894500Y-109365500D01*
X131269500Y-90590500D02*
X131269500Y-91090500D01*
X153794500Y-108115500D02*
X153794500Y-109535500D01*
X150644500Y-102015500D02*
X151345500Y-101314500D01*
X137194500Y-90640500D02*
X137469500Y-90640500D01*
X137194499Y-94311702D02*
X137194499Y-94615500D01*
X149794500Y-105455500D02*
X149646516Y-105455500D01*
X151345500Y-101314500D02*
X153833500Y-101314500D01*
X141694500Y-109215500D02*
X141694500Y-108715500D01*
X152094500Y-102865500D02*
X152944500Y-102865500D01*
X131618500Y-114335491D02*
X131618500Y-115439500D01*
X148694500Y-116415500D02*
X146794500Y-118315500D01*
X131794500Y-91115500D02*
X131294500Y-91115500D01*
X129894500Y-97615500D02*
X129294500Y-98215500D01*
X129894500Y-95615500D02*
X129894500Y-97615500D01*
X130283366Y-102815409D02*
X130344591Y-102815409D01*
X131294500Y-91115500D02*
X131269500Y-91090500D01*
%TO.N,SDA*%
X129687000Y-94308000D02*
X131094500Y-95715500D01*
%TO.N,GND*%
X141894500Y-118615500D02*
X141694500Y-118815500D01*
X131920500Y-111041500D02*
X131920500Y-114033491D01*
X148694500Y-111515500D02*
X148694500Y-116415500D01*
X153833500Y-101314500D02*
X154004500Y-101485500D01*
X154004500Y-102405500D02*
X153794500Y-102615500D01*
X153794500Y-108115500D02*
X153544500Y-108365500D01*
%TO.N,HCMS_DATA_IN*%
X156794500Y-107641492D02*
X156794500Y-103589508D01*
X158978500Y-101405508D02*
X158978500Y-100845492D01*
%TO.N,GND*%
X137194499Y-94615500D02*
X137194499Y-93806600D01*
%TO.N,HCMS_DATA_IN*%
X158978500Y-109825492D02*
X156794500Y-107641492D01*
X158985500Y-89790410D02*
X157810590Y-88615500D01*
%TO.N,GND*%
X126094500Y-106115500D02*
X126044500Y-106065500D01*
X146302588Y-97008000D02*
X146302588Y-96963588D01*
X129794500Y-106640500D02*
X130019500Y-106640500D01*
X131618500Y-115439500D02*
X132044500Y-115865500D01*
X134569500Y-99078484D02*
X134569500Y-99115500D01*
X130344591Y-102815409D02*
X130426000Y-102734000D01*
X130794500Y-109365500D02*
X130794500Y-109915500D01*
X142570590Y-107839410D02*
X142570590Y-107235500D01*
X143719500Y-101533000D02*
X143719500Y-100764410D01*
X153544500Y-108365500D02*
X152094500Y-108365500D01*
X143125094Y-92693500D02*
X142851094Y-92967500D01*
X159944500Y-88765500D02*
X156794500Y-85615500D01*
X148094500Y-102415500D02*
X148494500Y-102015500D01*
X133091500Y-114412500D02*
X132742500Y-114063500D01*
X159944500Y-101115500D02*
X159944500Y-88765500D01*
X152094500Y-108365500D02*
X151544500Y-108365500D01*
X137194499Y-94615500D02*
X137994500Y-94615500D01*
X130794500Y-108415500D02*
X130794500Y-109365500D01*
%TO.N,Net-(D100-K)*%
X155244500Y-95115500D02*
X155269500Y-95090500D01*
%TO.N,GND*%
X132742500Y-114063500D02*
X132742500Y-110643500D01*
%TO.N,Net-(D100-K)*%
X155269500Y-95615500D02*
X155269500Y-95090500D01*
X155269500Y-95090500D02*
X155269500Y-95215500D01*
X153384500Y-95115500D02*
X155244500Y-95115500D01*
%TO.N,Net-(X200-CC2)*%
X155794500Y-105615500D02*
X155294500Y-106115500D01*
X155294500Y-106115500D02*
X153794500Y-106115500D01*
X155794500Y-101890501D02*
X155794500Y-105615500D01*
%TO.N,JOY_UP*%
X135294500Y-111265498D02*
X134969500Y-111265498D01*
X134694500Y-110990498D02*
X134694500Y-110265500D01*
X134969500Y-111265498D02*
X134694500Y-110990498D01*
%TO.N,JOY_DOWN*%
X135797798Y-108362789D02*
X135797798Y-108368798D01*
X135401807Y-107966798D02*
X135797798Y-108362789D01*
X135361369Y-107932369D02*
X135395798Y-107966798D01*
X135797798Y-108368798D02*
X135894500Y-108465500D01*
X135894500Y-108465500D02*
X135894500Y-109365500D01*
X134491087Y-107932369D02*
X135361369Y-107932369D01*
X134301228Y-108122228D02*
X134491087Y-107932369D01*
X135395798Y-107966798D02*
X135401807Y-107966798D01*
%TO.N,HCMS_RS*%
X132728689Y-116614500D02*
X132743500Y-116614500D01*
%TO.N,Net-(D101-A)*%
X136294500Y-90415500D02*
X135844500Y-89965500D01*
X150794500Y-91115500D02*
X149644500Y-89965500D01*
%TO.N,VBAT*%
X133694499Y-104840499D02*
X133044500Y-104190500D01*
D40*
%TO.N,USB_D+*%
X139894500Y-118765500D02*
X140746500Y-119617500D01*
D39*
%TO.N,JOY_LEFT*%
X135121798Y-108642798D02*
X135121798Y-109188202D01*
%TO.N,VDIV*%
X147794500Y-107615500D02*
X149544500Y-109365500D01*
%TO.N,SDA*%
X131752698Y-97357302D02*
X134794501Y-97357302D01*
X129969500Y-91090500D02*
X128868500Y-92191500D01*
%TO.N,GND*%
X134630806Y-103365502D02*
X135314498Y-103365502D01*
X133091500Y-114818500D02*
X133091500Y-114412500D01*
X137169101Y-94286304D02*
X137194499Y-94311702D01*
X142794500Y-118615500D02*
X141894500Y-118615500D01*
%TO.N,SDA*%
X128868500Y-92191500D02*
X128868500Y-91289500D01*
X131094500Y-99065500D02*
X131094500Y-98015500D01*
X131094500Y-95715500D02*
X131094500Y-99065500D01*
%TO.N,GND*%
X137194499Y-93806600D02*
X137168499Y-93780600D01*
X159954500Y-109525500D02*
X159954500Y-110105500D01*
X141694500Y-108715500D02*
X142570590Y-107839410D01*
X152944500Y-102865500D02*
X153194500Y-102615500D01*
X130426000Y-102734000D02*
X130553016Y-102734000D01*
X131294500Y-116615500D02*
X132044500Y-115865500D01*
%TO.N,HCMS_RS*%
X132743500Y-116614500D02*
X133094500Y-116965500D01*
X133094500Y-116965500D02*
X133094500Y-117765500D01*
%TO.N,SDA*%
X131094500Y-98015500D02*
X131752698Y-97357302D01*
X128868500Y-91289500D02*
X128094500Y-90515500D01*
X129687000Y-94115500D02*
X129687000Y-94308000D01*
X128868500Y-93372400D02*
X129611600Y-94115500D01*
%TO.N,GND*%
X145919500Y-92990500D02*
X145622500Y-92693500D01*
%TO.N,SDA*%
X134544500Y-97357302D02*
X134794501Y-97357302D01*
%TO.N,GND*%
X151294500Y-108615500D02*
X151294500Y-109023000D01*
X132742500Y-110643500D02*
X131894500Y-109795500D01*
X137168499Y-93780600D02*
X136025390Y-93780600D01*
X130494500Y-107115500D02*
X130494500Y-108115500D01*
X154004500Y-101485500D02*
X154004500Y-102405500D01*
X135594500Y-94211490D02*
X135594500Y-94615500D01*
%TO.N,HCMS_DATA_IN*%
X160119500Y-117041304D02*
X160119500Y-111526508D01*
X135194500Y-116015500D02*
X135094500Y-116015500D01*
%TO.N,+3V3*%
X139423599Y-95986401D02*
X138512998Y-95986401D01*
X137794500Y-95450400D02*
X136394500Y-95450400D01*
%TO.N,Net-(U201-VOUT)*%
X134095000Y-100590000D02*
X132256696Y-100590000D01*
X134569500Y-100115500D02*
X134569500Y-101380502D01*
%TO.N,Net-(R210-Pad2)*%
X145134500Y-118115500D02*
X146593300Y-116656700D01*
X151200606Y-106097238D02*
X151432344Y-105865500D01*
X146593300Y-116656700D02*
X146593300Y-106816700D01*
%TO.N,Net-(D101-A)*%
X135844500Y-89965500D02*
X134794500Y-88915500D01*
X136294500Y-91615500D02*
X136294500Y-90415500D01*
%TO.N,Net-(U201-VOUT)*%
X134569500Y-100115500D02*
X134095000Y-100590000D01*
%TO.N,Net-(R209-Pad2)*%
X153094500Y-105615500D02*
X152844500Y-105365500D01*
%TO.N,Net-(R210-Pad2)*%
X148418500Y-106491500D02*
X148544500Y-106365500D01*
X154794500Y-105115500D02*
X153794500Y-105115500D01*
%TO.N,5V_EN*%
X136044500Y-103078503D02*
X136044500Y-107249700D01*
X136257503Y-102865500D02*
X136044500Y-103078503D01*
%TO.N,+3V3*%
X142594500Y-101615500D02*
X141174100Y-101615500D01*
X138794499Y-94615500D02*
X138794499Y-95333999D01*
%TO.N,VDIV*%
X149544500Y-109365500D02*
X150137000Y-109365500D01*
%TO.N,HCMS_CLOCK*%
X134644500Y-115215500D02*
X135094500Y-115215500D01*
%TO.N,+5V*%
X153694500Y-98715500D02*
X152994500Y-98715500D01*
%TO.N,JOY_BACK*%
X139497500Y-115515015D02*
X138695015Y-116317500D01*
X139935105Y-113006105D02*
X140544500Y-113615500D01*
X138692500Y-116317500D02*
X138294500Y-116715500D01*
X139893500Y-112719610D02*
X139944500Y-112770610D01*
%TO.N,JOY_LEFT*%
X135121798Y-109188202D02*
X135094500Y-109215500D01*
X135094500Y-109215500D02*
X135094500Y-109365500D01*
%TO.N,+3V3*%
X137976997Y-95450400D02*
X137794500Y-95450400D01*
X135093900Y-95450400D02*
X134794499Y-95150999D01*
%TO.N,VBUS*%
X146794500Y-102815500D02*
X146169500Y-103440500D01*
X141694500Y-118015500D02*
X142244500Y-118015500D01*
%TO.N,+3V3*%
X130544500Y-93166500D02*
X129995500Y-93166500D01*
X150469500Y-92540500D02*
X150444500Y-92565500D01*
X130554500Y-94125687D02*
X130544500Y-94115687D01*
X141642500Y-92292500D02*
X141244500Y-92690500D01*
X136394500Y-96122402D02*
X136394500Y-95450400D01*
%TO.N,VBUS*%
X154294500Y-106615500D02*
X153794500Y-106615500D01*
X138739100Y-103619150D02*
X138739100Y-105123650D01*
%TO.N,+3V3*%
X129969500Y-91823400D02*
X129969500Y-92640500D01*
X138794499Y-95333999D02*
X138678098Y-95450400D01*
X130294500Y-94115500D02*
X130304687Y-94125687D01*
X141694500Y-116415500D02*
X141694500Y-115615500D01*
%TO.N,VBUS*%
X145044500Y-110455500D02*
X145544400Y-110455500D01*
X138739100Y-105123650D02*
X139580950Y-105965500D01*
%TO.N,Net-(D101-A)*%
X149644500Y-89965500D02*
X135844500Y-89965500D01*
%TO.N,+3V3*%
X131269500Y-92640500D02*
X131269500Y-93140500D01*
X130304687Y-94125687D02*
X130554500Y-94125687D01*
%TO.N,SCL*%
X134919502Y-95986401D02*
X135076002Y-95986401D01*
%TO.N,HCMS_CLOCK*%
X135194500Y-115215500D02*
X135094500Y-115215500D01*
%TO.N,Net-(D200-K)*%
X146794500Y-105765500D02*
X145794500Y-106765500D01*
%TO.N,VBAT*%
X156294500Y-116615500D02*
X158044500Y-116615500D01*
X136794500Y-103565501D02*
X136794500Y-103365502D01*
%TO.N,+3V3*%
X146971500Y-92292500D02*
X141642500Y-92292500D01*
X138678098Y-95450400D02*
X137794500Y-95450400D01*
%TO.N,Net-(R210-Pad2)*%
X151432344Y-105865500D02*
X152094500Y-105865500D01*
X146593300Y-106816700D02*
X146918500Y-106491500D01*
%TO.N,Net-(U201-VOUT)*%
X134569500Y-101380502D02*
X135299499Y-102110501D01*
X131219500Y-101627196D02*
X131219500Y-101790500D01*
%TO.N,HCMS_RESET*%
X135094500Y-114415500D02*
X135244500Y-114415500D01*
%TO.N,+3V3*%
X144537000Y-102348000D02*
X143719500Y-102348000D01*
X138512998Y-95986401D02*
X137976997Y-95450400D01*
%TO.N,Net-(U202-PROG)*%
X128404500Y-106930500D02*
X128319500Y-107015500D01*
%TO.N,Net-(R209-Pad2)*%
X152844500Y-105365500D02*
X152094500Y-105365500D01*
%TO.N,HCMS_DATA_IN*%
X136394500Y-114815500D02*
X135194500Y-116015500D01*
%TO.N,Net-(R209-Pad2)*%
X149605009Y-106261000D02*
X149250509Y-106615500D01*
X150080835Y-106261000D02*
X149605009Y-106261000D01*
%TO.N,+3V3*%
X145169500Y-101715500D02*
X144537000Y-102348000D01*
%TO.N,HCMS_DATA_IN*%
X137894500Y-114815500D02*
X136394500Y-114815500D01*
%TO.N,Net-(R209-Pad2)*%
X150976335Y-105365500D02*
X150080835Y-106261000D01*
%TO.N,+3V3*%
X130544500Y-94115687D02*
X130544500Y-93166500D01*
%TO.N,VBAT*%
X148044500Y-109615500D02*
X149544500Y-111115500D01*
X154042500Y-111115500D02*
X155294500Y-112367500D01*
%TO.N,Net-(R209-Pad2)*%
X153794500Y-105615500D02*
X153094500Y-105615500D01*
X152094500Y-105365500D02*
X150976335Y-105365500D01*
%TO.N,+3V3*%
X143327000Y-102348000D02*
X142594500Y-101615500D01*
X130619500Y-91173400D02*
X129969500Y-91823400D01*
%TO.N,Net-(U201-VOUT)*%
X132256696Y-100590000D02*
X131219500Y-101627196D01*
X135299499Y-102110501D02*
X135554499Y-102365501D01*
%TO.N,Net-(Q100-D)*%
X150170500Y-93241500D02*
X152044500Y-95115500D01*
X149768500Y-92839500D02*
X149768500Y-92845509D01*
X140945500Y-91891500D02*
X148820500Y-91891500D01*
X148820500Y-91891500D02*
X149768500Y-92839500D01*
%TO.N,Net-(R210-Pad2)*%
X144934500Y-118075500D02*
X144934500Y-118115500D01*
X146918500Y-106491500D02*
X148418500Y-106491500D01*
%TO.N,Net-(Q100-D)*%
X152044500Y-95115500D02*
X152569500Y-95115500D01*
X149768500Y-92845509D02*
X150164491Y-93241500D01*
%TO.N,+3V3*%
X131243500Y-93166500D02*
X130544500Y-93166500D01*
X153219500Y-92540500D02*
X150469500Y-92540500D01*
%TO.N,SWCLK*%
X131894500Y-118665500D02*
X131894500Y-119515500D01*
X131894500Y-119515500D02*
X131794500Y-119615500D01*
%TO.N,HCMS_DATA_IN*%
X152019500Y-117865500D02*
X159295304Y-117865500D01*
X159295304Y-117865500D02*
X160119500Y-117041304D01*
X160119500Y-111526508D02*
X158978500Y-110385508D01*
X150644500Y-116490500D02*
X152019500Y-117865500D01*
X158978500Y-110385508D02*
X158978500Y-109825492D01*
%TO.N,+5V*%
X150514500Y-96235500D02*
X150190590Y-96235500D01*
%TO.N,Net-(Q100-D)*%
X150164491Y-93241500D02*
X150170500Y-93241500D01*
X140669500Y-91615500D02*
X140945500Y-91891500D01*
%TO.N,HCMS_DATA_IN*%
X156794500Y-103589508D02*
X158978500Y-101405508D01*
%TO.N,VBUS*%
X144769500Y-115490500D02*
X144769500Y-111180500D01*
X153794500Y-104115500D02*
X153094500Y-104115500D01*
%TO.N,+5V*%
X137490590Y-99615500D02*
X140030590Y-99615500D01*
%TO.N,VBUS*%
X147622442Y-103293442D02*
X146794500Y-102465500D01*
X154469500Y-106790500D02*
X154294500Y-106615500D01*
X154795500Y-106790500D02*
X154469500Y-106790500D01*
%TO.N,JOY_BACK*%
X139935105Y-112829491D02*
X139935105Y-113006105D01*
X139893500Y-115116500D02*
X139497500Y-115512500D01*
%TO.N,GND*%
X131169409Y-102815409D02*
X131219500Y-102865500D01*
X130283366Y-102815409D02*
X131169409Y-102815409D01*
%TO.N,Net-(U201-VOUT)*%
X130294500Y-101730500D02*
X131219500Y-101730500D01*
%TO.N,VBAT*%
X127394500Y-103815500D02*
X127394500Y-103759491D01*
X127394500Y-103759491D02*
X126343009Y-102708000D01*
X126343009Y-102708000D02*
X125794500Y-102708000D01*
%TO.N,Net-(D200-K)*%
X146794500Y-105765500D02*
X146794500Y-105440500D01*
X145918500Y-104570509D02*
X145918500Y-104564500D01*
X146794500Y-105440500D02*
X146320500Y-104966500D01*
X146320500Y-104966500D02*
X146314491Y-104966500D01*
X146314491Y-104966500D02*
X145918500Y-104570509D01*
X145918500Y-104564500D02*
X145219500Y-103865500D01*
X142974500Y-103865500D02*
X141680000Y-103865500D01*
X141680000Y-103865500D02*
X141174100Y-104371400D01*
%TD*%
M02*
